<mxfile host="www.draw.io" modified="2020-01-03T03:07:32.677Z" agent="Mozilla/5.0 (Macintosh; Intel Mac OS X 10_13_6) AppleWebKit/537.36 (KHTML, like Gecko) Chrome/79.0.3945.88 Safari/537.36" etag="gBvN5XpYPEUxQX8lpgGP" version="12.4.8" type="github">
  <diagram id="sRUtde1YTPgnpw8RYn3z" name="Page-1">
    <mxGraphModel dx="1186" dy="680" grid="1" gridSize="10" guides="1" tooltips="1" connect="1" arrows="1" fold="1" page="1" pageScale="1" pageWidth="827" pageHeight="1169" math="0" shadow="0">
      <root>
        <mxCell id="0"/>
        <mxCell id="1" parent="0"/>
        <mxCell id="p0AlBM5lABDZXC_UDDaY-17" value="" style="edgeStyle=orthogonalEdgeStyle;rounded=0;orthogonalLoop=1;jettySize=auto;html=1;" edge="1" parent="1" source="p0AlBM5lABDZXC_UDDaY-1" target="p0AlBM5lABDZXC_UDDaY-5">
          <mxGeometry relative="1" as="geometry"/>
        </mxCell>
        <mxCell id="p0AlBM5lABDZXC_UDDaY-1" value="" style="shape=image;verticalLabelPosition=bottom;labelBackgroundColor=#ffffff;verticalAlign=top;aspect=fixed;imageAspect=0;image=data:image/jpeg,/9j/4AAQSkZJRgABAQAAAQABAAD/2wCEAAkGBxAQEBAPEBIQDw8PDw4RDxAPEBUQEA8QFRUWFxUSExYYHyggGBolGxgVIjEhJSktLi4uGB8zODMtNygtLisBCgoKDg0OFQ8PGCsZFRkrKystLS0rLS0tKysrKys3Ky0rKy0tLS0tLS0tLS0tLS0rLSs3LSsrLSstNy0tNystK//AABEIAOEA4QMBIgACEQEDEQH/xAAcAAEAAQUBAQAAAAAAAAAAAAAABQECAwQGBwj/xABHEAACAQIDAgoGBgcGBwAAAAAAAQIDEQQSIQUxBgcTIkFRYXGBkSNSYpKh0TJCU3OxshRDY3J0gqIVJbPBwuEkMzVU4vDx/8QAFgEBAQEAAAAAAAAAAAAAAAAAAAEC/8QAGREBAQEBAQEAAAAAAAAAAAAAABEBEiEC/9oADAMBAAIRAxEAPwD3EAAAAAAAAAAAAAAAAAAAAAAAAAAAAAAAAAAAAAAAAAAAAAAAAAAAAAAAAAAAAAAAAAAAAAAAAAAAAAAAAAAAAAAAAAAAAAAAAAAAAAAAAAAAAAAAAAAAAAAAAAAAAAAAAAAAAAAAAAtc0t7S72BcDDLFU19aPg7/AIGOWOh2vuTA2gaUtoLojJ99kY5bQl0QXiwJEEXLGVX6q7kWOrVf1n4JIsEuUuc3trakMHh6uLxE5qlRjmlztZO9owir722ku88jxnHNi5yfIUsPShrlU4yqTt2u6V/Ag+gLlT5wnxvbVT34a33H/kbOG47cfTa5ShhqsenLnpS87tfAD6GB5LsTjxwVRxjiaVbDN75WVakn2uNpf0no+x9vYXFw5TD1qVaHS6c1PK+qSWsX2MCTBRMqAAAAAwYmu46LV9u5AZwRzrVH027ki28nvk/MQSZZKrFb2l4ka6d9+vfqVVNFg3nioL6y8LsseNh0Xfh8zVyorZCDM8d1Rfi7FjxsuiKXe2y2wAPE1H0pdyLXOo/rPw0LhcDE6be9yfe2OQRmKXKLFRRVU0X3KXApkRXKihdcClipRsidqcIKFBNJ8pUX1IO+va9yA4nju2soYfD4SL59Wo6so/s4Kyv3yl8GeI8jFy+tHXcn+B0XDXaSxGKq1K9eFSo3ZwjGTjTitFTWltO/fc5uSg/ozXc3dfEzuBiqEo6/Sj1ro710GpUenibcMVKm7O0l33NfFZU7xXNkrpdXWgMBt7N2lXw1RVcPVqUKia51OTi3bofrLsehrJ9iF+7yA9v4B8csZuNDaWWlN6RxUValJ/tY/VftLTuPaKVRSSa6T4pzf+2PqDiX2hOvsfDOo80qfKUcz3uMJyUb/wAtl4AdyAABoVXzn3s3yOqb33suLigKAoqCgCKgFAKgAACgAqClxcCoLZSSTbaSW9t2SXacJwn41MBhM0KL/Ta6ustF+iT9qpu8rsDvWzn8dwvwsJzo05qvWppOcKb0he9s0t3Q9x4htvhZtPakstSbpYeTS5CjzKeX2nvn4u3YTHB7XEY2XtUYeCi5L4SGDtdo7er1rpyyQf1IXS8XvZEsXNHa+1KWFp8rVdk3aKWspy6oo0PMuFeH5PGV42snNTXappS/FsiDoeFG1Vi5U58hOg1zY1aj0nB7r6WVn03fSaOM4P4qlrKlKUfWp+ki+3mmBoUNZRT3OUU+5s2Nr4bkqs6fqya/+FmCwsp1qNKzUp1acUmmndySJThjSy4qr1Z7eNiCCRQy4fDzqSUKcJVJvdGEXKT8EejcFuJvH4rLPE2wdJ20lzqrXZHoA85oUZVJRpwi5zm0oxiryk30JH1lxc8H5bO2bh8LP/mxjKdXp9JOTlJeF7eBh4I8Xuz9m2nRp569ta9TnT7bX+j4HWAAAAIyW997JMi8RpKVldptpdfYXBZKrFb5Jd7RbLFU1e84LKk5XktE9zfUcLU4LYyekpJqUdZOcfRyqZnVypLVZq1Rq/2a61bcq8GsRKEINwssLChV52tWUasr1G+2EpS/ea6jUK6h7SoJtctSut65SOmjlrr1JvuTLqO0aM7ZKkJ3y/Rkn9JuMfNxkvBnJ1+DmJlK65NUoVp1aVB1X+sqU51ISnl3c2dtN02jd2PwanRrwrzqKTy1HWSv6So3eEuxJyqu3tIeDqLi5aCC64uWgCouUIbhZtr9Cws66ipzuowi3ZOT3X7CCZqTUU5Saikrtt2SXW2eecJ+NjC4dypYSLxtZXWaLtQi+2W+XgujeeZ7X2/jto87FV5Km9Y0KXo6UV1WW/xuamHoQhuSKNzbO3dp7Sf/ABFaUKXRRot06S/lTu/Fs18JsinC19e8zxqlXWA3qOVNJLe0tO3QkuDySliH0ynSv38lAgaFbnw+8p/mROcG3pX++t5Qghgm1q7HIU4/pmLrYiaU6OFm8PhactYSqRes2un1vGPUdRiK3J06lT1KdSfjGLa/AiuLignQoX1vy1WXbNzypvwSLoy47ZWJcHKUnNNa06kb05LqcXovJeBj2BV5jp6pQ+gnq4R3Om/3Xu7HE7ef+z6mmcPOHJY6pTW6SzeDun8YxAl6Sjng2k2pJptK67jR2VwRobU2lWw1eU4QjKdZuk0pyyqnHJdp2TzfA3Kb1XeiY4vV/fNftw1d/wBVAaO/4PcFMDgI5cLQp030zy3qS7XJ6smwDAAAAAABG4yPPettFpbpJI09o0G4uUXlmkrO11v6gNPL7T8kMntPyRq8nW+0XuIcnV+0XuIqxs5Pal8CuRetI1eSq/af0RHJVftP6I/IEbWRetLzKZF1y8zW5Gr9o/cj8inI1ftX7sfkCNrIuuXmOTj1y8zV5Cr9q/dj8inIVftX7sfkCNvk4+17zOZ4wskcFK8HNynBRbd8rvfN5JrxJvkKv2svdj8jS2nsp1oNVJymoqTSaVr2eugHzzRnzV3Iv5Q1absrFcxUbUapV1DVUiuYDcw1T0lP72n+ZHTcGZc3EfxNRfCJyWGn6Sn95T/MjqOCsubiP4iT84xYwS+OjmpVY+tSqx84tEdxcV0qVKN9Uq1N/vKWdfCRLM4zA13g8VVoN5FOanRk9IqWuW/Y1p4Iupj1aatv3tryRw+Nnnx7ktyjl8byl+CRu4nhRzcmVxqtWy2ea/Z/t5EZsmDc51JfS1T7JO3M8F8ZNdAVMQeq7yZ4uf8Aq9T+Drfnw5C0dZJdbJvi3X971ezCVv8AEo/IaPWwAYAAAAAAKSV011lQBDPR2e9FLmbasMr5RbnZS7H0M0FXRVbNypgVZFyqIqsgLM5VSAuBbmGYIuKS1VutMpmCYHzBio5alSPq1KkfKTRhuSHCSjyeMxcPVxWIXhykrfAjbhF9xctuLgZaErTi+qUX8Tq+C0tcUv2tP/CgcepHWcGZ+lxS7aU/NSS/AYOiuRe3NjwxUVd5Zx+jP/J9aNrEYtQ3pmH+0o9TNIhcLsPFx9HLENUl0QlJtrqV1odBh6MacVCCtGKsl8yG2TwgdZTk4WyzcVbpW83XtJdT8yYJXCfTj3nQcVdPNtHF1PUw0Y+/Vb/0HNbLrKcsy0spb+5nZcTlO6x1brrU6a/li5f60TVekAAyAAAAAAAALZxTTTV09Gn0ogMfsKablQldepJ2t3P5nQgDha0MTT+lSqd6i5LzRge0ZLfGS70z0Eo4p70mFrz9bZXSXR23HrO6lhqb3wg++KZgnsrDS30KD76UH/kPSuQjtmPWZFtddZKbf2FR5JypUoQnGUX6ONm1ua07zl54FrepLvuKqWW1o9Zd/akesgZYXtLHhn1ikedcZuz5Qxs8RFXpYm08y3Kra04vt0T8ew5BtntmJwKnFwmozi98ZRUk/A5/HcD6EruKdN+zqvJikeZZmMzOorcF5XeWcX3q34GNcEq73Sp+b+ROk51zeZk5sXHypSVSCjLmKFSMpZU0tzzWaT79Hc6LBcU+0q1ONWDw+Sd3HNUadr23Zew2qXFBtaLvGeGi+tVpJ/CJc+iNahwgpNc+nWhfpUOVh71O68zYjicJP9ZSv1SahLydmb1Pit2to5foM31ucs3moGzHiw2l0uiv3cXVt5WNdIh6WCwkVaHJRTk5c2SScpb3vNilhaO+OV9q1JSlxV45vWpSh2uvUf4Ik8LxSz/XYttdMYcpL807fAUc8sdQoXc5QSyyVpPXVdC6Wej8WGz50cApzg6c8TWqYjJJWlGElGNNSXQ8kY6do2Fxd7PwklUUHWqLVSqqLin1qMUl53OuJugACAAAAAAAAAAAAAAAAAAALJUovek+9JmN4Sk99OD/AJEZwBqS2bQe+lT9xGKexcM99Gn5EgAIV8FMD/28POXzKrgtgV+oh5y+ZMgFY6FGNOMYQWWMUlFLoS6DIAAAAAAAAAAAAAAAAAAAAAAAAAAAAAAAAAAAAAAAAAAAAAAAAAAAAAAAAAAAAAAAAAAAAAAAAAAAAAAAAAAAAAAAAAAAAAAAAAAAAAAAAAAAAAAAAAAAAAAAAAAAAAAAAAAAAAAAAAAAAAAAAAAAAAAAAAAAAAAAAAAAAAAAAAAAAAAAAAB//9k=;" vertex="1" parent="1">
          <mxGeometry x="510" y="228.21" width="65" height="65" as="geometry"/>
        </mxCell>
        <mxCell id="p0AlBM5lABDZXC_UDDaY-2" value="" style="shape=image;verticalLabelPosition=bottom;labelBackgroundColor=#ffffff;verticalAlign=top;aspect=fixed;imageAspect=0;image=data:image/webp,UklGRkoHAABXRUJQVlA4ID4HAACQLQCdASrEAMQAPj0ejUQiIaGTWWUEIAPEtJfe+GATn7pn9VGVn3c+CJmS9QLuF/tPy55lvqrr5vkfsAfx/+oehVpjer/Us/tX/I4ED9jin3VTnDf6OLHlVozcdtMAyLi478X3Ggns0map0etpAoZep12jbTT4M2Lc5Pzurvd+mfRDRY8NESYHBD2DGOUiWW+P7JiuYPAJtD5/XCnz/DdZ0UGIvBolin87jltkEBwR14yAGl/hzEh7FOwZ2QSO9SISDAshc6J/Ppi95HeVqCv9InKy9TrtS303UGJh5yg7Jj5Fs9YQCHRfFEcSJeXl08Sa89LXSUYn9JUyesJoOMS9Tk+4n91m5VjlYRhDFjrSZwNlEMcW/+VF4NEsUMFqTlmjDvTVI24UauPJoBC9RsGiWKfp1EDEGmOS5OwdJEvUa0kgashdmC6Z8bASy5MQObrm4uJ1XXZqP5Fpy79UIeiNiHHakMS8TjtqD5iGjJXA6ocpEqgAAP7+FLOHphy7fOdimVJL6JKP8r8yb/gTRULdaWY49mCxus4Or8dWIz10WePmI1cvwC/l0fDbDeXLC4lnUlBbnw6V6okBXKbEq8dJ1TbtpTdx+w7/8m3/cI3NN/gwhrdAT8QwY4tgITGOqOOB36ZiHiznwJUSTSXpyP3TwEmwp+N2f//S2ob/lycX4PxUVSVoJrVYMA8R7cP8+xnT8o7T8F/368UgpjTV9XRYksxTCIF/FpK6sj8CHDx0VRh/ba8gY9Ss0CefTE2nph/7ao/PNV8H5HZjwnt+FH2VP0iBRnCSm/sxXAzidsv2bI9q3UQoG9EHAbYEB+Iy4GUm1n+0/3iNJCH7oaAT7UzhGd4UdwL1eZZPSrRn/L8rBFGKSIfxupJ0Q3s7/uxjjwkSRaCXb9I645TESYeClkvfP1PgZxjQz2SO8XklvxMFCQEiBgahGXH9oUGA84cYN9Dk7A3x10/ZuAWk+O2yr0iHTdxSJdlq/1N7+0SfE1pUMOcuXlney3zv807ARcD9LTn92z+528WgEPXelV2Ti1CprLJUL1P3k9PDl0JO3i51ZUK4CLdLEFLIhSIEbdtkhS6FaTcYvU993IrlmCRa0eBo3NFkd7cHQP/N+HZum3AHxk3zMu+X9op4sN2evhuNxAY1dWIiDWdI726XKHuSVcnBYhOUhBUMrAG0JklaP5OrRgS4t7wqPXRLYPEhYyRQNXtAOm/J9zZm80uCt7uF48mgHeQET3WXb+UPrhHQuZKLzNAD9ZhrbS8HAL78jqTH2StFDiA7hEU7dHLq+a6qFClFhXe1U6E/Bmw6PZxf53/Hqu24p8vHv0QUdtkv6kSGidBslPRAykadNiTKUIx8epXu76zwvLLl+6cBBs+7Gz+YIB6eT7Yf632MoXqsBnki33o4sztGl3TIPupGznVYwIy7xXSR+PkXRhk3SatmnB2+pQfsJ5PLge3IXW8wACU/aNHk8trT9j/HXxzhd3fr0+b+brmFQpbbKIlYxhJKqe9I801bcW2AK9cJqoVHwMdfIFXXmAugHjrq9ru+btz52Mndng3en6FJRDQnXhQWNqLMp3lZNkz/kydisGzGluDAAAXa64W6AK8/XO0mP9JSVX/KabF/rSfR+o/U5tW4bOpB1Fsuc7qARUi0wSmFYNUqXvtA0F7NQ1xVXvarVetZ2H0bI1gb+4alyjtq+qmUvyt98/ORnbKaMFHswj+HT13950nDjh/quaAI38zH6B5Xf8TiE70H33R+v/8NrdCyQfCOumfU1bdnFsRjZ/CS04fNIVcuxAEO22/vs0h1C7LDyeIKPYozzhM+RnaoUEXi4/q93COrhW5wC+V/Y8fyFARxtZVi/ZkPHXaI0VPF//oefxIn/lKq32/PLts4J1+fjypFnsW787GphT2ar92qob2CHhWFUdYX+Iz4RAH1xC2PT/ltHn5eNLhOOmMyoihdT98jj+jKE7RMptJAJfhjC2qD59RuSbkiiImqyHrjMvlffMqSnruviGHI8sCnXvuh7kqryN9t0uQM1iW0tIgIfLZlrgQDogVybjzq/yvEm394LBKTJRh/4i4fvXQkz2wiEWcPTDsgMEUrVic3/xBL3C8miAw+1C6oJB4GoeYAACwmXEP87JJyFnVcCsrVy7Bn7KPtUQY+2UO7MA8PIbcJ2MBs77a9JvE66iz9EzEn6yUYILGJocc49UImNtMoFmT75nKk8uDM+LFRSq7Fr93M+6J5ylY+Werb/jz33/yfQI59phoQsxLkaj0G5PPaQGtb08mE/0vGy7FJqB9mnPZt8LmiLb3GtOC0rK3uME3Q5ZhDVeh53V++UXZeIT6dQtQ5RzxA7dDrMevhepGeuRe4jDuBu0Zb5d9eBXYtbieKhaVHcY4tk5G44exGaf+Bsi3GSaGV+Ib6ZlLv/mqxns7oZbAkj//N4ew4rdwFXg7tIdAFXwqPfaJofbqZ0wNbxTgAAAA=;" vertex="1" parent="1">
          <mxGeometry x="510" y="430" width="50" height="50" as="geometry"/>
        </mxCell>
        <mxCell id="p0AlBM5lABDZXC_UDDaY-16" value="" style="edgeStyle=orthogonalEdgeStyle;rounded=0;orthogonalLoop=1;jettySize=auto;html=1;entryX=1;entryY=0.5;entryDx=0;entryDy=0;" edge="1" parent="1" source="p0AlBM5lABDZXC_UDDaY-3" target="p0AlBM5lABDZXC_UDDaY-5">
          <mxGeometry relative="1" as="geometry">
            <mxPoint x="420" y="178" as="targetPoint"/>
          </mxGeometry>
        </mxCell>
        <mxCell id="p0AlBM5lABDZXC_UDDaY-3" value="" style="shape=image;verticalLabelPosition=bottom;labelBackgroundColor=#ffffff;verticalAlign=top;aspect=fixed;imageAspect=0;image=data:image/jpeg,/9j/4AAQSkZJRgABAQAAAQABAAD/2wCEAAkGBxAQEBAPEBIQDw8PDw4RDxAPEBUQEA8QFRUWFxUSExYYHyggGBolGxgVIjEhJSktLi4uGB8zODMtNygtLisBCgoKDg0OFQ8PGCsZFRkrKystLS0rLS0tKysrKys3Ky0rKy0tLS0tLS0tLS0tLS0rLSs3LSsrLSstNy0tNystK//AABEIAOEA4QMBIgACEQEDEQH/xAAcAAEAAQUBAQAAAAAAAAAAAAAABQECAwQGBwj/xABHEAACAQIDAgoGBgcGBwAAAAAAAQIDEQQSIQUxBgcTIkFRYXGBkSNSYpKh0TJCU3OxshRDY3J0gqIVJbPBwuEkMzVU4vDx/8QAFgEBAQEAAAAAAAAAAAAAAAAAAAEC/8QAGREBAQEBAQEAAAAAAAAAAAAAABEBEiEC/9oADAMBAAIRAxEAPwD3EAAAAAAAAAAAAAAAAAAAAAAAAAAAAAAAAAAAAAAAAAAAAAAAAAAAAAAAAAAAAAAAAAAAAAAAAAAAAAAAAAAAAAAAAAAAAAAAAAAAAAAAAAAAAAAAAAAAAAAAAAAAAAAAAAAAAAAAAAtc0t7S72BcDDLFU19aPg7/AIGOWOh2vuTA2gaUtoLojJ99kY5bQl0QXiwJEEXLGVX6q7kWOrVf1n4JIsEuUuc3trakMHh6uLxE5qlRjmlztZO9owir722ku88jxnHNi5yfIUsPShrlU4yqTt2u6V/Ag+gLlT5wnxvbVT34a33H/kbOG47cfTa5ShhqsenLnpS87tfAD6GB5LsTjxwVRxjiaVbDN75WVakn2uNpf0no+x9vYXFw5TD1qVaHS6c1PK+qSWsX2MCTBRMqAAAAAwYmu46LV9u5AZwRzrVH027ki28nvk/MQSZZKrFb2l4ka6d9+vfqVVNFg3nioL6y8LsseNh0Xfh8zVyorZCDM8d1Rfi7FjxsuiKXe2y2wAPE1H0pdyLXOo/rPw0LhcDE6be9yfe2OQRmKXKLFRRVU0X3KXApkRXKihdcClipRsidqcIKFBNJ8pUX1IO+va9yA4nju2soYfD4SL59Wo6so/s4Kyv3yl8GeI8jFy+tHXcn+B0XDXaSxGKq1K9eFSo3ZwjGTjTitFTWltO/fc5uSg/ozXc3dfEzuBiqEo6/Sj1ro710GpUenibcMVKm7O0l33NfFZU7xXNkrpdXWgMBt7N2lXw1RVcPVqUKia51OTi3bofrLsehrJ9iF+7yA9v4B8csZuNDaWWlN6RxUValJ/tY/VftLTuPaKVRSSa6T4pzf+2PqDiX2hOvsfDOo80qfKUcz3uMJyUb/wAtl4AdyAABoVXzn3s3yOqb33suLigKAoqCgCKgFAKgAACgAqClxcCoLZSSTbaSW9t2SXacJwn41MBhM0KL/Ta6ustF+iT9qpu8rsDvWzn8dwvwsJzo05qvWppOcKb0he9s0t3Q9x4htvhZtPakstSbpYeTS5CjzKeX2nvn4u3YTHB7XEY2XtUYeCi5L4SGDtdo7er1rpyyQf1IXS8XvZEsXNHa+1KWFp8rVdk3aKWspy6oo0PMuFeH5PGV42snNTXappS/FsiDoeFG1Vi5U58hOg1zY1aj0nB7r6WVn03fSaOM4P4qlrKlKUfWp+ki+3mmBoUNZRT3OUU+5s2Nr4bkqs6fqya/+FmCwsp1qNKzUp1acUmmndySJThjSy4qr1Z7eNiCCRQy4fDzqSUKcJVJvdGEXKT8EejcFuJvH4rLPE2wdJ20lzqrXZHoA85oUZVJRpwi5zm0oxiryk30JH1lxc8H5bO2bh8LP/mxjKdXp9JOTlJeF7eBh4I8Xuz9m2nRp569ta9TnT7bX+j4HWAAAAIyW997JMi8RpKVldptpdfYXBZKrFb5Jd7RbLFU1e84LKk5XktE9zfUcLU4LYyekpJqUdZOcfRyqZnVypLVZq1Rq/2a61bcq8GsRKEINwssLChV52tWUasr1G+2EpS/ea6jUK6h7SoJtctSut65SOmjlrr1JvuTLqO0aM7ZKkJ3y/Rkn9JuMfNxkvBnJ1+DmJlK65NUoVp1aVB1X+sqU51ISnl3c2dtN02jd2PwanRrwrzqKTy1HWSv6So3eEuxJyqu3tIeDqLi5aCC64uWgCouUIbhZtr9Cws66ipzuowi3ZOT3X7CCZqTUU5Saikrtt2SXW2eecJ+NjC4dypYSLxtZXWaLtQi+2W+XgujeeZ7X2/jto87FV5Km9Y0KXo6UV1WW/xuamHoQhuSKNzbO3dp7Sf/ABFaUKXRRot06S/lTu/Fs18JsinC19e8zxqlXWA3qOVNJLe0tO3QkuDySliH0ynSv38lAgaFbnw+8p/mROcG3pX++t5Qghgm1q7HIU4/pmLrYiaU6OFm8PhactYSqRes2un1vGPUdRiK3J06lT1KdSfjGLa/AiuLignQoX1vy1WXbNzypvwSLoy47ZWJcHKUnNNa06kb05LqcXovJeBj2BV5jp6pQ+gnq4R3Om/3Xu7HE7ef+z6mmcPOHJY6pTW6SzeDun8YxAl6Sjng2k2pJptK67jR2VwRobU2lWw1eU4QjKdZuk0pyyqnHJdp2TzfA3Kb1XeiY4vV/fNftw1d/wBVAaO/4PcFMDgI5cLQp030zy3qS7XJ6smwDAAAAAABG4yPPettFpbpJI09o0G4uUXlmkrO11v6gNPL7T8kMntPyRq8nW+0XuIcnV+0XuIqxs5Pal8CuRetI1eSq/af0RHJVftP6I/IEbWRetLzKZF1y8zW5Gr9o/cj8inI1ftX7sfkCNrIuuXmOTj1y8zV5Cr9q/dj8inIVftX7sfkCNvk4+17zOZ4wskcFK8HNynBRbd8rvfN5JrxJvkKv2svdj8jS2nsp1oNVJymoqTSaVr2eugHzzRnzV3Iv5Q1absrFcxUbUapV1DVUiuYDcw1T0lP72n+ZHTcGZc3EfxNRfCJyWGn6Sn95T/MjqOCsubiP4iT84xYwS+OjmpVY+tSqx84tEdxcV0qVKN9Uq1N/vKWdfCRLM4zA13g8VVoN5FOanRk9IqWuW/Y1p4Iupj1aatv3tryRw+Nnnx7ktyjl8byl+CRu4nhRzcmVxqtWy2ea/Z/t5EZsmDc51JfS1T7JO3M8F8ZNdAVMQeq7yZ4uf8Aq9T+Drfnw5C0dZJdbJvi3X971ezCVv8AEo/IaPWwAYAAAAAAKSV011lQBDPR2e9FLmbasMr5RbnZS7H0M0FXRVbNypgVZFyqIqsgLM5VSAuBbmGYIuKS1VutMpmCYHzBio5alSPq1KkfKTRhuSHCSjyeMxcPVxWIXhykrfAjbhF9xctuLgZaErTi+qUX8Tq+C0tcUv2tP/CgcepHWcGZ+lxS7aU/NSS/AYOiuRe3NjwxUVd5Zx+jP/J9aNrEYtQ3pmH+0o9TNIhcLsPFx9HLENUl0QlJtrqV1odBh6MacVCCtGKsl8yG2TwgdZTk4WyzcVbpW83XtJdT8yYJXCfTj3nQcVdPNtHF1PUw0Y+/Vb/0HNbLrKcsy0spb+5nZcTlO6x1brrU6a/li5f60TVekAAyAAAAAAAALZxTTTV09Gn0ogMfsKablQldepJ2t3P5nQgDha0MTT+lSqd6i5LzRge0ZLfGS70z0Eo4p70mFrz9bZXSXR23HrO6lhqb3wg++KZgnsrDS30KD76UH/kPSuQjtmPWZFtddZKbf2FR5JypUoQnGUX6ONm1ua07zl54FrepLvuKqWW1o9Zd/akesgZYXtLHhn1ikedcZuz5Qxs8RFXpYm08y3Kra04vt0T8ew5BtntmJwKnFwmozi98ZRUk/A5/HcD6EruKdN+zqvJikeZZmMzOorcF5XeWcX3q34GNcEq73Sp+b+ROk51zeZk5sXHypSVSCjLmKFSMpZU0tzzWaT79Hc6LBcU+0q1ONWDw+Sd3HNUadr23Zew2qXFBtaLvGeGi+tVpJ/CJc+iNahwgpNc+nWhfpUOVh71O68zYjicJP9ZSv1SahLydmb1Pit2to5foM31ucs3moGzHiw2l0uiv3cXVt5WNdIh6WCwkVaHJRTk5c2SScpb3vNilhaO+OV9q1JSlxV45vWpSh2uvUf4Ik8LxSz/XYttdMYcpL807fAUc8sdQoXc5QSyyVpPXVdC6Wej8WGz50cApzg6c8TWqYjJJWlGElGNNSXQ8kY6do2Fxd7PwklUUHWqLVSqqLin1qMUl53OuJugACAAAAAAAAAAAAAAAAAAALJUovek+9JmN4Sk99OD/AJEZwBqS2bQe+lT9xGKexcM99Gn5EgAIV8FMD/28POXzKrgtgV+oh5y+ZMgFY6FGNOMYQWWMUlFLoS6DIAAAAAAAAAAAAAAAAAAAAAAAAAAAAAAAAAAAAAAAAAAAAAAAAAAAAAAAAAAAAAAAAAAAAAAAAAAAAAAAAAAAAAAAAAAAAAAAAAAAAAAAAAAAAAAAAAAAAAAAAAAAAAAAAAAAAAAAAAAAAAAAAAAAAAAAAAAAAAAAAAAAAAAAAAAAAAAAAAB//9k=;" vertex="1" parent="1">
          <mxGeometry x="510" y="163.21" width="65" height="65" as="geometry"/>
        </mxCell>
        <mxCell id="p0AlBM5lABDZXC_UDDaY-19" value="" style="edgeStyle=orthogonalEdgeStyle;rounded=0;orthogonalLoop=1;jettySize=auto;html=1;entryX=1;entryY=0.5;entryDx=0;entryDy=0;" edge="1" parent="1" source="p0AlBM5lABDZXC_UDDaY-4" target="p0AlBM5lABDZXC_UDDaY-5">
          <mxGeometry relative="1" as="geometry">
            <mxPoint x="430" y="312.5" as="targetPoint"/>
          </mxGeometry>
        </mxCell>
        <mxCell id="p0AlBM5lABDZXC_UDDaY-4" value="" style="shape=image;verticalLabelPosition=bottom;labelBackgroundColor=#ffffff;verticalAlign=top;aspect=fixed;imageAspect=0;image=data:image/jpeg,/9j/4AAQSkZJRgABAQAAAQABAAD/2wCEAAkGBxAQEBAPEBIQDw8PDw4RDxAPEBUQEA8QFRUWFxUSExYYHyggGBolGxgVIjEhJSktLi4uGB8zODMtNygtLisBCgoKDg0OFQ8PGCsZFRkrKystLS0rLS0tKysrKys3Ky0rKy0tLS0tLS0tLS0tLS0rLSs3LSsrLSstNy0tNystK//AABEIAOEA4QMBIgACEQEDEQH/xAAcAAEAAQUBAQAAAAAAAAAAAAAABQECAwQGBwj/xABHEAACAQIDAgoGBgcGBwAAAAAAAQIDEQQSIQUxBgcTIkFRYXGBkSNSYpKh0TJCU3OxshRDY3J0gqIVJbPBwuEkMzVU4vDx/8QAFgEBAQEAAAAAAAAAAAAAAAAAAAEC/8QAGREBAQEBAQEAAAAAAAAAAAAAABEBEiEC/9oADAMBAAIRAxEAPwD3EAAAAAAAAAAAAAAAAAAAAAAAAAAAAAAAAAAAAAAAAAAAAAAAAAAAAAAAAAAAAAAAAAAAAAAAAAAAAAAAAAAAAAAAAAAAAAAAAAAAAAAAAAAAAAAAAAAAAAAAAAAAAAAAAAAAAAAAAAtc0t7S72BcDDLFU19aPg7/AIGOWOh2vuTA2gaUtoLojJ99kY5bQl0QXiwJEEXLGVX6q7kWOrVf1n4JIsEuUuc3trakMHh6uLxE5qlRjmlztZO9owir722ku88jxnHNi5yfIUsPShrlU4yqTt2u6V/Ag+gLlT5wnxvbVT34a33H/kbOG47cfTa5ShhqsenLnpS87tfAD6GB5LsTjxwVRxjiaVbDN75WVakn2uNpf0no+x9vYXFw5TD1qVaHS6c1PK+qSWsX2MCTBRMqAAAAAwYmu46LV9u5AZwRzrVH027ki28nvk/MQSZZKrFb2l4ka6d9+vfqVVNFg3nioL6y8LsseNh0Xfh8zVyorZCDM8d1Rfi7FjxsuiKXe2y2wAPE1H0pdyLXOo/rPw0LhcDE6be9yfe2OQRmKXKLFRRVU0X3KXApkRXKihdcClipRsidqcIKFBNJ8pUX1IO+va9yA4nju2soYfD4SL59Wo6so/s4Kyv3yl8GeI8jFy+tHXcn+B0XDXaSxGKq1K9eFSo3ZwjGTjTitFTWltO/fc5uSg/ozXc3dfEzuBiqEo6/Sj1ro710GpUenibcMVKm7O0l33NfFZU7xXNkrpdXWgMBt7N2lXw1RVcPVqUKia51OTi3bofrLsehrJ9iF+7yA9v4B8csZuNDaWWlN6RxUValJ/tY/VftLTuPaKVRSSa6T4pzf+2PqDiX2hOvsfDOo80qfKUcz3uMJyUb/wAtl4AdyAABoVXzn3s3yOqb33suLigKAoqCgCKgFAKgAACgAqClxcCoLZSSTbaSW9t2SXacJwn41MBhM0KL/Ta6ustF+iT9qpu8rsDvWzn8dwvwsJzo05qvWppOcKb0he9s0t3Q9x4htvhZtPakstSbpYeTS5CjzKeX2nvn4u3YTHB7XEY2XtUYeCi5L4SGDtdo7er1rpyyQf1IXS8XvZEsXNHa+1KWFp8rVdk3aKWspy6oo0PMuFeH5PGV42snNTXappS/FsiDoeFG1Vi5U58hOg1zY1aj0nB7r6WVn03fSaOM4P4qlrKlKUfWp+ki+3mmBoUNZRT3OUU+5s2Nr4bkqs6fqya/+FmCwsp1qNKzUp1acUmmndySJThjSy4qr1Z7eNiCCRQy4fDzqSUKcJVJvdGEXKT8EejcFuJvH4rLPE2wdJ20lzqrXZHoA85oUZVJRpwi5zm0oxiryk30JH1lxc8H5bO2bh8LP/mxjKdXp9JOTlJeF7eBh4I8Xuz9m2nRp569ta9TnT7bX+j4HWAAAAIyW997JMi8RpKVldptpdfYXBZKrFb5Jd7RbLFU1e84LKk5XktE9zfUcLU4LYyekpJqUdZOcfRyqZnVypLVZq1Rq/2a61bcq8GsRKEINwssLChV52tWUasr1G+2EpS/ea6jUK6h7SoJtctSut65SOmjlrr1JvuTLqO0aM7ZKkJ3y/Rkn9JuMfNxkvBnJ1+DmJlK65NUoVp1aVB1X+sqU51ISnl3c2dtN02jd2PwanRrwrzqKTy1HWSv6So3eEuxJyqu3tIeDqLi5aCC64uWgCouUIbhZtr9Cws66ipzuowi3ZOT3X7CCZqTUU5Saikrtt2SXW2eecJ+NjC4dypYSLxtZXWaLtQi+2W+XgujeeZ7X2/jto87FV5Km9Y0KXo6UV1WW/xuamHoQhuSKNzbO3dp7Sf/ABFaUKXRRot06S/lTu/Fs18JsinC19e8zxqlXWA3qOVNJLe0tO3QkuDySliH0ynSv38lAgaFbnw+8p/mROcG3pX++t5Qghgm1q7HIU4/pmLrYiaU6OFm8PhactYSqRes2un1vGPUdRiK3J06lT1KdSfjGLa/AiuLignQoX1vy1WXbNzypvwSLoy47ZWJcHKUnNNa06kb05LqcXovJeBj2BV5jp6pQ+gnq4R3Om/3Xu7HE7ef+z6mmcPOHJY6pTW6SzeDun8YxAl6Sjng2k2pJptK67jR2VwRobU2lWw1eU4QjKdZuk0pyyqnHJdp2TzfA3Kb1XeiY4vV/fNftw1d/wBVAaO/4PcFMDgI5cLQp030zy3qS7XJ6smwDAAAAAABG4yPPettFpbpJI09o0G4uUXlmkrO11v6gNPL7T8kMntPyRq8nW+0XuIcnV+0XuIqxs5Pal8CuRetI1eSq/af0RHJVftP6I/IEbWRetLzKZF1y8zW5Gr9o/cj8inI1ftX7sfkCNrIuuXmOTj1y8zV5Cr9q/dj8inIVftX7sfkCNvk4+17zOZ4wskcFK8HNynBRbd8rvfN5JrxJvkKv2svdj8jS2nsp1oNVJymoqTSaVr2eugHzzRnzV3Iv5Q1absrFcxUbUapV1DVUiuYDcw1T0lP72n+ZHTcGZc3EfxNRfCJyWGn6Sn95T/MjqOCsubiP4iT84xYwS+OjmpVY+tSqx84tEdxcV0qVKN9Uq1N/vKWdfCRLM4zA13g8VVoN5FOanRk9IqWuW/Y1p4Iupj1aatv3tryRw+Nnnx7ktyjl8byl+CRu4nhRzcmVxqtWy2ea/Z/t5EZsmDc51JfS1T7JO3M8F8ZNdAVMQeq7yZ4uf8Aq9T+Drfnw5C0dZJdbJvi3X971ezCVv8AEo/IaPWwAYAAAAAAKSV011lQBDPR2e9FLmbasMr5RbnZS7H0M0FXRVbNypgVZFyqIqsgLM5VSAuBbmGYIuKS1VutMpmCYHzBio5alSPq1KkfKTRhuSHCSjyeMxcPVxWIXhykrfAjbhF9xctuLgZaErTi+qUX8Tq+C0tcUv2tP/CgcepHWcGZ+lxS7aU/NSS/AYOiuRe3NjwxUVd5Zx+jP/J9aNrEYtQ3pmH+0o9TNIhcLsPFx9HLENUl0QlJtrqV1odBh6MacVCCtGKsl8yG2TwgdZTk4WyzcVbpW83XtJdT8yYJXCfTj3nQcVdPNtHF1PUw0Y+/Vb/0HNbLrKcsy0spb+5nZcTlO6x1brrU6a/li5f60TVekAAyAAAAAAAALZxTTTV09Gn0ogMfsKablQldepJ2t3P5nQgDha0MTT+lSqd6i5LzRge0ZLfGS70z0Eo4p70mFrz9bZXSXR23HrO6lhqb3wg++KZgnsrDS30KD76UH/kPSuQjtmPWZFtddZKbf2FR5JypUoQnGUX6ONm1ua07zl54FrepLvuKqWW1o9Zd/akesgZYXtLHhn1ikedcZuz5Qxs8RFXpYm08y3Kra04vt0T8ew5BtntmJwKnFwmozi98ZRUk/A5/HcD6EruKdN+zqvJikeZZmMzOorcF5XeWcX3q34GNcEq73Sp+b+ROk51zeZk5sXHypSVSCjLmKFSMpZU0tzzWaT79Hc6LBcU+0q1ONWDw+Sd3HNUadr23Zew2qXFBtaLvGeGi+tVpJ/CJc+iNahwgpNc+nWhfpUOVh71O68zYjicJP9ZSv1SahLydmb1Pit2to5foM31ucs3moGzHiw2l0uiv3cXVt5WNdIh6WCwkVaHJRTk5c2SScpb3vNilhaO+OV9q1JSlxV45vWpSh2uvUf4Ik8LxSz/XYttdMYcpL807fAUc8sdQoXc5QSyyVpPXVdC6Wej8WGz50cApzg6c8TWqYjJJWlGElGNNSXQ8kY6do2Fxd7PwklUUHWqLVSqqLin1qMUl53OuJugACAAAAAAAAAAAAAAAAAAALJUovek+9JmN4Sk99OD/AJEZwBqS2bQe+lT9xGKexcM99Gn5EgAIV8FMD/28POXzKrgtgV+oh5y+ZMgFY6FGNOMYQWWMUlFLoS6DIAAAAAAAAAAAAAAAAAAAAAAAAAAAAAAAAAAAAAAAAAAAAAAAAAAAAAAAAAAAAAAAAAAAAAAAAAAAAAAAAAAAAAAAAAAAAAAAAAAAAAAAAAAAAAAAAAAAAAAAAAAAAAAAAAAAAAAAAAAAAAAAAAAAAAAAAAAAAAAAAAAAAAAAAAAAAAAAAAB//9k=;" vertex="1" parent="1">
          <mxGeometry x="510" y="293.21" width="65" height="65" as="geometry"/>
        </mxCell>
        <mxCell id="p0AlBM5lABDZXC_UDDaY-9" value="" style="edgeStyle=orthogonalEdgeStyle;rounded=0;orthogonalLoop=1;jettySize=auto;html=1;" edge="1" parent="1" source="p0AlBM5lABDZXC_UDDaY-5" target="p0AlBM5lABDZXC_UDDaY-8">
          <mxGeometry relative="1" as="geometry"/>
        </mxCell>
        <mxCell id="p0AlBM5lABDZXC_UDDaY-10" value="" style="edgeStyle=orthogonalEdgeStyle;rounded=0;orthogonalLoop=1;jettySize=auto;html=1;" edge="1" parent="1" source="p0AlBM5lABDZXC_UDDaY-5" target="p0AlBM5lABDZXC_UDDaY-7">
          <mxGeometry relative="1" as="geometry"/>
        </mxCell>
        <mxCell id="p0AlBM5lABDZXC_UDDaY-5" value="switch" style="shape=image;verticalLabelPosition=bottom;labelBackgroundColor=#ffffff;verticalAlign=top;aspect=fixed;imageAspect=0;image=data:image/png,iVBORw0KGgoAAAANSUhEUgAAAJMAAABRCAYAAADWxZSqAAAgAElEQVR4Ae29h3sVR7Y96n/lzYwN2GB77LnXJkjg7PF47BmHsU0QQijnnLOEEMpZRzkjRBQIlAM5Z2dMxiSDyQonrvet3aeOjsQRNjYzv/ve/X3nW19VV+rq7nX23rWrqvspg8mIR0FvMuJJYsxogCP8lnOMmYwYM4/Dvg11TUajEQomA+MGGCx6GEwmGIyAwQDoBWaMGkYxZhnDfcMD3NaP4dTlG+jcfQKbB4/iwsXLGNUbYDSZYQEwMqqXuN7AdsyO8Yh7qzca4BC/8X6r6/21of29mhx39HxU2qPaf+pRmcybfKLfe6w6NTn8Le3+FjKZTAYYoZHCaNLIpBFKI5MeejwwjeCeyYir98Zw7Mx1HDl1Ddd/+hl6gxEkj9kCPBgekfiURDKaYTSZHEKIPAXRfst9YJ1feo6T8x91nsnPxv54cjv2x/+XTAYroYwWjBrGYIAew+YRDFtMuGsELtw24OItA27fuQuD0YgxvRFmM3Dv/gMh1yPJZDbBOAVMZhMc4VEP+VF59g/118Qf1ZaeUntKTE3cXyTTr+nY45SZ6ubqTWY8LoxGM0yGx4PZYIbFCIcwjFmgH3WMsRELHGGq8kwf1TvGmAEYMzoG64yMPR4MegtMBjwWzCYAZscwG4EpYX8eI2CyglL4P0ymqf+p/CfwH/E4MBpNMBkeF2aY9HAI45gFjkCSOSLSL6aRNFPhEWQaHbPgcWDQ8w9FQtmH9nHmqXySzgyj3gyD3gSD3gjW1+I8dpTGfJazwEwy2ZFI4iaLqPP/YWR6PBuNhjWN6seFUQ8Y9RZMDCE3aqp/pGHUDA2WCaF+1Iwxgcku1OKaYa8M/ImhGP8cAEzCmN6Cx4VB/lCO7gP/aJPTtTQjyTFmgGFMPyk0QD/mCHohlNGOSBIXIllELf6PIRN1+JjJ8FgwmgwwGx4XRliMFiuo7qj2rMcmhoCFocAaF7Wo6jBUqpL/VEo6M8x8aBKaYObD5b99ElF+zbHeYMHjwmgw/ob7YIDF6Bi8pyaD3gE4cKEU0mAwcZChgabO/xwymQ0YM+sfC0aTHmbD40FuoMkEi8BsDdUxQ8dpYnXT8uZQbkKo6hgn1f3PkYnS53Hvg5TXj8HsAFORjOkGs8kxTIb/b5PJYNLDZHx8mElCgQFm05g1zjTGHydNa8diNsJi1kMLDbCYCSPoepgKU0mpx5VKLC/q/jHvg8EwBv3YiEMYp2rLpIfeYpgAg4V+O4O4kP7jkslkMUMwacistzofR016jFLd8dhCh6QJYyK1rM5JiwFjFpPkUbQaDQYYjHpQ1BsYNxgkTuck0zSHpYobxGnJm2U0jWFCyBtIcpoM1tA+znOMwmBknTEtTjeCcRQm05i1jgrH2zHQj+UIRkA/JSzQGx8PtJm06+f94H3QMH796j4YYTKatHtiV86g1+6bhHoD9Ho99GP68VDFmQezBosZeoEJ9PfRTPmPkonDR4v1Zyap7Ag1ZjbjgdGI+waDhKMWC0bNFoyYzBgxmzBiZmiWtDGzBYTmSnA8AqQ4Ft1uNsNIUM9LGo+to0o6FVVchVOkTe13mdonozcB/xmYxYE6ZjBJSMeqgrJvVGgyT7R59MbxumN6E0YfAbY/wmdiBvTQMGaxYIT+N5P5P0smkSTWh2VPJD5QIZKRhLFgxAIMm4AHRosN941m3DcQRtzTG3FHb5D4sNEMxzBh2PiEYDDhgcH42Lg/aoYj3Bs14+4UcFT+V6WNWHDfAe6NmOEQoxbcG7Xg7ohZcGfYjDvDJtz+BdwcNuImy7D/Bos8J71F+9P8Dsnk4F9t/Xc/yomp5qNUGSUZRowaicj6e3oLbj4w4OYDPW6NmHH97iiu3x3BtTsjuHp7GFdvDePKrQe4cus+Lv9877Hx48938Vi4eRcXbtx5bJy/dhcOcfUuzl298wTB9u7b4R7OXSWYdg9nr0zExLS7OHP5Hs5cvoMzP97F6R/v4PSPt3H6kgrt43fxw+V7OPXjHXx/6Wf8cOUOrtwaxp0RM0aM+D2S6feRSZFKhZqaA366Y8APF27g+DfncPSrszj53QUJGT/29TlJP/7tOZz49jyOfXsOR75zjKPfn4dDfHceh7+5gEPfXJgQPiqNZQ98efaxsf/kGew7oUHFVbj32A/Ye/wHTAiP/YDdR7//DTiN3UfOOcSeo+fgCLsOn8OOg2cE2w+cxtCBHzC0X+GUNc5wPD6w7wd07foGW4dOoqP/KHp2ncCRry/h0vVhPBj9HWqO9o+juSWmKakzVUgCjRn0glH9GEbHRvHz/TFcvPYAx769gP5dR9HetRNrN/djbfsgNm7bjo3bdmBT505J39y9C5t7dmFj9y6s696Jdd07xsMuLb62e7uWxmOV1rUd69hu5260de6eED4qrW3bbrRs3m5D8+btWG13zHjzlofTGjf1o2njIJo2DaBx04DEmda4cQANG/pQv6EXjev7JeQxUbuuC3Vru1Gztgu167pRq+IqXNc1IY3lq9b0orKlHxWr+yWsXD0elzSmW1HVosUrmvtQ3tiNssZulDd0o7ShC6X1XSip60RJfefE0JpWXLsNObotyCxej5WFa1BcswWdA8dw6vxt3B3+nWSiEe0IU5FIZtGtZCOZSKLhkRE8GB7Gd2evYvfhU+gcOIi29kE0tnWiqrkd5bXrUdOyGdXNW1DdvBlVTZtQ1diOqsZNKG/ciOKG9ShuXK+FjFtRVL8WRfXroIXj8cK69civ2fB4qN6AbN2ax0ZmWTMyy1qsaMYqiTcjs7QZGSVNDpFWWA8NddaQxyrO0D6u5SVm1yM+s8EhYjPq4QgxK+oQnV4jiEqrhiC1GpGpVQ4RwfSUKoQmVsMvshg+obmISq5A45pBHPvqCm7fN+IpJSFUqNQOQyGFZRQGywj0ZmIYetMw9MZR6Dm0tuhhtBgfgtkyAhPLGh/AwKGzmZ5Tbd2P0WiBwWCRqYfbt404d+42Tp68iP7Br9DecQgta3agur4b5VVbUVq5FaVVW1FU1YHCqg7kV3Ugr7IDuRUdyKnsQI5uG7LLu5BV1olVpduQWdKBzOItWFm8BZklW6dERlEHbCjcgozCLVhRsNkO7VhR0I70fIVNSMpah8RVCmuRkEm0IX7lmikRm7kWRMzKNhuiM9pARK1otSEyfTWIiDSiRRCe2gwiLKXJhtDkRoQkNSA4sR5BREIdAuNr4RdXB5/YOvjETIR3TB08o6rhGVUDr+haeEfXwiu6RtIY92N55oVXwTO8UsC4d2S1Dcz3DK+Aa2AJFvkU4HOPXHy4JAUfLIyFe0AWymu2Yd/hs7h+cxRP2asce0LZpAuGYcAw9BYNY8ZhEHoTSaYXh5VyXKnQgmFYMAIzRmCBHhaYxWnMuarRUQvu37fg55/NuHjhAY4cvoj+vuNYu3Y3mpqGUFnVhZKyLSgs3YzCsg4U67ahoGIr8iq2IbeiE9k6DasqOrGqrBurSvqQWdyLlUU9yCjsQnr+NgGPHSGjsBsrCjptUOXT8rZCITW3A0RKzjjiMzcibuUGQWzGemhYh+j0tikRlbERRGT6BkFE+noI0tYhPHWtDWEpbQhLWYPQ5HGEJLeCCE5abUNgQjMC4pvgH6fBL7YRvjEN8I5phFd0g8AjqgGEe2Q9lkfUwS28VsBj+zSPiHp4RzXAM6IO7mE1WB5SLfAIrwXBNBVfGliBzz3z8aFLJt7+NAnOH4Tj9Q9DsNRnJcqqt2L/kbO4dsMBmWwSSS24sieTeVSINGaklBqzI5NxgovdgjEriTQicWWiyczViRbcvm3A5R/v4dtvrmLfvtPo3HYYa1pJok6UlW1DSclmFBVvQUHJVhSWdaKovAv5uk7k6rpECmUz1HUhU9eFVaU9D5FJEcURkTTC/XYyOSJUzIq1/zEyBSW2wJ5Qikw+sY3wiW0SUikiKRIxJKnsycTj5eG1QiRFHEUekkulkWCuQRX4wqsQf1+cgTf+GY//fjsIL7/hjXnv+sLFKx262m04dOwCrt8c0ySTkk4TiaQ544wYgxGUQqPQm4kxjUhmplt/FjOMAguMFossMNNUoAl0U3JKYXjUjNt3DDh/8RaOHT+H3t4jWLtuB+rru1FJdVbageKSThSXbkVRaReKy7tRrOtFoa4HeWVdyC3vRnZ5jyCrvBuZZT3ILOkVqWQvmSidSKh/F5keJtQ6kFCO8KQlE8mkCEXpRDIJoeKa4BvX/BCZllHi2BFpAqFIstAakUAkkjulkVUqeUbUS1yI5F0kEmnBh7H477eC8byTF553Wo7Zb3tjiSfJ1InDxy/i+k295hogiSYTSfl/jNBDQVNreqtUIpHMVlhgJGkAAV3uBotZvNT0H90dNuLqzQc4c/4mDh75AZ29h9HU3Ivyys0oLWsXtVZUug1FJV0oLCW6BfllPcgv7UVuaQ9yynqRXdaHrLI+rCrtx6rSPmSW9DkgTTdWFhFPVs0lrNoEgmTSYK/y1iE242E8aTJR5SkyKXVHMlEqTSWZFJmU+lOSi5LJjaqNhLISiXGm8Ziq7TOvAnzgkok3PkrAf78djOedvTHLyVPINOcdHyz1zkBFbScOHTuP6zfG8BRJY7OPRLVp/iPOn3GkJuulRQJpa6eVXWS0mCYQSBGJ4RiAYSNwd9SE67dHcPriTRw5eRbb93yJjR170Njaj4qarSjRbUFxOdGBorJuFJb0oKCkG/nFXcgv6UFeaR/yygaQUzqA7NJ+ZJUOYFXpADJLiH6sLOoVO2kq4jhK/602U2JWu5BpMqHG7SdlR42H/04y2as7qjllNymyKPtISSOm065S+cvD6x4i0rLgKlFrC31K8LFbDt5bmI7X/hGHOX8Nw4vzfTFzjgdmzfMQMs37qx9cfVaKZDpw5JxmM2lksieURiY15B+XPiSPso2o1sYlkY1IFsBoAe4bgVvDZlz+eRjfn7+JfUd+QEfvAbSsH0Bl/TbRs+XVndDV9qCsqgclui4U6fpQVNaH/NJ+5JX0oaBsEIW67Siu2oWc0kFklwwgq3TQSqQBrCweJxNVmyPiOEpzSKa8bTbjm0a4IwPcMZk0o3wqQj1pMimDfLJ0IpFIksmwJ5LnZAOd6k/UGm2kOpFIVGtL/MvwD9csvPtZKuZ/GI1X3gnFy28EiFSaOc8TM+e4Y9Y8NwiZfO3I9NMoniJp7OfJeKwmYxlymbDYQbKklrPDZhjMGmlIHAWThWuaLbg3bMRPD8y4eHMMX535CbuPnMaW3sOob+uHjs6w6q0ortqGUpKoug+lVf2CwopBFJYPokBHDGmo2I6Cip3ILRtCTtkQssuGhFCriocgKOkXA1yN6JTt5IhEKo1kmjyCU+RRoTaK24LkbA1JWZsnqDg1qmMYs2Jqm8l+FPfw6I0juDbbCE6N3tSITh3bj+bs4ySUUnXeMZrUUZJHSR9FJoaOiEbjnHaVa2gVlgSW41OqNdcsvPlpIub+PRIvvRWI5+f7CGY6e+HZeR6YaZVMVHO0mTiaO3jsPG7c0v8ymUgWg1lb7D9mNAthOBNuNAMkkJavTfQNj5lx554eP1wZwdHvfkLfnm+xdutB1LUNine1uHobiqs7UVTdg6KqXhRX96O4agBFVUMorBxEQcUg8isHka8bRJ4VueVDyKZksoLSKat0u4aSganJVNiNlQ5g7z6Y7Ar4/zOZFLEUqXi8PKIWS0mkIB2+8C3Gh8uy8fbnqZjzfoSNSM85e2Gms7cVXk+CTONLKdSuCrW0gsfcUXH3vhFXrt/FmfPXsPv4ZXTu/A7Nm/aivKkPxbVdKKrtRnFtHwprelFY3YfCqgEUVA+goHJIQ9UQCqoGkV81iLyKQeTqBpBT3o/sMhKGEkizmbLLBpFTvl0gNlRJn809YC+ZSBpH4Ejvf6NkEncAXQJ2WBZejcVB5fjMtwgfLs/GW58nY+4HkXjxzQDMmu+NGU4emD7XXUKSSoj1+yUTpdMkQhkgW3IejFhw564Rl67cwcmvzmH33uNY230CjRv3o7x5EEV1fSiq60dJwyBK6rejsHZQUFA9hLyqIeRVENtRUDOI/Oo+QW5lH3J0HLn1ClaV9gphSB6NTEPIKafKm1oyKX+To/B/G5kUgZRa01SbRqRPvQvwvmsm3vhXEma/H6ERaYGPEGfGXHdMn7Mc02a7STjj96o5Sh4lhRgqSfRghCrNgJ9ujuD8hZ9x4suzGNp5BJs7BqFbvR3FDf3Ir+lFQW0fiuqHUNywHUV1O1BYR+JsR17VduRWDiG3cgdyKxjvQ15VL3Ire5BT2YNsXTeydT02QgmxSvtEUpFQxP8lk+YJf5TNNJlIrqHVWBpSKRKJRHrPJQPOH8XhlffC8OIb/njO2VOIRMlESUTJ9PSry4RQM+a4/z41NzxqwsiY2bahcJjTISNm3Lqjx6Urt/Ht95ew/8BX6O3fj43tfWhp7UBx4xDy6/qRW9OLvNp+FNQNoaBuhyC/bifyancil6O0yh3IrtiOLN12ZFV0I6uyS5Bd2Y2cCqJXkF3ei+zyPmSXU9VpyKbas6o4Rwa4I4lkr+Ionf432EyKTEoakUhLgyuw0L8UH7hlYcEnCXj5nWDMes0HM5w8bWpt5nxvEFR10+Ysl/RfVHNcxqmWpHLURo81x3NiXJuB4REDhkeMGBk1g9KIXuxrN4Zx7uItnPjyIoZ2nsTmrXuxZv0gmlp6UVO/FSX1OzUJVEu1th2FdTtRVLdLUFCzC/nVO5FXtVMkUo5uCNnlg8ihjVSh0I8cHTGAHN0gssup3jRo0qgfq4r7kSng3BydlxORUdCDFQJOn3RjRT5HcUQX0sQVsA1puduQmrt1whwcR3JqFMcwKWsLEmU01474TDotNyFuJV0CGuzdAtrIjvN1GiLTOS+3ERHpGxCeth7hqZyTW4ewlLU2hCZzRNeGkOQ1ExCcxHk5DUGJdFauRmACp1M0BMQ3yxydclp6xzbCK7YRdAEQHlH1cI+qx7KwaiwLr9EQVo3FgeX4zKcQ77uugvPHCfjv98Ixc4Efps3zwjNzPATT5nniWWdvPDffR8LpTt6Y4ewjx885eWCW03JwNLfIIw0l1R3itLxxy4CnTCbO4lvf5GE35NdUGjcEmjEyasKDBwb8fHsUly7fwbenruLQsXMY3P41Nm7Zh5Y129HQMoSapkHoarpRVLMLRbW7UVy3ZwKYVli9CwVVO5BfuV3spVwdDWoa3TuRX7lbkFexC7l0Ceh2CGhw0y0gKLW6B+i4FF/TRBI9RKrCPmQU9mFFQa8gPb8HaXmdglQh0zak5JBQ40gmoXI6kEQyZWtkis8kmdoRt5Jk2oTYjI0TELOCboINiE5fL4hKW4fI9E2CiPSNCE8joTSEpa6HQmjKWhAhQiiSSkNw0hoEJbbaEJiwGgHxLfCPI4k0+MVySsXq/Y5rgndck0Yo+p1IqGhO+NZheWQdlLH9sWce3l6YhjkfRuOFt0Iw87VAzHD2xTPzvPH0HC/BNCcfKDBvhrOfFb6iBmc5a2Ra6JGG4glkMgLcmcmtN8o2khGbCRi1pj0YMeGnnx/gLFdAfnkWO/Z+ia7+I9iwhd7sAdQ09qK6sR9Vjf3Q1fSipH4PSur3PgSSSyMTiTORTPmVJNkeAUlFQinYk8qeWHQTrBL3AA3xibCRahKZKK0UmRg+ilCKTAwVieyJpAhkTyJKpai0tYL/HJkahUgkk4JIqZhGeMY0ilTiqO0Tz3y8uzDNamgH4tn5/jYikUwKikgMNTIpQv0KMnFGX14vYzdiE2JRzXE99u0xnDl/A0eOn8bA0FFs2LwTLW39qGvuRWV9F3S13aio70dVwwAq6gZR2rDPBntSkUxFNY6lkyaZHiYQiaRcAb+WSCSWpgLpJdckE6WTJqF6rKpOk06/llCKTEoiOSbSeo1EqW2IJP5DkkmmUjhHF99sgyITVdyiwDJ85JGH9xavgPM/Y/Hy20GYuYAE8RUJZC+VKJ0mk2qcUBzleWJKySQksu7tUqO1EYNF1vTeHzHhyo1RnDp3EweOnUHv0DGsb9+FupYeVNV3ooJEqutGeV0fdA2DqGjcgcqmXShr3C8gqRSZhEh1u0X9FdZQCo1LJ7oHcnXbbSrNnjRKvWnOyqkl0WTJpMikVKEiU0ZBr8120uyniSqPksqRyrNXc4pQDB2RiiruP6nm7Mnkm9Ai0okSieqNRKJq++uidCHSf70bIob1dCfPh8j0p9me+MMr7qLqHBPqF8jETYKi1uh8NEBGajdu63Hp2h2cvXATR7+6jF0HTmFr3xGsbd+NhtYBVDV0o7y2C+X1vdA1DEDXsB26xh0ob9gBXePOCVJpXBrtBEkkxw5tp3EyKQJNDicTyp4wk+P20kkRaqWddKJRbk8mm+rL1VTfZEJpRjinVTaL7WRvP9lLLXty/Z+STCSSW0QtXEIq8A/3HFFt8z6MEok0a4G3DPOfnr18gl1ElSYSaranzXaaTKjpTr9AJkoj9U6gB6MW3LhtwNlLt3H8m4vYd+Q79Oz8Bu1dR9C8fhdqWgZQSbuooR/l9f0obxiCrmknyimNGnahpGEXiut3CZmURKJaU1KIhvdUZKKaE8Nbpxne9qrNXtUpgpFYNpJMGslRtSlJpUimbCil6mg7kUyOCCV2VM5ECaXsJ5LKnlj25FIEU5Lr/wSZaDNxFLc0tFKk0msfx2s20ht+miPS6tV+ZrY7KIlIGKoxzX7ywzQnXxuZlMpTNtQvkolEIqFIJKq078/dxKHj5zG4+yS29h7A6k370bx+PxrX7UNt625UNe+ArmkXyht3obxpN8qb9qC0ca+ghGqtYZ9tBCejN1FpO2QEp0ZxNL4ngx5tRRSGJBDJRWNcDPByzXZi3lQSyp4w9pJJpUtYSFeCZkvxOKOQozzNjZCWR7fBuC1lH1fqj+4CRSaSJ2FVuxyPk0wb8YkKXLkZ0RntthGdI3Jpo7p1MqKbPLLjiM5+VKdGdJNHdb5xTWJoU63R0KZae3dhOhZ8HA+qtRff8MOzTp6aRLI6IKfN9ZjCNuLITbOn7G0qkm7aPG/Mmu+F5+e7i2vgC/dUFFdtAZegyHomkunOfROuXB/Dt6evY/+RM+jf8SXaO/ejbdNOVLfuRVXLHlS27IaueTfKGil5dqO0kSSykqdxP4oa9qGQqN8v6sxmF9m5ATTbiPNujjBRzVEy5eo0aaWklD2RskomSiZlEykXgCKQRhbaSRzFdYOEUSM4G0EmuQKUFLIPKYGUFFJqjb4mkmb8WHMZxKyge2AdojIedg3QTUC/Uxj9Takk0TqbO4BuAUWgySRyRCTlGuBqAUoj17BqfO5XLD6k1z5JsEokfzwv0yOaQ1IckJwimadJJSGJ1RVgTyIVV+rPnkyznO3J1IEDR62L4yiRzl++g+NfX0T/jhNYt3kXGlr7UN1I43obOIdG5Au2I796O/LodKzehdzq3YLs6t3IqtqloXK3zUudVapNwq4q4dyahsziHjgCJ3KVxCABNPRBs3M0HxGJQlIokBypuSRHJ1JyiG1IztkqUMdJ2R1IzNoiRIhbSanRjtgMzSek2TfrwYevwT59YjwyVRvuq2G/zchOXYvxvHUSj0hZg/DkVpA4lDwaYehL0nxKyq+kiKP8SSSMAqXPZAmkyOMbw40EjfCJbhC4R2h+JBrb/3TPlXm2ydMj2jSJp23y9reSaaaM5jQyKT/TwaPn8ROX7dLY5irIbX0HUdfShdziVmTkNCIjpxkrc1uRRo9xfhdS8zuRkteJ5NwuJBF53UjK70FSfi8S8noQT+T2IC63x7YikQvK7KEtfd2IhFUPQ7M3+KC1EVJ0Oh2A9tCcgXQK2hu5jNs7CmUUJQ9YPdg2hCWtQWjiaoQktAiC45vgCKGJLZgK4+WbEZIwEcxjmqrLuJS3Oh7tSTGZJJMJYk8SkoU7SLwi6x+CWvjPxf+yHilYJ1Lpby4ZMvP//Gu+4EQtJ2kZqjk3TonIaoB5njYDXNlEKlRSyZGae87ZAzPFaekNkkl5wIVMZy/dQvfgIdQ0bcGK7DpExBUgOCofEfEliE2uQLjy1qasR2jyWgQnrUUQkUysR0ASsQ7+ievgZ0VQXCOC4hoQHN9oQ0gCb3iTpDNvMgJiGkH4RdXDN7LOBh7bwz+6AQqBsWyvCQwJ1QbzVR3Vlk9ELQjv8Bp4c29YeBV8ImoEvpG1IPyi6qbEVGVUun90PQJiGgSME4oY9oRg3P6YpLAnhtoZIov8ZQtSFbicdiIq4RpcKUtsuVabC9sWBpSCE7dvf5GCv7wTLAT60yuu2iTtnOV2y0is0snqGlCEsVdnjyLTs04emOnkhtnvaGQqrdmKw8cv4Kef9XjqxLcXsGZjP3KKmhAemwcPv1S4+6bBLyQboTHFWB5WJ3APrwf3WnlENsE9oglu4fSsNsA1jCOHcbiE1ME9uAyeIeU2eIXp4B1eAYZTwT24HMuDyuEWUGaDe7AOHiEVYKjinqGVILzCqoUY4wSpkTSmM59t2ddjO4JgHdwCSrE8qAw8J+HB8/wCvMOr4RVWBa+wSniyLemTVpdpzFfkVKEihkaESiwLrrTtT+M2Ih4TXC6rsDRQBwWXgHII/MvgQvBYxf3LsMSvVLDIvwRf+JfgE698vPlZMl56K0AmZ0kmtXxErUtSa5SmO3nZDG0lkWgXEVORSfKc3B8i05ETFzUyHTp+BnXNnUjLrIF/aBaWeaVhmVc6vAKyERBRDBd/HZb46eASwH8Db0At3ELrsCykBq7BNXAJqsaSgCoNgVVY5F8BV/9iuAWUCJYHlcIjmMTSYXkwiVIiIdM8QkiSclv6Ur8iLPUtgqtfka0NEpNtEO7BbIskIFl18BKCkqQV8AxlW1pZhmxjeVCJpGnn4vlI2FIsk/4VSxnG2S7LMi55gSVyzDR1Xp6LfxBVlnlugWxf6xP7pf5A2vWWY3lIJdxDKVUqsDSwHC7YU60AACAASURBVMuCdALGlwaMw8WfJFHQiKOIssSvBIt9Nag0dbzIpxjEQr9SLPQvw6dehXjzsxS8+GYgps12x9OvuGHGPE/B9HmeEMzlgjcPTJ/nhelO415wRainOWrjxO58P8yY76MZ6nM9MM3JXQj67JxlmDV3KZz+6g0X7zSU127G0ZPncev2GJ46fOwCaht6kJBcA+/AfLj75mO5byHc/UvgG1qN5fwnB5VjWUDZQ1geTKlRgaV+JXD1L5V8F58iuPgWy7GrNd0zrAoeIVWSxjy25RlaBZ/IOnhH1EobboFFcPHJxmKvVVjqlyNYFpAPr7BSeIbyoRZgeVAhmObimy0h073Dy+ATQaIUY6lfLlx8c7DMP0/iTGMZ9+AiyXcPLpR0V/88aUvKBuRLmWUBeXJ+npvn4LlUPbbBfjCN5yCYR4z3r1DyXa35PPeygGJ4R1TBI1QH14BiuMsfSif3h/dsqV8plvqVYamfzgZFGEehkkoqz0Yqv3IsCqjE575leHthBl56KxTT53jjmVc98ayTr2DGPB8QTFeYMc9r3G7iZK+zL5529sUf5njiudf88OwCriRYihlOS/Gc8xJMn7MQM2cvwkvOi/HexwEIjsxEQ+sWfHfqLEZGRjQy1TT0ID6pGl7+uUImd78i+ITqEEFDM7EFYcmtCIxrEmK5UHL4l2BZYBm8I6oRnNAM/5h6uIdUwDWgFCrfI6wSPpG18I9psJZpkDLLAkqlvndkDSJS2xCVvk7y3YNLsMQ7S8jEB8IH5xOhQ3hSPcIS6+AXTQlEwuZLOYa+kTqEJNYiPLlB8jWi5cAtsEDyghNqERxPu4jqlZKNZNDI4hdVgYCYKoQl1SMypQm+UZRuGvFYn2TgOVmf7QTG8g+hEXbyuQPjqHLLJJ957Dvb9gqvRHjyaoQmNct+fq+IanhySUgASfTbyURS2RNq0e8ik5VQzj42Mv1xriemz/fCdGcPzHBahufmL8Os+S54bs5C/Nl5CWa/vQyfukQhMb0MGzsGcPrcJY1Mh46eR21jr5DJOzAP3oEF8A4uRUhsHVbkdqC08SCKG/ZjRWEPAmIb4OJXJP+w4IQmpORulbz86l3iayGp3ILK4BleJX4W7nErrN2DgprdspSDxCOJfKPrZEqipHE/KlYflbVN4cnNVgmhSQo+wOTsDcir5IbLLnlpREhinTw0PnQSKC1vE3IremXJL18ywQdP0vhHVyB+ZRuyyrokjyFfOhEUV20jSXLORuRV9YvTleuveMxzKlKQpFr7XEo8IHG2T2nEMjHpq5Gj60Fx/Q5kl3fL+Ug49o1Eil+5VtZhlTcfQGHtLnFuyvVH1Iqkn4pMSvo4DKewmRb7/zbJRLtpOldTOnthmpDJB087E154xtkdz8xdhhlOrpi1YClmOS/CzLkLMecdd/zt0xAERuaisn4zdu8/iYs/Xpe32TxFMjW2DCIxpQ4+QfnwCymGf7gOsamtKKnegc5d17Ch7zyK6/ciOKERLr4FIroTszahcvVhbNt5De0DFyU/Km0N3EPK4RddjcySHqzu+F7qb+w7j/zqHYhMbYV/TC3CklfLst32gUvo3nsDa7tOI6NomzxMPgxKnLiMNfKg1nV9j9VbvkJhzRBiV7SKSqNU4cOvXnMQmwfOYuv2i6htOyQPlCqPSC/Ygvr1R9AxdAEb+04LaVifZKM0KqgZwtrO79C160ds6jsti/iiUpulLuuTyLVrD6F94Cw6Bs/LkmPmUzpJfs4GaX/bjkvY2HsaRbXbpX/+0ZRGjfIHWN97Dn37f8amgQvIrRhCSGKzJt19iqaUTA5JpIxuZZDbkYoS6jeRSWwmD4dkmrGAUmo5nplLFbcYzzktxAsLFuG/3nDFB5+HISiqAJUN22Q/5LUb9zE6pr2A9alDR86jafUQklLr4RuUD3/+syJ0SMxoQ93qQxg8dBtbd1yBrvkAIlJWwz2kVEiVUdyF1Vu+xa7jw9h++C4aNp5Eal4HAmJrEZzQIJsFNg9cxK7jD9C77wYqWw+Lf4mE5L58Trt077mO7UfuoWPoR9mVwoctqiexDhmFHWhuP4GhgzcxsP8nNG48jrT8dpBIBCURSbbnxD0c/t6ALQPnpA6JSMlBabau6zvsPn4XQ4duomnTCSEIH3Z0WgvKG3cLSXYdv4u+fdeFOJRmJArrp+dvRmvHV+jbdw29e6+havV+IbhPRJmovIyirWjr/A47j92R/Jq2Q9J+cFw1SDq+F2HbzqvY/7UBAwdvg1KYfyLaoEt9qS4dqznbCM6eONb4hFGeIph/GRb76x7fZnqITN54xtkb0yip5lP1USq54DmnxZjlvBCz33XD+5+HIiAiGyVVmzC05xtcvHpfFgmYzRZ5i+9TB4+cR3PrdiGTd2AOfEOK4BdWKmRqWnsUG3rPoLXjG9kEIKoorBwhiQ1IzduC6rYj6Np9Ddt2XkbVmsNIzduM4IR6BMTWYGVxF5rbv0LH9kvY1H8eZU37kJi1EUHxdQhLbsKqsh6s2fod2gcuYPWWb+Th8yGQTPxnZ5Z0omXzlxg8eAPduy+jft0RkUZ80JReVFtVrQfQvfsKDnw9jC2D5zUyRVWIZCMZW9pPClEouSptZCgXyUT1yPZ79lwBpQulHNskmZYHFUm8Yf0RtPefwfruUyIlI1Ma5dz+MVVIzd0k7ffsvSJErmjZJ2SiqqMKJtnqN5xEz94b2LbjqixVDorX7E7anL+bTHbS6cmQiaqO8MQ0Z3dMc3LFTOcleGH+Yrz02iK89bE/lgdmoLR2I/p2nsCp8zdx6y4/mQaMjfLzGHo8deDwOTQ0DyA5rQG+wbSZ8uAdXIjolEaU1nInyZDsEolftU6MVNfAAniGlSI8pRGZpZ3QtexFWdMurCzZhqj01fCLroR3RDmiV7RiVVmXqAfaFSuKtiIyrVnyvcLLEBRfI2ncscJdKLRBKDX4MKmG+LBoyzS3nxSpQXLxIVFNkUy0X9ILOlCz5iDatn1jU2Osz3wa1axT2sClL0MiyWgH0TimqopKbRECV67eBxKBZWnoM48GOONMK+ROmsp+sYFokKsRXFRaC/KrBoSEZY27sbJ4m5yT10CDnNIvOWcLuOadu3BiMtaLrUjJZBvt+pfB1b8cruJOoUulQvMlOZBKk31M9upw3AAvxzsLM/DnN0PwzGwvTJvtJSM4NZKzD2kvcbj/9Bw3DU7L8TSPndww3dlNRnCz5i/Gy68vwfz3PbDUPwWZRavRu+Mwvj19BT/fNchypQcPxvDg/ij0o1Yy0WZKXdEA/5A8eAXkYJn3KngF5yM+vQXRK5qFBAGxVXANyMFCr0ws9c+BV3gJwpLrkZDVhpiMVgTFV8M7ohRuwQVwDcyFT2Q5QpPqEJXejLjMNQhPqZd85i3xy8KyoAKEpzQgIWudhHwIfNActpMwfPAJmevkIZFYHNVpUkMrw4dOg5y2Ex8kVSRVHInAIT8fOklJkpJYJB+lGkdbHC1q56iTN8KxDUpD5rM+y3AEyHp8MxztN+axb3RfaPnl0jb7RvtKRoSRdLJq7gJeD0dyfGMKXwjmH1MHjuboFlnizWvgqJZEejJkWuhfgS/87Mj0KlcJTE2mGU7emE4pRALNJZEINzzj5IoZzq541tkFL7/lijc/9oeLXzJWFbdic+9hfHPqIq7evCevSOIHg/Sj/LAPvyVjomQ6j6ZJZFrquQJLPFbAN7QI0SuaEJPRjNCkWniEFmCJ3yosC8qDZ1gRAuMqJY9E8Ysug2dYIdxD8rEsKBe+UWVSJzKtAVHpTQiKr4RbcD5c/LLgGpgDn8hSxK5sQVL2WinHkRYlCn04JBWJQUnE1//xYZI4tJVYhg+TISUAycIyYUma1GJdgmQigUgShqxLQpCEBNsn2ViXZKIKU+2zLonLc8akt8r5mUeiufort0W59C8uo036wHOwTyxDokrfVqxFSm6HvG2OI2G6Uuizoy9OI9OTk0y/hUwzOPyfT7XmgWecluNPc5bhT3OX4uk5C/Gc82I4f+gDF/80ZBS2YFv/MXxz5mfcuvcA90f04Avo+Yk2frCI35nlt2ieOnjkopApJb0efsG5mqoLzkNgVAkSV7agpJ67cgeQUdKOkMQquAXnwiMsH4FxOiTltMlu3YLaXiTnrkVwYpXkeYUXIjqjEVm6rZKfU9mFqBUN8AjNg2tgNnyjShCX2SJ55c07kVm6BbEZraLm+O8XIiTUimoqrtuBkvodMjojMUgEkom2Fd8rmVfZJ/YQh/8kB0lAaHbXNhllMY/GNeuwPonB49yKPlFT1WsOiMHMOl5WslKykGRsv6B6EKm5G0HjmvW9w0s1u6iwQ9wGWWXdVuOcXvgiaZ/2X1Y532x7GMUNe2WlAt8bSeN7kVfBb7KZ7FWbfZxq7nHJJNuX5ntixnxPGbn9cY4r/jjHBc/MdcGz9CX9zQtf+KQiLb8Fm3oO4avTP+On20aMGEYxMjaCMf0YTEaD7aNEIpkOHblktZnq4BeSC/+wAoTG6pCeuxYNa/eha895tA9+j4rWXYjNbIJneD68IwsRs7IR5S3bsXXnWWzbfQ416/YiOa8NvtHFCIgrQ5auA2u7v5T663q+wqryLZLO+qHJVcit6sSmge/QvfcCVm89Ji84pSpTUoPGMI1mjtI6hi7KQ0/KWm8lU4GMmGgL0UDmiIouBLoDKCEoFfiAWzu+ltEYh/ZcxEcJR6KxDA1w1hk69DN6916V0WJyzgaRWO5BhSJtaEtt6PlBXAe65r2idinRaGSnF2yWQQFdB23bvhVSUdXROCcp2VbDxi/Ru+8mtu28InsE/aJrhURLrLMELr508hLl45jKXrIzuO2JxPhvIpOsGliOac7L8ae5rvjDbBdRcbNed8erf/PDJx6pSMpbjbVdh3Dy1A38dMeEe6P8HMZ96A3D8n0Z7Xtq2peuLAYjnjp8lGTqR0p6HfxD8+AXkoeQmBJkFW3Exu4vceDbu+g/+CPqNuxDTGYDPMPz4B9bjJSCNjRtPoTdJ29i39e3sL73S2RXbEFYSiVCkytR2jiAvv0Xcej7+xg4fBnlLUOIzqiHf2wJolbUoqx5EDuOXceR08Po2nNOpA8JRNuMEoZ+J4626BoYPHBD3AC0jfgwqU6onuhH2nXsDr6+YEL//p9EgtCwpnqi0UwiHv5uDHtP3JcHzvokLKUGDXOO4g58NSKuA56LTkoho5Bli5yTbgG6JuhzSs7eKEQiaWxEPnoHPXuvCdlpO1E1034jself2/+1HjuO3kFZ4wGEJrWIB1xUnW8xXHxLHiYT5+imIpSdO8CeUL+FTNO48pK+JGc3/HHOUsFzr3vg1b8H4hOfDMRmt2D11oM4+PU1XLllwF1+HmPEBL3xHszmUQAG67dpFZnM42RKzWhAYHi+TPB6B+ciZVULWtsPY+joNWwe+h5Fdb0IiOMsdQa8IwsQn9WMqrbd6Nl3AX37L6Gx/SBWFG9AaHIFAuPLkFfdic3bv8euEzfQvec8ShoHEJleJ3WDEsqRX9MlJN3/zR20D36HghqOmNpE1VGdUK1w6E9C0CnIoTsfNu0eqpK4lW2obj0gPh4SYvPAOfFEcxRGwrGtunWHxTXQvecK6tcflVczk2gsQ681/VQklAz963aIRKHkojqkiqNkpGOT58+rGhAjm+cn2SnZOIqk01OclnXbEZ3eIiqO/act17L5W3Tv/UncH9yZHBjXKH4mzllyRDeRTGVw8eUk71Rksq4ccECoRX5lWBRQgc/9ymVujqO5aVzfbWeAT7fOzakRnSKTJpmWilR66a9+ePPzaMTmrkHjlkM48M0NXLxpks+P8E2AJJPRdB98Aa5GJj0sRn5nzwSLwQzxgNNpmZrRKPaSV2Ae/MJKEJPSgKyiDlSs3oeC2kEk59JHxFf8FgkozlNyN0p+3fojMjXBUR3TgxNqkJK3CeXNe9C46Th0LXuQlLMe/jE0wgtFDaXkbURJw05UtO5HWdNupOa3i7vBO4JzfmWITGtBVnmXtFFYN4T0wi0ITaqHV3ipjBQ5Ekwr3IzSxl2o33hM2kjMXi9tcwgfld4i7gr2gcgs7UJEahN8IrnaoFRcF3nVA7brY132zzOsRNpnWZ4zp6IH2RU9Up7Xz76xHMsX1g5J/+n64P3hdXMU6xulk3vFLe1cB59XuV3eecmVBWo1g6w6CODqCm31gqyUkNUSmg9KyEZ16FMEUYv0mlsn0CnZ6GLgyJCG/GL/QiwKKsJngYV4c1EKnn8nCH+Y64k/OHvjmQUB+KOzH/7o5IM/OXnjaaY5e+JPTm74k5MrnnvNDc85L8JLry/GRy5hiEkpxPqOARz78gf8fGcYY/yenYmfhDVhTG+A2czXcDuGOC1JphWZLQiKKIZfaBH8w0sRFl+DlFVrkV7YgeTcDfJwSBTebIL+JPqNSIKM4q1yc+l74g0n6HNKL9yMLF235EevWC0PwSNUm0C1r5uat8nqXqgB8wnaPfGr1mJFUQcSsteB9ZlGIhCiDpMbEJfZJg+d5CSBghNrxa1AMtDtwPppBe3SPuuTDKzPPrJ9EobXx/7w+nwiy4QQbId/DrZPnxnLk0QkC8/N8kk5G5BWsFlCno/5bJ9l2BZdAurtvFwYyLVcXDrjE8GFeVwDpcF+jRdXWHAyWIGrLbgygys0vLiwL4Ivga+RVRgkFcm0SMhUjH8FFOHNRalWMnnhj84+GpGc/fAnmXPjNIlGJjomn33NHc+/uRwvvbUM734ejOi0cqxp346vTl3G9ZvDGLV+GpabdPlOCr3eOCWRSDCNTC2DyFi1GlEJ1YhOqhOplJCxGivz2+Vh8IbzgfCm8wEpJGWvF+lEQjGfIYnBfyklE+vRsUmpoN309fJw+BD5IPigCdbTHupGeYAkBcuk5m/CisItUpbled7YlWsElAw8D8uoc/OY5dhPdX62T2OZafGr1sn54zLXSpwElHwrodg+z8tQq79Z2ue5mMaQEpZtadfM/HawHdU/1lfg8mTOYRKKVFzGzNcaMk29wdf+pavcnMCNC0lZfIHGViRm0bXA5cybkJzTKWlc4hyW3AbfqDqRTov8irAwoBifk0wL0zHr7RD8ca4P/uTshz9Yw2fm+2Gasy+mO9O/5IVn5rrhmXmL8cIbrnjjkyD4xRaieeMOfHnqGm7eM8q7tyiV9AZKIYt8TdZgND2aTPSA1zX1CZmSVjQhM28Tcoq3oUDXI7tzqYYq1xxAVdtBVK89hKq2QyLaNc/3blFVVFNUhxWt+7Rw9V5RbSyj1R2vw7Ty5t2ielhHO96DmnVs+4Cksz2qJqpHhlRlTCMYZ/3KNQfRsPEY6jcetfZHK8syVDssp5XdY+2Tdi6tT/ulDvtG8BrVeViH/eK11qw7LNetrkOV1a5zLypW0/uv9Ytl5B6s3mdrq6L5EMob99s2pTJe2XIIlS2HwTxHKGs6hPKmw6hcfQxVrcclLG86grKmw6hec0LA46yyIUSlb4BXeDU0MpXgMz+SaQVeeDsUT3P/m7M//p/ZlER+mD7fH9NJJnnDCd9y4oZnFyzG/I8C4RtbhLoNO3Hsu+u4cceIe8NmIdPomBkGOiQ1VxKMRsfqTak9mU7hEhRKppSVLcjK34zckk55kXtp7dCEB6gefmkjX5GjvbiLL+/iw6P9w1CO63bYplF4s/mgmM86LKPKM02BZViWx3ygEre+mse+noozXz1cTueoemw7v2YAedX9AtpbzFNtM85z8eET9n2jbcj+8/wksspXx2yD18426P8ipD/iCxu/FqaxHV3TQZQ3HRAyFddyazx3NO+2bZlX72TgdnoSjSiq24eiuv0oaTiI0sZDKGs8hNKGgyhpOCCEqlv3FZrbvxOipRf0IiC2CYu5bNevDJ/5leKthRl44a0wPOPkh2ecA/DHOT6Ybn2LybQ5Hpg+xw2z5nviL+944fV/BcE7pgjV63bgwNdX8ONNA249sGBEb9G+ac2BGt+QC/FLQs8PS09hL4maO3DoLOqb+5GZ3YqEtAYkrmhBTEqj2EyRSZyUbRAbhKMg2kQEpzpoNxAcSvOYxiftCtoaDOnRZkijOYwfkLGmsxzbYjqnW5jOY9UG22Mez8NQtceynL6Rdth2HBfmaecO5QgtucHWV+lXoragjSMz6Udina2PqizrsX2ek22pvvE8cu4EzWdFW0vrp2aPsRzPz3R1neqaJc16H8KSWhCZ0iqrLWgzBcbWyUYK2VgRq22qCI5rRIjsbmlCKL+NEtMI2TDBMKZRNkpw00RQfDMiU9eJRKppO4natV9KPDRpjbgSPvcttZHpxbfC8YwTJZE/npE3mfiBc3FPv7oU0151wUuvuePNT0LhG1+I6vXbcfDb6zh/Yww375vxYEzblMtPlBCi4swWkU58/dIvkonTKZnZaxAWo5OluwuXpeHDz2Lwwb+i8M4nEXj743AB4+/+KwrvfhqFtz8Jx9t2x8x759NIvPNplJSR0BpnHcn7JBzvfhqJ9z6Lxt8+jxH8le1ZwToE89/73IrPom1prMOyb30cjjf+ESx466NQrW/qXGzjk3BpQ5VjGfaZ55ZrsfZDXYvk/SvK1ieen/1l/bc+CrO2HynXrKWFSh7b0trV+q1df6SkyXV9FIP3PonDe5/G4a+fxOKdj2Lw7sex1ng03vkoGu9+HCPHLPO3fyXgr58m4Z2P4/HmP1g+Xo7/+kmipP1zSQaCE1pQVLsP9eu/Rl7lLrGdXAJ0smT3U+8SvPn5Crz4drgQie9Vmj7fR4g0Y64bpr26GDPnuOCtj0LgFZEPXVsv9n9zBT/eMePmA34jWXt7Mg1ui8AihjeNb0ooDVOruqcomTiao2TyDy3AF0uT8e6HIZj7pjteme+K5+cuxvNzxvGC0xK86OyCP89fagOPX3AilgheWuAqeS/OXyplVfrzc5dIWy/M1dqQetY0xu1h3x7T1fkYZ3+effULwXOzF+K52YseavdF56V4fs4iPPfqQgl5LHVVH5yWgP18ecEyvCRwxV9ec5PjCeXmLobqL++Fdj62uViu9c/zVRuu0p79Nc98xQXErFeXYtZswhXPz1n2EP7stBwvO7vjLws88V+v++LFeZ6YNWc5XnTyxMvzfeR45qtumP1WkLgH+IUG2k85uh2ynJqL4xb66fCJZxHe+FcaXnwrRNZ2P+vsi+fk3ZTLMdN5GV5+zRVv/TMIgTEl0DX3YufxM/jxjh4/j1lwe8SMUXklt0Yci8kMQpNMgNlkxSPV3OFzE8j0uUsy3vkgGLNfc8N/CUmWaIQiqXhjFZnsHv44WbQyfBgKzBNCWuszrvJUaJ8/a84iECSBwszZCyVNtcXjZ1+xkulVLnLX8llP9eXPzkvxwtzFkkdSqbos8/xc7ZjnZzkSQkIr4ViW5diualul2feJ/SbJSUbVhv15nntlCRQUsRS5np/tKiRjSPx5nhtecnbHf73uh5ecvfHiPA/82clT4s9zE+UrrnjlDX9ZccCvM5BMfLse1Z9rkA5LAivwkUcBFnyciOdf85edJDOcl+M5LieZswgvLliMN/7pA6+wbNS0DmDv8Qv48c4YHvAdXPzANv1JdAGYtBGbIhMnci2KSAx/iUxcgrIyq1X8TK6eK/HRwji8+88QvP2hpkpe/zAICz4IFDBOFfM68WGQQOXNfz8AhDp+OGR51huvq46d3/eH09/84PQ3fzgT1rbY3ry/+kietP/3QDj/LUAr+55WXupMOvdrHwZhvpRlu9a2Wd5aR7Wv+mh/jTwPz8F+aHX95Zq0dC1N6v89EG/8MwRvfhQqIe8J21PlFrwfCuK1yfh7GF7/ezhe/3sYXrPG3/gwAm/+IxLvfpyAtz+Kw+sfRgte+yAa8/8WgbnvUp3Hi4+JJKpd+xXyq3eLmlseVg2XIJ28sGLBx3GYucAbz8zmMhJXPD/fVYg0/++eWB6UjrL6duw6dBpnr97Hz2MmjUhm7dXcmo1khMVsgMVs9Ww/Dpm40rKxeUBspsj4SgTSA82tQVzmEVyAZYH5cOU2IP9cuPjnSLg0IA8amKalL/HLwRK/bDuwrIIqx7VM2Vjim43FvlkCxpm22CdLwDjbZPuugVzOUiBrqJjv4qedn+FiaxtS39qG5EuZHCzyWSVl5Fw+WdIG12It8l5lO5eU8cmS/qi+29pgO+qarO3brtE325an+sm+Mi73w1rPxacAk7HEOx8uPtxhQ+RhkVeehCy31LcAy2SdEyd/izXvt3chFnrm4wuPfPF60+dUXH8ANMKp5sKS12B5aCVcgsrwiVceXvskFi+8xlcuu2Dm/KX4y1vL8PrHfnALSkdRzQbsOfoDLly9j5/uG3DXYMIwnZHa5yVpbsNi0sNi1sNiMmjTJL+FTFm5a5GY3ojE9BYkrWxDWtZ6cVpqDstx5xwddKl5VgclnZTitNskTj46DQXiONQcl3T+sYxy8rG91PzNSMmjs4/pm8VhyVArt1kcnGkFWySd5ekQ1NrR8liOjkOei+kPIXejOBmZT2cpz6M5M7Xy7D/rME2ls03tHHTA8jx01KrrHnfEPnQu6/WlSf9ZXvVxM9SXNNVbezVnpfb+BeXEjFu5XtY7xWduEMdmGt8IXNCLtPwepOZ1IyW3E8nyQo5tWFHYh4LqPeJ7qmg5ioyiPqua49xcMT71zsObn8Xh5bd9MIt26xuucPrAC24hGSio3oj+PSdx7upd3BrmfJsZIxYSCTDJyI3+JC4p0QuEVJxzE9vJ8utspkNHL6CpZQg5+RuRnrVGnJa5JV0orh5ApdVJSL+K5jsZAv02Rcq3VK/5lujbYT7TCZZR5cQPY/VDiX/G6ouiT0f5dVifPhzNj6P5jNT5WEb5pejvIXis2mdcwb4P9DVx2a/Nf1Wv+YF4Djo9VTuyXqpB80PJeeoZn+gkZbp2bY7PZbsfVr+Z6qfyI/HFZ+olvgpGgwAACDJJREFUZ5yrK+BbZOTLDEPILR/UYH3NUEHNHhTW7hV/E8P8am4V09LouNQ1HwWdlhzJ0SvOaZbPvQvwhV8hPvXOwTsL4/HKe3546U03vPyWGz52j8cq3XoMHPgeP1y+LUQaMQNj/HCSxYIR+UQc37Y8CpPJOoErkonSiaqO0upXkunA4VOoa+rCqrzVSFzRgISMZiRmrkNa7hbklPZrX5vkFycnYWVxDzKKuh1iRWEnHheZhduQ9SRR1IksB1hV1Omwz7yWlcVEjwN0P/b18PrTcjoeG5mF3VhV1ItVhT3ILOzByoJuG5jOtPTcrYjPWI/g2AZ4BpdhoY9GpkV+OXh/cQKc3vfFG//wxufuUcgoqkPH4D58e+4Krt6+JyTiJ9043Kff6PFghtGobWtyFD515PgZVNVvRlJ6FUJjixEUVQr/yHIEcpFXUgvCkhplNwl3lGjxZglDk+iIpEOTjkQV5zGXydJByJ289VbwjSiPTgtPqEdEQt0TQ2RiPRwhPIH9qB/vj/RL9VNdC0Nei3Z93J71ONeilW1AcGwNgmPqEBxTi2BuAWOcYSxDFa+fkBaW0ICwhCYwDI1vQEhcPULi6hASW4+gmBqpxzS27RdRBa/gUrgFlWJpYBFIpo+WJeMfS2LgFpiB5OwabOrZh5M//Iif7o3i3pgBBn6x1GKWDwk8HpFIvF8g09ETZ1HTuAUpK6sRFlsMv/B8eATmwT0gD94hJfDkfv0pwFWRXEA/HtrFacQ/Bmj0c5vVk4JPcCEcwSu4EFxJ6RDMk3cIqJDvE7C+c+AXroXlHrregAJ4BBbCg6Fd3DOoEF7BxfDiuwomhBPTWM6DsNZd7peH5f75cA8ogGdQgbU+73mRrMtf4pcJ14BVCIguRK5uPdp7D+LEqcu4dmdEfEhj8mVTfnhS+1jlEycTJVNDy1Zk5NQhJqkUwdFF8AnJg0dgjmx58gothLcVEg8pxK9OU2XtQ/s42+VxSCF8QwrgH8pNoE8GfsF5cASfkHx4hxYJfEKL4GWN26epOEPma+W0fkp/Vb9DHaTZXZ93MLfaO0IhfMOKfwF8DkXyh+DWMwWvoHx4BuTBwwrPIP7p8+AZnAOf8DzEpFejqGoTtvYdxslTV3Hp+j3cGTZgjF+isJjkq8r8hqnZbHpMFfcrJNOxk6fR3NaJnMJGpGRUIj5Vh6jEMoTHlyImqRrRKTWITrYipQYxKq7CKdJsdezK2adJO3Ztx6ZUIT6lEnGT8FvSWIcvKrNHnDpOqUJsap0gjmGaFmdaTGotYlNqJYxhaI0zzb7vvCeO7oN9GeY/CmzTEdgnBemLfTvSj2pEJVUiKtGKpCrEp1YjMb0amfktaFjTh77tJ3Di2x9x+dp9WR05Kg5JfhOHn+WmotPDbDY+eTJ9f+oSBoYOY337EJrbetHU1oemNf1oatuOto170NA2hIY1GupVvG0I9a2DqFs9gNrWAdSvHpA4jwVrBtHQOihlWI7xujXjx47SWKapdUA+n8FPaCj85rQ1bG8QjVZIfI12zOup5zW1WkPr9dWxz6sHIaG1/yqNfVbgtdhfH9MdXR/LTAnrOdW9nRC2sm/sywDqWuywWrvXtvvd0o/a5j40tQ2gdcMgtnbvx5Hj53Hh0h1cvzGCO3dGYTRxTRKJY4DFYgQsHKUNw2Iae/JkunztFk6duYKTX1/EkRPncOTEBSt+xImvr2L/0bPYf/Qc9h05J3EtPIe9h89i76Ez2Hv4tF2o4kw/i72HGdrHp0o7i/2Hz4Frq54U+NJOR+BrhlW/9tn6qPql9X+PXBPjp6HFz2DfkbNW8F6cxb7D1tA+7ijtiHbvtPqqznjafsln2yrtDLR+Wc9/6DR2H/oBew6exp5DWhrvO9N2H/gBuw58j30HT+HgkR/w1XeXcPXafdx/YMLIiFm+yGUwGKHXj8JoGIXFPKbh30Wm+yMG3Lo7Jt9H+ennUfmk+OXrw7h07QEuXbmHS9cf4MdrGlRchUxXcYasMyGN+ZPSJuTbtX3l+giuXh/9t4Pn+ZF9vf4Al1X/2Y9fm6bq8Lqs9eyvyT7t8o1hXP5pBJdvWCHxYTm+cmMEGkatIY9H8eNPWh2G9rhsd6ziKrz60wPcuDmMO/fG5AtcBoM25OcmSbPJCLPJALNpTKQRJdK/TTLxE2B8Fzi3+jKcAIMFI9bPYPBTGCquwslp/ObKQ2nW+qoOy9jidm2z3n8K/LgQwUVgKrSPO8r/xTRel7U9W5tG7Z7xeu3B2fmxJwi90QKj0Trbb10+YqbBzQ0AQiS9kImE0jAq6U98NMc1KtSr3IFAyOJxC2dprKvrTGbojVbwM/SMT5Wm0u3L2cdV3clp0r7F9g0X9S2Xf0/I85gEsuOCce68IIwmbRfGVGkq3b6cXdzWnkozmzHmAHoLzWDZLPRQyLzHhtEk3wzkslpFEFFvYySRIpRBPNxCJjPT/w0GuAX8acSxhVzzS8j+Oq5p4bIEE8wWa1yFk9NUun1oH1flJ6eZTbBYHPRjcr+eyDEXx5ut12IN1bH061em2deZKm79qii/LKpBplLla6NGGVtp46vxOI8fJ81a3sRhvgYuEZF7ydWR4uUezzPKCM4ILfw3uAZMcgOtZKHvQfwPfCmBEUau+RXRSCYrUWkf2seVCP0taXp5uBYLb8S/GybrEgvrMgvOQ8mSCx4zziUYjtKYr6DKqWNVRy3fYDppYbBRRovTz2OAyWKE0WKA0aKH0WwN5VjFma+3ljHACManSuNeNm0Nkjw76/NT5FKhwWyGPYymcSmmpNkvh4/2gP+/OF6XzA6jZokAAAAASUVORK5CYII=;" vertex="1" parent="1">
          <mxGeometry x="360" y="241.43" width="70" height="38.57" as="geometry"/>
        </mxCell>
        <mxCell id="p0AlBM5lABDZXC_UDDaY-14" value="" style="edgeStyle=orthogonalEdgeStyle;rounded=0;orthogonalLoop=1;jettySize=auto;html=1;" edge="1" parent="1" source="p0AlBM5lABDZXC_UDDaY-6">
          <mxGeometry relative="1" as="geometry">
            <mxPoint x="98.5" y="371.21000000000004" as="targetPoint"/>
          </mxGeometry>
        </mxCell>
        <mxCell id="p0AlBM5lABDZXC_UDDaY-6" value="vedio analyze server" style="shape=image;verticalLabelPosition=bottom;labelBackgroundColor=#ffffff;verticalAlign=top;aspect=fixed;imageAspect=0;image=data:image/svg+xml,PHN2ZyB4bWxuczpjYz0iaHR0cDovL2NyZWF0aXZlY29tbW9ucy5vcmcvbnMjIiB4bWxuczpkYz0iaHR0cDovL3B1cmwub3JnL2RjL2VsZW1lbnRzLzEuMS8iIHhtbG5zOmlua3NjYXBlPSJodHRwOi8vd3d3Lmlua3NjYXBlLm9yZy9uYW1lc3BhY2VzL2lua3NjYXBlIiB4bWxuczpyZGY9Imh0dHA6Ly93d3cudzMub3JnLzE5OTkvMDIvMjItcmRmLXN5bnRheC1ucyMiIHhtbG5zOnNvZGlwb2RpPSJodHRwOi8vc29kaXBvZGkuc291cmNlZm9yZ2UubmV0L0RURC9zb2RpcG9kaS0wLmR0ZCIgeG1sbnM6c3ZnPSJodHRwOi8vd3d3LnczLm9yZy8yMDAwL3N2ZyIgeG1sbnM9Imh0dHA6Ly93d3cudzMub3JnLzIwMDAvc3ZnIiB4bWxuczp4bGluaz0iaHR0cDovL3d3dy53My5vcmcvMTk5OS94bGluayIgdmVyc2lvbj0iMS4xIiBpZD0ic3ZnNTc2NyIgaW5rc2NhcGU6dmVyc2lvbj0iMC45Mi4zICgyNDA1NTQ2LCAyMDE4LTAzLTExKSIgc29kaXBvZGk6ZG9jbmFtZT0ic2VydmVyXzEuc3ZnIiB4PSIwcHgiIHk9IjBweCIgdmlld0JveD0iMCAwIDM2Ljc1IDYwLjc1IiBzdHlsZT0iZW5hYmxlLWJhY2tncm91bmQ6bmV3IDAgMCAzNi43NSA2MC43NTsiIHhtbDpzcGFjZT0icHJlc2VydmUiPiYjeGE7PHNvZGlwb2RpOm5hbWVkdmlldyBib3JkZXJjb2xvcj0iIzY2NjY2NiIgYm9yZGVyb3BhY2l0eT0iMSIgZml0LW1hcmdpbi1ib3R0b209IjAiIGZpdC1tYXJnaW4tbGVmdD0iMCIgZml0LW1hcmdpbi1yaWdodD0iMCIgZml0LW1hcmdpbi10b3A9IjAiIGdyaWR0b2xlcmFuY2U9IjEwIiBndWlkZXRvbGVyYW5jZT0iMTAiIGlkPSJuYW1lZHZpZXc1NzY5IiBpbmtzY2FwZTpjdXJyZW50LWxheWVyPSJzdmc1NzY3IiBpbmtzY2FwZTpjeD0iMjQuNSIgaW5rc2NhcGU6Y3k9IjQwLjUwMDAwNSIgaW5rc2NhcGU6cGFnZW9wYWNpdHk9IjAiIGlua3NjYXBlOnBhZ2VzaGFkb3c9IjIiIGlua3NjYXBlOndpbmRvdy1oZWlnaHQ9IjEwMTciIGlua3NjYXBlOndpbmRvdy1tYXhpbWl6ZWQ9IjEiIGlua3NjYXBlOndpbmRvdy13aWR0aD0iMTkyMCIgaW5rc2NhcGU6d2luZG93LXg9Ii04IiBpbmtzY2FwZTp3aW5kb3cteT0iLTgiIGlua3NjYXBlOnpvb209IjEwLjQ0NTc4NyIgb2JqZWN0dG9sZXJhbmNlPSIxMCIgcGFnZWNvbG9yPSIjZmZmZmZmIiBzaG93Z3JpZD0iZmFsc2UiPiYjeGE7CTwvc29kaXBvZGk6bmFtZWR2aWV3PiYjeGE7PGcgaWQ9Imc1NzY1IiB0cmFuc2Zvcm09InRyYW5zbGF0ZSgtMC43NSwtMC43NSkiPiYjeGE7CTx0aXRsZSBpZD0idGl0bGU1NzA3Ij5QYWdlLTE8L3RpdGxlPiYjeGE7CTxnIGlkPSJncm91cDc1NDYtMSIgdHJhbnNmb3JtPSJ0cmFuc2xhdGUoMS41LC0xLjUpIj4mI3hhOwkJPHRpdGxlIGlkPSJ0aXRsZTU3MDkiPlNlcnZlciAjMTwvdGl0bGU+JiN4YTsJCTxnIGlkPSJzaGFwZTc1NDctMiI+JiN4YTsJCQk8dGl0bGUgaWQ9InRpdGxlNTcxMSI+cmVjdDE1NjEwPC90aXRsZT4mI3hhOwkJCSYjeGE7CQkJCTxyZWN0IGlkPSJyZWN0NTcxMyIgeD0iMCIgeT0iMyIgc3R5bGU9ImZpbGw6I0ZGRkZGRjtzdHJva2U6IzU1NkE4QTtzdHJva2Utd2lkdGg6MS41O3N0cm9rZS1taXRlcmxpbWl0OjM7IiB3aWR0aD0iMzUuMjUiIGhlaWdodD0iNTkuMjUiLz4mI3hhOwkJPC9nPiYjeGE7CQk8ZyBpZD0iZ3JvdXA3NTQ4LTQiIHRyYW5zZm9ybT0idHJhbnNsYXRlKDEuNSwtMC43NSkiPiYjeGE7CQkJPHRpdGxlIGlkPSJ0aXRsZTU3MTYiPmcxNTYyMjwvdGl0bGU+JiN4YTsJCQk8ZyBpZD0ic2hhcGU3NTQ5LTUiIHRyYW5zZm9ybT0idHJhbnNsYXRlKDE3LjI1KSI+JiN4YTsJCQkJPHRpdGxlIGlkPSJ0aXRsZTU3MTgiPnJlY3QxNTYxMjwvdGl0bGU+JiN4YTsJCQkJPHJlY3QgaWQ9InJlY3Q1NzIwIiB4PSIwIiB5PSI0LjUiIHN0eWxlPSJmaWxsOiNFNUU1RTU7IiB3aWR0aD0iMTUuNzUiIGhlaWdodD0iNTcuNzUiLz4mI3hhOwkJCTwvZz4mI3hhOwkJCTxnIGlkPSJzaGFwZTc1NTAtNyIgdHJhbnNmb3JtPSJ0cmFuc2xhdGUoMCwtNDkuNSkiPiYjeGE7CQkJCTx0aXRsZSBpZD0idGl0bGU1NzIzIj5wb2x5Z29uMTU2MTQ8L3RpdGxlPiYjeGE7CQkJCTxyZWN0IGlkPSJyZWN0NTcyNSIgeD0iMCIgeT0iNjAiIHN0eWxlPSJmaWxsOm5vbmU7IiB3aWR0aD0iMjciIGhlaWdodD0iMi4yNSIvPiYjeGE7CQkJPC9nPiYjeGE7CQkJPGcgaWQ9InNoYXBlNzU1MS05IiB0cmFuc2Zvcm09InRyYW5zbGF0ZSgwLC00OS41KSI+JiN4YTsJCQkJPHRpdGxlIGlkPSJ0aXRsZTU3MjgiPnBvbHlsaW5lMTU2MTY8L3RpdGxlPiYjeGE7CQkJCTxyZWN0IGlkPSJyZWN0NTczMCIgeD0iMCIgeT0iNjAiIHN0eWxlPSJmaWxsOm5vbmU7IiB3aWR0aD0iMjciIGhlaWdodD0iMi4yNSIvPiYjeGE7CQkJPC9nPiYjeGE7CQkJPGcgaWQ9InNoYXBlNzU1Mi0xMSIgdHJhbnNmb3JtPSJ0cmFuc2xhdGUoMCwtNDkuNSkiPiYjeGE7CQkJCTx0aXRsZSBpZD0idGl0bGU1NzMzIj5yZWN0MTU2MTg8L3RpdGxlPiYjeGE7CQkJCTxyZWN0IGlkPSJyZWN0NTczNSIgeD0iMCIgeT0iNjAiIHN0eWxlPSJmaWxsOiMyQkM3RjQ7IiB3aWR0aD0iMTgiIGhlaWdodD0iMi4yNSIvPiYjeGE7CQkJPC9nPiYjeGE7CQkJPGcgaWQ9InNoYXBlNzU1My0xMyIgdHJhbnNmb3JtPSJ0cmFuc2xhdGUoMTcuMjUsLTQ5LjUpIj4mI3hhOwkJCQk8dGl0bGUgaWQ9InRpdGxlNTczOCI+cmVjdDE1NjIwPC90aXRsZT4mI3hhOwkJCQk8cmVjdCBpZD0icmVjdDU3NDAiIHg9IjAiIHk9IjYwIiBzdHlsZT0iZmlsbDojNTU2QThBOyIgd2lkdGg9IjE1Ljc1IiBoZWlnaHQ9IjIuMjUiLz4mI3hhOwkJCTwvZz4mI3hhOwkJPC9nPiYjeGE7CQk8ZyBpZD0ic2hhcGU3NTU0LTE1IiB0cmFuc2Zvcm09InRyYW5zbGF0ZSgwLjc1LC01MC4yNSkiPiYjeGE7CQkJPHRpdGxlIGlkPSJ0aXRsZTU3NDQiPnJlY3QxNTYyNDwvdGl0bGU+JiN4YTsJCQk8cmVjdCBpZD0icmVjdDU3NDYiIHg9IjAiIHk9IjYwIiBzdHlsZT0iZmlsbDojNTU2QThBOyIgd2lkdGg9IjIuMjUiIGhlaWdodD0iMi4yNSIvPiYjeGE7CQk8L2c+JiN4YTsJCTxnIGlkPSJzaGFwZTc1NTUtMTciIHRyYW5zZm9ybT0idHJhbnNsYXRlKDEuNSwtNDQuMjUpIj4mI3hhOwkJCTx0aXRsZSBpZD0idGl0bGU1NzQ5Ij5yZWN0MTU2MjY8L3RpdGxlPiYjeGE7CQkJPHJlY3QgaWQ9InJlY3Q1NzUxIiB4PSIwIiB5PSI2MCIgc3R5bGU9ImZpbGw6IzJCQzdGNDsiIHdpZHRoPSIxOCIgaGVpZ2h0PSIyLjI1Ii8+JiN4YTsJCTwvZz4mI3hhOwkJPGcgaWQ9InNoYXBlNzU1Ni0xOSIgdHJhbnNmb3JtPSJ0cmFuc2xhdGUoMTguNzUsLTQ0LjI1KSI+JiN4YTsJCQk8dGl0bGUgaWQ9InRpdGxlNTc1NCI+cmVjdDE1NjI4PC90aXRsZT4mI3hhOwkJCTxyZWN0IGlkPSJyZWN0NTc1NiIgeD0iMCIgeT0iNjAiIHN0eWxlPSJmaWxsOiM1NTZBOEE7IiB3aWR0aD0iMTUuNzUiIGhlaWdodD0iMi4yNSIvPiYjeGE7CQk8L2c+JiN4YTsJCTxnIGlkPSJzaGFwZTc1NTctMjEiIHRyYW5zZm9ybT0idHJhbnNsYXRlKDAuNzUsLTQ0LjI1KSI+JiN4YTsJCQk8dGl0bGUgaWQ9InRpdGxlNTc1OSI+cmVjdDE1NjMwPC90aXRsZT4mI3hhOwkJCTxyZWN0IGlkPSJyZWN0NTc2MSIgeD0iMCIgeT0iNjAiIHN0eWxlPSJmaWxsOiM1NTZBOEE7IiB3aWR0aD0iMi4yNSIgaGVpZ2h0PSIyLjI1Ii8+JiN4YTsJCTwvZz4mI3hhOwk8L2c+JiN4YTs8L2c+JiN4YTs8L3N2Zz4=;" vertex="1" parent="1">
          <mxGeometry x="80" y="230.21" width="37" height="61" as="geometry"/>
        </mxCell>
        <mxCell id="p0AlBM5lABDZXC_UDDaY-12" value="" style="edgeStyle=orthogonalEdgeStyle;rounded=0;orthogonalLoop=1;jettySize=auto;html=1;" edge="1" parent="1" source="p0AlBM5lABDZXC_UDDaY-7">
          <mxGeometry relative="1" as="geometry">
            <mxPoint x="130" y="261" as="targetPoint"/>
          </mxGeometry>
        </mxCell>
        <mxCell id="p0AlBM5lABDZXC_UDDaY-7" value="feature extraction" style="shape=image;verticalLabelPosition=bottom;labelBackgroundColor=#ffffff;verticalAlign=top;aspect=fixed;imageAspect=0;image=data:image/png,iVBORw0KGgoAAAANSUhEUgAAAIIAAABcCAYAAACiN22iAAAgAElEQVR4Ae2dB5RVV3am8Xg8tsfj8djTmg7Lnhm3Pe1xB08rNFFQFKnIORdFKnLOOWeqyCCCyJKQEJJASAJJIEABCYGEyIgcRYYiVE78s759335cHlVqaEs96rFYa69z7333vSpq/+ff/95nn/tK5BYU6lEsOy9fj2pf//n5yi140LLzcpWVmyNGLCc/L2p5hQV2LTMnWxk52XYcfEZwnWPuySsosM8Ov7eo46J+/rdxzf8vRY05/B8f0Yr6nN92rbj/V4mvd9KDIMnJL1DRVjxAvv5nPAgCftmiHObX/D/Duf/HAQ3nueZ8AMDvmWdgAiz+3qJG/7xve/TftajxUUHA/UV9zm+7Vtz/8ZGBUJxTAUdxTFHce4LrRQOhuF+Y68z2/LuFZjn5+UrPzNT1mzd15fq1qF1Lu6G027d0OzNDGdlZEZA8+s/6ut/jUV/7Oif9wQGhOGd/3fXfBQjhmcsfMCsSKjJzc8yx6VlZupWersvXr+n0ubM6dOSI9uzfp8/37NHuvXu0/9BBnTh9ShevXFbandvifbDGA5aXW2RoelQnP8z9/18BISMbRzxomTlQVdHh4XcBAo5HA5gOyM5Selamzfw7mZm6euO6Lly6ZI7ee2C/tu/4RJu3btE7mzdH7b1tW/XpZ7v05bGjOnfxgjEDzPGAZWV+D4SCfBUTGu4qr/BuVESGaT8jJ1exlpWbp8zsHGVmZis7O1d5eQXKzy+MWk5Onl0rKLyrwkKZFRTcVV5+gXJz88V1zrnv9u10paXd0pUr13Xp0mV99dVFnTlzTseOndDBg4e1d+9+7dixUx9+tF2bNr+n19e/qdUvv6Lnnl+lJUuXaeGiZ7V4yTKtfO4Fu75u3Rt6c8NGvf/hB9r52S4dPHxIx0+e0JlzZ3X+wle6fOWy7mSkKzMrS9nojIhg49jFKuzEjGcEoC5Q/Tqhyl/nWnjmhxmIEIUB7vBn8548Qt4j2sOw0MPeUwwQEIn85wofEIY+u/MKCuXGNY5xfl5evjk0cH6+CgoKzfF3CyUMpwOUrKwcZaRnKu3mbd28eVtpN28pLe2mLl++Zs4/ceKUjhw5qn37Dmrnzs+0dev7euutt7Vu3XotX/Gcli5broWLFmvO3PmaPmOWpqZM05SpqWYpqdM1Y+ZszZn7jBYsXKRnFy/Vc88/p5dfWaO3Nm7Q1m1b9fEnn+jzL3Zr77692n/wgI4eP6ZzX53X9bQbysjMNEA4G+FYd7o7GjAQbrIjILEsxQBxDxQOCJxuoSkmE/LXv7NAyM4PKB4hFliQKZjDCwuV5xYBQAAEWCCY4TnZeTbTAQaOz83JMwMcWVm5BoBbN+/oxo00nT9/Qeb0o8f05ZdHtGfvPn2yY6c2b96iDRve0euvv6HVq9do+fKVWrhwkebOfUaTJk/VxElTNH7CJI0bP1Fjxo7X6DHjosY51ydMnGz3cX9Kaopmzp6lhc8u0oqVK/TSy6u1/o31evvdd/Telvf0wUcfGmMAimMnjuv0mTO6cPmSic/raWmmMxCeFlqyMh+Y0QDCdUx4tjOhXNwGkysQrA4oB9mjsgH3P+xsf5j7imQEnF9UvOc6WgDLyM5VelZOYJlZwR8oPcOcnJGRqfT0DKP5mzfv6OrV67py5ZouX76qixcv6dzZr3Ty5GkdOXpMu3Z9rq1bP9DGje/ojTfe0po1r5rT582br1mz5mjGjFmaNm2GUlOnKyVlmlJSUjVq1JiibfRYAwNAGDtugpmDZNz4cZowcYImT5msqSlTNX3mDM2b/4yeXbJYK59bqRdXv6R1r6/Tu5s3GSh27PxU+w4eMBF69MRxnTxzRucuXDDxefnaVd28c1u30u/odka66Q9GzrE7EcDAGoADR1DTcNbg+A8ECAEDOBhMA+TmmTZg9ucUFMpZw14DGFnZSk/PFCC4deuOOf306bNG78T2ffsOaPfuL/TxJzv03ntbteGtt7V27TotW75CzzyzwByOsydPnqqxY8dr5MjRGjFilI0cjx491q6PGzdBw4aPNBs+YpSwEdw7crSBA2ZwIDCOGj3WXps4aaImTZ4kxnETYIxxdjxl6hSlTEs1tpi/cIGWr1iu1Wte1tp167Tx3Xf07pb3tPXDD0yQfr7nCx04fEiHjx6xTOX8pYuWtZCm4vyiYj8OdwMQAcMG177zoSG3IBCKLhJhgHQcnZkdzRjSM7N0G6enZ+jmnXSL9deu3TCBx2zH8R9//Ik2bd6iN9/cYLH95ZdfMcdD71OmpAin4uwhQ4ZpwIBBZgMHDtagQUM0dOhws8GDh9o51znGwgDA0WHnEy4IG4QDjHPYwRyemmJsABjGTxhvDMExr7kRQlKnTwsYY8F8LVyyWMtWrtCq1S/ptdfXaeOmd0VGsmv355auHjl+TGe/Om+ZjDMEoDBWyMo0YemhgtHNQfCdCQ1eJWSm37MACDACqSIOT7udrus3b+nk6TM6cfq0jp48pS+Pn9ChI0e1/9Bh7d13QJ99tlvbt3+id9/drLXrXteqVS+Z4xcsCGI7ND9p0hRzPo7v27e/+vcfqH79Bqh3777q1auPXXMgABAA0K9fcA/3cf/QYSOMEQgRzHrXA4EWmG7iceasOcIQkohHHO8GG4wZO0Zjx401ZmDk3K85SMZPnKDxAAV9MWe2gWLF888ZKNauX6+33t6o997fqo93fqov9u3VwS8PWyiBMY6ePGGs8VWENdAZpjEi4PC6BtoCxsgNWVgv+PXwNT9+mNj/sPeUyIrk/gEg0AB5NvNvpmfo6o00fXXpsk6fO68jx09o36HD2r7jU2378CNt2rpNb2/arPVvbdDLr75q6dvixUs0f/5Co3kofvz4iVGaHzZshM1mAIBDMYDQp08/A0DPnr2FcY6zAQD3cszojAA4CAMAADFIppA6bYamTZ9phuNnz5lnGQOjZxTjJ0wwIAACNwCAjR7D590DhgPGgTARXZGaqmkzZ2jG7FkGitnz5mn+ooVavGyZnlv1gl5+9RWtXf+6NrzztjZv26r3P/pQO3bt1J4D+62WweQBFFQ/CSUUwxwYWayXhFJXnO/O5jrm1xwYNkYEo4ceQBUF1iOKyRLEekCQmZunG7fu6PylSzp5+qwOHzuuPfsPaMeuz7Tto+3auGmT1r3xpl5a84pWvrBKzy5dpmcWLtLMOXM1JXWaxk2YaDMdSsdxYQd369ZDXbt2N+O4e/ee5nRnAO6FERwEMAIhAKfzecOHj7TPRieMGTPO6H7ylBRz8qzZc83xpIs4nREm4Drg4L6AMcgiJhgIcPqo0aM0ctRIM4BQFBgmTJqoCZMnGSuMmzhBYyeM15jx4zQaBgFQEydo0tQpSp0x3cAx55l5WrRkiVa+8LxeWvOy1r2xXu++t1kffrzdiltW8Tx8yNji1NkzVui6dPWKlcfTTWBmWD0jK/teTcOBQH0D59sag4MjFgiR9NQY5lGBQHGIeM/sZ9Z/snOXNm3Zqjc3vq01a9fq+Rdf0mIE3cJFmjF7jianpGrcxEkaNnKUBg4Zqj79B6hnn77q0at3dGbjaAynh60oMOB8zMMEM99m/YhR5nR0BOEETTF1ampgKdPM4fOeWaBn5i80IJjQnJJijqemgKEVYA40hbMAIMDpgGD4iOEaMXKEgaIoICAqcX4YAIAAAyAwBUAgdEydlqoUtMWsmZo1d47mzn9GCxY/q6UrluuFl17U6lfWiHACY2z94H1t/3SHEJ+Ek2OnTloN4wKMATDSbugW6yTpdxQGSDbMQSZCYSor07IQT0mjrBCqeTxsWOC+EtfS0oz6d+/dZ1T//IurNf/Zxeb0SVNTNHrceA0bMVIDBg9R73791aN3H3Xr2UudunZTu46d1Lp9stokd1D7Dh3VsWNnderURZ07d1WXLt3McL6DgWO/zsh1ZwJCBUwCCAgjAADnkzrOnDnbUklGdAYxn1lPwQj65xxBSMjA6S4eGTkfPGRY1Ok43pkgPMIQD4AhohHQCRjOdwMAbgAC4zWuTU6ZauAw0RkBBmwx/9lFWrJiuWmMV9au1ZsbN1hpHMbw4taXR47o5OlT+uriBat6XrtxXWk3bxowAAUVUGOM0Irqozi8uHtLHD99Wh9s367Vr7yqOc/M1/hJk2229x80WN179VaHzl3UtkNHtWrdRs0TW9mY1K6dsMSk1mrRqpWNrdu2U3JyR3Xo0CkKBgARBgXOd2CgBwgNsAEgcIFIFoEIhAUcBHPmzDMgcA4ruDYAAMx8qJ+UcuCgIWZDCCeR1JLjAWQigwdp8JDBGjpsqIYNR2cETOAhIhYIaAdCgzvYwcBISPDRQ4azBiGDY64DDEABU6AvPITMWzDf2AJQwBZrXntNb254S+9selfbPnhfn+78VHv27tGBQwetuHXqzGljDMrhN26m6fad21YWR2Ow9uJla89AinP2110v8cW+/QaCqanTNGjoMKP5zt26q12Hjkps3UYtElsZAABBs5YtzfFJbduqTftktWrb1kAAIABC+/Yd7gMC7ABLOCB8BAyuE2ABQAALAABqCIjMWDaYPn2mgYPXmfnMdgBAekgKicPDQAAYZBeDBg9Vf8TmoIEGhiFDhxgYPCyEGSIWDKPREhFzXYCj3dkeNsJj+HUHg4cPQEEIARAuPAEFKeqSZUutsEXFkxoGpXCKWx9u/ygKDNgCULBGcvHSJV1NuyGrehJGMtJtYY5aBoLx65xe1GslqLlDW9179lRSmzZqlZSkxFat1DKxpVq2SrRjzrme1LaNWrVOUpv27dQ2ub1at2urJK5jbdqoTZs2ateuvTp06KhOnQgTndWxYyd17gwY3LqoS5eu6tq1q7p3764BAwdGbfCQIRo2fLjF7ImTJmlqSpDTQ7EcT5hIOXmshgwbpqHDh2vYiBE2cj546FANGjJEAwcPttHPBwwepP4DB2rg4EEaNHSIBg8doiHDhgbvHzlCw0aO0HBs1EiNGD1KoxCOpJJoAUAQIyTHMuMxMg7PQGAAT08RpG5FhBRYwkOJA4SC1gxCyJzZmvvMPC1YtNAqnoDjeYTny6v12tq12vjO28Hi2a6d+mLPHlsjoRwOMK5eu6rrN9N089ZN3YowBtlIWFz6glp0jKSsnJdgVY4/dLvk9mrYuJFZoyaN1aRZUzVv2SIARGJLtUpqpTYRx7cFCO3bqXXbNkpq3dqsdRQIhIhkdewIGAgT9wOhSxeA0MWA0K1bN/Xs3cuse88eNvbt389mbyx9M4OZzVB83wH9i7V+AwcI6z9oYNT8HFBgBohhQzVk+LCoDR0xPABFBBAjHRCh+gLOd9FpQAide8ppVUsHQiSEuK4Ih5dYQFDIAhDTZkyPgmLOvLlW8QQgzyyYb6yx6qUXDRRvvPmGhRIYw0Tn4UPRNZJz588J4UkYcV1B9kFKWkhDDwuKoRSV6yVYieMXwLF169VVzdq1VLtObdVrUN9AASCaNm+mxMREtW7T2mY/gAA4DgYHRtu2bdWuXTuz9u3b3weGMCgcDAaI7t3UpVtXs67du6lHr57q07ePAMSAgQOilM4x13itZ5/eRVqvvn2E9enfz4DioAiPAAQwDBwy2AARBgVgCAPCQ4WLSK81AAKO/dzBYWMo03BmCAPAjx0cxg6R0jcl8KACmmqTE1AwSU10zpxhjMH6yKLFzxooli1frhdeXGXAIJRs2bpFn+z4RLs+/8w0xrHjx4wtEJwAAucX6q4KWCWNpKKwAcfGCCCuU5fO5vyEGtWFGRjq11eDRg0FQwRgaKnEVonGBADBwZDcsYOSO3QQzgcIDghnBtghzBBhlsD5DoRuPbrLmQGmABS9+/SOml9zILjje/frK8zPAYKzgDODgyEWCIOLYQZCBllFGAxhQHAcPneGIFyEdYILRwcFYywYrF4xcYKtfbAo5uVwJqgDgRFgYCyYYVxjRdUXzwgjhBBWVTe8vdEWzwghAIIshLTUawwAgFTU+jByslVix6c7DGHMNJwNI1SvWcPGuvXqqV59LABE46ZNAkBEwAAzwAbtOyQLMDgQwmDgGoDAOnToYIC4DxhdOhsIAWLnrl2ioOC8Y+dO9hrXw69169lDWPdePdWD0BJhCIAAIAgd7nDTCIMGGjAcHLCBMwJAcCaIHRGSLiYBhBsA8OMwUKxG8dsEZiRsOBgYLUxEFsV8ddRCRWqqLZ8Hxyl2zMopQOE+X0jjmHt8mR2mcFCQiRA+du/5QoeOfCnY4U5GwA6IRqtN5OaoBPkrbyImE/PrN2xgbFCnXh1jCMAAO2B169czgyGatWhu+gHtwPvaAYj27aPmYEBAxoIhDAgHEUDq0Klj1BwEDhCYwxmjM6Gkezd17dE9CghAASBiw4LrCa73GXCPKcJ6Aa0AIGItnFnEAsJrEA4IZwjEJfoinG14xhHNLmLAACMQFpwNcDaGc310dmDkOmAIA4FzGAKxySoqy+s04/hKKn0XW7Zt1f4D+y0Vpa+CEIE+MLG4Z99eU6WgGafgZGOBBvUNFOiGGrVqmsEWhA1AAmA8ZJBhkDngfJ/9HAOCVq1aRTWDvwYQHAz8TACA493CgPDXYATAQOhwIMSygjOCOR3H9+9nDAFAPGw4Y0RDRUQ8ohUwZwvGocOLLkThfAeGhw9nBgdCUWCIAiFSZ3BWCAPhPjCksoIaLJ1z3QHijJCSGoQOwgRZByBAPwACRpiBXovnV70QBQQMQVcWWQZsYCECRiA3JabwYQ4EZjsiEUfXb1DfHA8jAAQsDAxYgmyjabNmatGihTkejRDLDs4Qrh8MCCEA4HALLx2S7fdwDeKMEWYI2CCWEQgRsIIzQ6zD72OGCEjCgOH12NDhxSfYMpYdigsbAMHZIHb08nTsiKZwRmBkTcSXxx0I/nqUIVgEmzHdBCQZxeKlS6zzCnbH6MIi/cRIRzGAQSpKwYqsgl5NzyZKUKDYtHmz0QkzzrOEKBAaNghCQr26BggHAjoCAxTGEA3qq3HjxmrevHkUDGEG4DgWDAaWiONxeHt0xtcAwcHgjOBgcK3ACEsACoCAo38bABwM3IeuuE87DB9mIfPrgODM4CFiJGwRsTArAIpYAITPyTiiKWikm4qZ77MfIDgYuEZ4IL0kDOBsHG8gWPWChYSly5aZ8xGSLixnz52jNa++Yi15ly5ftkwiCgQqVKQcfIgLRkCAMGSmkzWQSmKwA6ECdgAAhIlq1RNsrFGzhurUqaMGDRqoadOmlm46M7g4jAVDm7aB2ERwxjKAA8Iykoh+8NDRCfEY0QkOBgCAZsCcFTxUAIpYcwD4GAaCZxKEBkDgQAizQlHXCBMjRo18oB7hzAAwijIvWnnmQZgGGDjewcBobDAt1RxLpgcLMMvRAtA/I4AgNAASB4B/BuHj9fWvWzGKxS1v0rU6Aipy3/591q9HLZ7MgZAAANABbpxjDSPXYQFnBwCRACASElSzZk3Vq1cvyg7UHzxMAAQ/ZmyLjohkHrFAcAD4GNYNHckoyDJiwAAIAEZYO8AORWUWDgAfw0BAK1ixidSS40hZ2kHBGBs2HCRUKUk9rWLJCmeoQOVMETsCDnc+YEB4MoZ7LBGJONLrCFEAvPC8AQAtADBgCEACaNAVbryf91KdpEGXVJLUEY1gQGC5kzIl4QF6Qx/g/CBtjKSPDYL0EYaAKcJA8ayiJgyRkKDq1asbGGrXrq369eurUaNGFi5atmwZFY4AwgVjGADOAowOAB/DQEju3ElYLBgAQZghAIRbGBAwhQPAR4DgGsEzCitLIyYjC1ZMFAeGg6MoQDgQYkdAUZQBDAcCTAAICBM4EQcys6F1DwM43Wc/gIABeI17AAvaASCEQwnX0AkUnY4cPWKlaBeLBgQqTvTzf/TxdkMgBSOA4CmjpZH169k1gAAI3Dx0EDIADs6vVauWatSoYWDgmHDhoCBkkEXABl5gcge7wx0MnPtrjP46Y/tOHc0AQjhMwBDOEh4mnCVcRwCIMBAAQFEGQPoN6G/VTaqa4SonwIgFhLMFjIBjcThA8DI24aYoEPg1JqGzAEIRDQAAoHjEIM4m7uN4NIHPfjIF6gc42lJL0stp7O8I0ksDU2qKsQTvZ0mBiX/7zp1oV5QBgTjB8iaFJX44MxRHe7kZIGBkBwCE12AFF5WuJRo2amSzH42A8wEBYQJQVKtWzZiC6whKwoWnmjgeRxP/GTkPawZ+H2cIv69dBAzOCs4MgMLNAeEs4UDwVNKYYEA/9aV0PaB/lCFcSwCW/gMocQ/SgIGBhY8HsbhlNkQslg0eQhhhiZsiFOnlKA0fOfK+hTFbKBs+QsNHjLTX7J4RI+3eUWPGaOz48ZrAYlsqXdWzNW/BAj27dKmWLl+u5StXatmKFXbO9Vlz52razJlKmTZNk6ZM0cTJk22ckpIijGsYx9zDe1atXq3t27fr1OnTSs/IUE5OjnIJDZSYoQcWJ6hPQy2UewkPVBMRhOGUEUA4GBwIjMYUjRubSMTRDgaAQKgACA4G2KFhw4Zq1qyZCBcsWuF4d3IYDOiHsIZwQLTtkCwHA+wQBoQfh5mia/dAQLpW8IwCMDgIwgDwSmX/AQNtaZt+BsyXuRmLusZ1lr1ZEmcZ3HsiWDbH/JqfM3IPy+/0gdAIlDpjpvWFLFi8REuWr9DSFSu1ZMVKLV62QguXLNHc+Qs0beYsTUlN1cQpU+19YydM1JjxrHrSOEPDTIoZ3WS0EfKZCxYv1itr12nHjh06e/asMtnNBRBy2aKYpxIsOJBPIiCgHGr7rDrCAIhAUkTLDhKqBdlBJF30RSkPD43QD40bR1kBweihAu0QBgMsAWOgL2AUfh7VSUBAJREwOiBwPqwAWNwAQVEWBsV9QIhkErBCURkFs9/NQQBo+vTtp350WfcfaD0NsWBwYDgofAwDAkfjcHomcPh9Rg8m/RcTJipl+gzNmjtPAGDZyuesL/S5VS9q0dKl1iZI09D0WbOtVRDQ4HhGQEAX2aixrHHcA4MDAiBMmzHTPoee088//1wXvrqgzKwigIB6ZGMoewMRP5SNAUK1hGpmVapVUcVK8apUuZIqV6ls12ALwkf9BkFmASAAgoOBWQ8zYIDCwwUgcJawLKN2LftZTZo2MXbA8V5W9jUGRl97MIB06hgFAuzQJrm9mTNFmBVcPKIVXDg6IFxAFjf27N1Hvemp7NtffWmlZ+9FMczAa/663+Ps4GBwhgAMtNbRWEsH9nT2aT4z31oE6Q+FBZ5dutzOp8+aY7Oa2Y/TcfjIMWPNYAAHAmAACJwDEIz3AAQAxGdueOddHTx4UJcvX1YWGUOYEUgfAAKCkdSClIUZyIwHAFilypVVPq6CypUvZ2NcfEUDBExRq3awBgEgyBAwBwRjkyZNLGQgFDkPh42E6tVVtVrANLVq17L0lLAEEAEEugF28DUGysscM9txNgyA81u3p3WurTXKAAqu8ZprB9cJ4TEsJv34AaDQkNu7731gcHZwx8eOzgbOFvRL0ikFCBhhBzqraLGj05rm2/kLF9msp0F43oKFxgwwBBTvzh8xeoy1EA4fRS1irAGC19wcBH7OOG7SZAMCneawy6Yt23T8+HFdv35d2dnZ0bBgoQEg0AxJgWH7xx8HOqFrV9MCgAAGgAnKli+nUqVLqVTp0ipdtoyerlBeFePjVTWhWnS1klnP7MfZMIIDgdIzRtURQAAWUktCh4cdPofiFJoENiJksIaBRgAQvs4AGHAcYhBHEyIMCJHuqVZt20QBwWueWbiIjB3DmYYDxdnDOrPZeBMBA+zgDOEs4cBwx8MCmJ8HjbOBDoAF6KyGBWi6NRAsWGgjYQEK95mPs3E+jsfoGsccCLzuLAAI3EaHjgEDOmH2vGe06uU1ti0BfXDz5s372CAKBMqMCEaWKtEJPXv1VIOGDYwNAAJhoUy5svpNqZJ6/Mkn9MRTT6pkqZJ2rULFOAOKASKmhuCAQBhiAIERlgAoBoY6ARgC5qkU/SzYAlCQpThDuH6A2nEWTmXmwwK00SUmtVJL2upaJxlDODPAHg4AgBFrvBYGhDNEGAiAoWevPlFzcBAyPBTgdEDAOUwBGGAB9AEswD4LZwG2689fsNA6sWfMmq2p06YbnePowcNokKF1bszXmocIwkU4ZPi5A4GwQ3Pyhx9/oosXL+rOnTtRIOTn5wdiEUYghaSwdOTYUdMJNHoyK2ECHIyzy5Uvb2zwVMmSerLkU2IsWaqUgaF8hfKqEBen+Ph4ValSxVJG2MGB4OHBAcEIM3AdR5OJkJHADgCP0EM4QqNwjZoG91HjsHQSUUnvQmQpGifibBgA5wMMWMKN87C4BDxh473OHHyWM0P3nr3M8T169lb3Hr3ECBgAgVuYGWAHQOCsQJZAky1aABDgeAwmABDegT1q9BgNGT7cmofpHmfrAGBgGwEsACiGDB9xH0BgAxzN6OzhwHEgwBKEFxjhlbWv22OFrl27pvT0dOXl5qmAHdp5PMIgVyVcI5A58EwA2qqpmVNOZpYChLiKcaYNCAmlypS2EAEjwBCMXCtTtqzKly+vihUrGhhIHaH+cKggJOD8sOFgfhbAgwFwPD/TQxJsxDHXuQdRSlMtIQBnOiBwoM/6sH4ABBgAwRwQYSBwXCQYunVXVzbpsGEnBATA4GGCMSwkAYGxACnhBBpwg8047MFgLwaA4Bot+b7vgtoDHeQAACBgnON8BwDnfg3WwOnOCOEQ4q8BBoBCqCHsvLpuvfYeOGj6ACDgfGeDKBCoJSAYeS4RlScqUxR9qkfa1nAGhlhEG5QtV9acDysQJggXTz71lEqXLq2yZcsqLi5OlStXjq49eIWRUBDWDs4InoIiOHE2DEDaChD5uQhVWCm+UiW7Vhsd0qSxWiQmmpMBgMd1BB/HAINZjpMDprgfDLFAcDA4mAxYXbqqE5t1Iu33zgyAwoEAI8AEAAAGIAwAAPZksv0OLYDBAL7zivsIG4UX6HcAACAASURBVB4+LJwMHqJ+AwdFDVA4ODjG2FnmYIAlXDMUBQpA4kCYOWee1r3xlr48dlxpaWnKyMgwJrgPCNQREIsA4er1a1ZYonyJOoeycYqLRpyB4RjAULJ0KQPCrx//tR5/4gmVLFlSpQgXZcqoQoUK0VBBmkjaCEP4+oMLSURhUQZLEC4ABIwQHwEj4apK9QRVJ31t2EBNWzS3EIDTPVQ4GDjHsR42imMDZwoHg4cJQNCZHVvs24wwAyPmohFnUkACAL7xhj2YOB4WAAyAAo1AxoDTAY+HGY75jL4DBtr2QbYQYoACZuC6H4fBEAaFC0jCRDhUAARCA0UoUsdTZ8/p1q1bVkMgJACE+wpKgAAwsLWKvXhssGARhKofsxVnEK+J3W5BOlneMoinIpoBEAAGDDAQKpwdKCgBBrQDYDD9QLoZWbsADF6tZAWUNNJXQkllPWzwe8STyVStoqqkr3XrGDs0p+W+bRtjCBzqsR52ABAeOnCyhw7uAxweOji+DwxdAiDEggEnwgLMamY32QBb8q0mENmICxgAAAUjgOLZhYPAQ42Lzl59+wljWyHmgPBrgALnYwACcLDnlHt5DU3hLAAYYAk0AiL02aXL9N62D3TuwkXTB9lZ2cYIrg8sa4ARfBUKMNATz/OEKDeTsrVs2SI6M6FpGAEweLgwhqhQ3sIGYYHwEGYGBwPaIRwuYAdLNyO9DrbEHVrUcjBQdeQYQEYZomo1A4IBokoAiJq04DdsoCbNm1nWgFMBgBePGGGKWJaADRCVRYKhcxd17NRFHdjT2bmraQUciSCkLkCMh+7Zekfs9/jvu6/IItAPACesMzgHAJ6F9OjVx/aU4lgHhI/sNcXZON91AscwBXtO2Y6Y3LmLbU/kOgBAH/hIOZqNzB99skNfXbpkYYFCEs6/DwiIRdJHAMEqFGkke+6oMrIiRmEHJ1FJhJZhAoAAXQchI4jjcRUrqnyFCipbtpyFh5IlS6lUqdIqXbqM6YZy5Z4W91SuXEXVqtG7UF3Vq9dQHaqO9epZublufVYxg17JhhSjmjZVsxYtzBo3bWpVzNp1CBc1VTWhuuIrV1ZcpUpmlapUUUKNGuIzuDcxKUnJnag/dFfP3r3Vq08fM0rI7Orq3K2bOnTubPe0TU5WG/oj6Jfo2NGu8V4AkNwhGAEEDoQFvDLoD+YAAICBc8DhAGDWE1ZgFDfCCtcdBBwbO/TqbTvKg9+VIlZf9e7b1373Pv362+6tIcOG2y6v/gMH2b2NmzVXY1oEExOV3LGTevftJ+4ZOXq02eix4zRzNl1Jr2rX7i906fKVoKKYG+xlYLHJ/J6frxKAINYIEUePHbVuFpZEqe4xKz1eA4J7RuWxkgm5ivGVVb5CRZUpW04lS5XRk0/9Ro8/8ZSNpUqVUdly5RVXkXt5T1VVrZag2rXrqlbtuqpZq46NQQt9AzVs1ERNmjZX02Yt1Kx5SzOOsYYNG1t4qVmztqpVq27gio+vrMqVqyohgRJ2TdWqVUdNmjRTmzZtbVOux3VmM8ZMJc7jEJyEw9u1p1Wukx23T+5oo4tFZjRsQJwnHUQPMGIwANcBCTOdn8VnOpD4LD4XMBWlO7r34HkRPdWjRw8zjvv06aN+/frZ9QEDBmjYMHaJ87yIoerdu7c1C1eqVMlYlsyMpX3uHzJkiEaMYB8pjxUYo9mzZ+v111/XgQMHdP3a9egzIH1/gz/1zdJHWCFsAIM9dIePfGmbMVnzZpcRMdwVPUDwMBFlhvjK5ugADE+rZKnSeuLJ3+iJJ5/SU09RlSyrsuWeVvkKcQaYCnHxqlqN7qYaqlGTlvm6qlcPVngQCM1bJKp5iwAQzZq1MCcDiDp16prjq1RJEGCIi4tXhQpxqlixkoGCz2vatLnatG1nznFqd9UOIAADjsZRbdsl272MHhKY1bABACLmowUICS4AuY7zcTjvM0Dh/AiYAFmYWR4EQwAA9oJiAAJnA4ZevXqpf//+BoDh1BoGDbKmHnTWz3/+cz3xxBO2oEcXOUDgnpEjebBIAIZZs2Zp/fr1OnTwkG5cDza4+LMU7m2GLQjqCGEQcIxWoMgEM9DEsO39bdYeTYdOYmJLCxWwA+sEDggKSjACsx3DyQEzlDZWABAwRMmSpY0tYAyAASi4v1pCDWMFY4R69dWgYWM1atw0ygoBEABDopo3b2kGIBo3bqr69Ruodu06BghYATCULx9nI+c1atQyhmmZmGQOwWk43/N/QIEzmc04CQC486Ft7sd4HdVPaEAAova7d+9pDm/VKslYq0WLRCW1bmOAAAhhVggDIgwGfhb7QDEHAqwACLC+ffvaTMfJHFOMQ3v95Cc/MTDADAABwHAPIIA9AASM8NZbb+nIkSOWOjoI7jFC8LxGW4YmToQNRrDYUZBvgDj/1XlrXKEDllDRq3fvoGehQf1oekn8x6GVq1Q1i6/kYSJghqdKljIgAAY3rgUswbpFZWOH6jVqBexQu67qRgDRuEmzKCAIEzifWQ4QAAXHXIMhYICaNWvJGQKWMIuADdYBYElJbcy5gAEg4FhiO84FFJxD90OHDbcQ4lTv9I6TYRkA0KJlKwMoQEtKam3XYQUcz30cwxQcY7Hs0KkzDxfpbJuDw2DwUAE7QPk4l13kpOO//OUv9YMf/EA/+9nPLDzQKOxAAAzcS3iYP3++Nm3apBMnTtgawz0WCB4p7MAoEgiAgB2z7ISBIag6svWajRFvvPWm9b7BDvQHNG7S2MBQrXp1++MT9zEAgXPRBGiDMmVYtCqjWEBEwVD2aWMRAMQshiEIF+gHQoUzBE7E4Y0aNYkCwkHBiC4IQka9KEPEx1dSmbJPW5m8Qhzl66qqXaeeWrRMNMcwO2EIAMFsh/KhfoxzwgkACBzfWomJSQZMAIqhW1omtlLrNm3N4Tgd4/6wedjw0AEg+FyeIUHrHmDA0c4OHGOwA0DA2DREdvaP//iPeuyxx4wRAAZAIDQAAAfCuHHjrL2NrqTz58/bGgMP/Yx93A5gKBIIOJ8MwlmCY2oNtLTxUGva32EH+uK6dutmjSWofZznIAAI/MEdEBUqVFTZsk8bA1h4IESULG3AAAzoidJl0BCsWwTswmclIPxqs6pJO31DM0CAsxs0aBgFhYPBwwbnDRs2MtGIgARgFeMrGdgIG4QufjdEqjMEYED1k/+npE6z+gDggLodBMx+WAkh6+ZAgGUAA2OrVq2NLWAIrsUCIswOxhAdOtgjBGyHeAQAHLNhGGZAJKIPWKd58skn9dOf/tTYgHQdvQCQXCw6GCZNmqQXXnhBn332mS5dJnUMnrvkYHA24EkrJXDybzPYgXsACI9toXeBXbasS8ybP98aOdkNjdJnFqPk3SpXqWbMYOwQR5m6vGkHQgKGVrjHEqScZWz2AohAP7D4VN0+t06degYIQOAGGGIB0bJlohITW6lFiyCMACLAZL9bQnX7fYLf42n7WZUqVRGfzYwlPMAErAdwjEYgzuPMVkkBG3goABCeyXCMfuE12AHjmNDB+wLdEIQIZwwPHzxuyPd+hB8f4OHCRWBYH/z61782ZqB8Dxu4qCTDIESgE+bMmaO169Zq7969pg+oJBborn3hCazgQCBcPBQQwkAhXCAk6V+gLRohSXs1TzhBUPHHYJYBBBgBAISNmYgTSluoCMDwVMnSD+gGQAKdM3sDMVld6Ac+G3HoFgYC4EArwAoAAQpHvJmobNLMZj6sQrgBXPxeZDjlyscJwMIMhAkvGzMiEAGDhwacCxM4CDzFBRBcI9w4CBwUzgquFZwdPFQk2xNm7oHBO7ydHQYOHGjxHkYgTWTxjpSRdRtAQOgAALzOvYMHDxZssHLlSm3ZssWaUVhfuHv3rgqlbwYIHi6MHdLTdfbcWdtC9fr69ba4ApUimojBgAEnYoDCjXPo32clTo8FQ5BdEC7KRcJFfFSMUj+gTkDqyGwPM4ILScAACFq2BBD3z1KcBiBgCADg4YjQBqtB61A32gBW8AwBwYhz0SyuD2KFLEDgHs9yTEBGsogwEGAYDxlt2wXt/b7Xw4HgmgEHE+8Rf7BCOLOALXjdQcDIffPmzbNsgYdy0ZpGFZF/hIXYLz37nRjBMwqYAWNfBNvmDn/5pTa/t1XPLl5iKRaFHP5gzDzXCwCBugEAQdUzI78ODISM+/SDCT5WNqvaZ3jhyPQDtYeIiERDhMVkFBQ8Fa5VkoGDmWyd2jVrR8HK70ZWwWvEeYDgi0loB85xHiBCvLrBJM4SDgDYAQMI/C08W2CEEfh8mMLZgpnuxgagMBig+vG0uk/g2dUjohkEs99DAQDhGC0BGyxfvlwfffSRTp08ZQtNFhYiXzCC48MPB/+dgOBhAt3gz+JBSN68dVsnT53R1m0favGSpVaLZwbwx65eo2ZUNBKPXVCGqZlCE7M/0Az3hKQXpJ588jfGGmiIuLiKVjACEAhB0kUqlA4IxJObs0VA2/diNjMX58EApKmYF7KgdgQcaSQZBA/zpHwM27Vrl2xs4MLVQQEYYAcHgGsHgEAI8OIUI38X0xyAMgJOeyBZEqBpY3QPKGAIQAH1UxPAwYBh7NixGj16tBWd0Aa8TvEJkTh58mQtWLDAikj79+83kUj/AesLOdn3f30iAAhAkffoGgFGICxgHLvl5Obp9p0MnT5zTjt27LKv0eGPR3zlj84fmRkHO4SBgGYgTgexOhCSrh/CZWpK1V6UYj2jHOVqUsFKVYxdAASFo/vDRiAu0ROe5jFj+eO7eRxHT/g1ZiyZAmGB8rFXEqk54ECcDhsAAv5fGMdeFgcMHjL4fICA9kBDMQIyfoaxU0RUsseDHhB2gmHEfsAAEAgRzHjYgLIxoCCVDBecAMG0adO0YsUKvflm0LYeZAoZ1qhKsyot7DyTMQsfhh7BZ+mjz/CHHQEA9xIW8iNP3GCEHRwMFy9dtu9eWrtuva3JQ6n8xxs0bKSatWqb6CMeV6ocVCABQxQQ5eOsDI1QDLRDKatM/vrxJ6NAKI2QLBOAgbQUMMAOVaoEIQNAxOoHn8FhGsdJ6AEXbYw4mhmLHnAgkE4SGgA1QHIWiAIhwiacN27S1DIJgIBxP5/L5/F+wAArGBCSWhv4TFdEGnxp8gUQMARgCGcRFJYIB4CCWgP6gHPqBlOnTrVw8Pbbb9vehXPnzhkA8JOvMmYZELLta4VwflgrPHLWUDxgghQThiCroMmFmgNZBVvuqTnwMCx6HOhCoh3Negssvw8KTy4qEZJkC55d3FdviNQeuEaBijI27OCsQgEL5iG7CDboBotazFovSjFz/RgKx/lkBaw3hGdt7z5UHYerb7/B6tCxm5o2a6l69RupfoMmARNEVk3pl6CvolmL4Al0/CwyHC+KEYJgGD6bnwEjmEZoHegEGISyMT0a3glO9xYswdZADxMwA0IRJgAUaAJEJGniyy+/bLuYTp48qStXrgQNKJmZ1nhCbyIaAUD4l6vlF9wVlsf3cOUXPnpoKB4I9wpQph3y8qwhlpoDz2niqSxs1qQx1sFQo+Y97YBeIGSYiKxYySqSONXBgDYgVHjdwWsPZBswBBqDNBBmIfyQESD8fGXTsouQwPNZ7cLQq4ssLnHctl0HtU/ubABgbN4iSXXr4eA6qlkr0CPBSmnwGMJmLZqpRcugbwIAwGj8jhTJCFtoBZgAZjAgtObhpq0tbJLpoGmoENLIQ+8GTTykh2gGf8AIYYJKI4xAduB64LXXXtPOnTutenjjxg2rGdy+fdu2tQXOL7TU8W7oW/a+NSCExSNgKbwbPM8PhqAIxeIVX6JFuzzNsZSnaTbhj2YrhhEH4kRAEbBDlehqpovJoAgV1B0IF9iTtrIZYYfy5e29VCRhBcxB4bEczWDCskFDi/eEBxxECKNuADswY5s2Q1AmqnETmIBiWR0lVCe01TGQATR6Neiubtu+rZJat7JtAID3n3/+S/39T/9BP/vZ/7YQhxiFeQCDAwFNAhD5fSgMAQBv6mEhCXAQIgADI4CgykgoAARLlizRG+vfCLaxXQi2saEDaFeniohAhA2oH/i/b50RPJ00ERl5SJPXHIhFtv3+/Hnt3LXTnuPDcwDYp0DMJq1k9jMCAj/2tJNzqB8wuHbA+YDgX/7lcRtZ5iZcIDRhBdjFF7CCMjWLWDzvoUHQBMNxZFELrQAQEIMAAUcR22GAmrXqmdWoWddA4EDgs6lWNmvezP4fPBMyuUN7y5JYVPvbv/vv+psfPKYf/+Rv9evHn7BSOY7nsw0ISa1tWZ0wRbMNrXzlypWz8jFlY87p63QB6XoBJkAULl26VOgBMoMrl68oIz3DwgCiEIMJAEFhIV+3GLbgeze/NUaABXC8AwEm4BwQeCscYODBj5SnX137mm39JkXjjw6F88eFCXA8owOBYwBigrJ8XAQM9xpfwhkFaxZoBkAF2wACj9XM4LBu4JgQwc+HBWhUITQg7hB6OL1yFbbl1VTVaqyjsMW/ZmAJNYwVCHN9+vVV/wH91S65rbXd//wXv9Jf/81j+vP/+Bd67LEf6pe/+j/2OwAErycQKjx9ZQmdNj7Cgvd4Ujn051GhEWACMoOZM2Zq9erV2rx5sw4fPixCAd+16YIwFgCAIWzfOiM4CCw3dUBE0kvEI8Cg3kArHE/0Yvc1oYJveWONHxUNO3hpGudjOBRzMNxLM+9lFcxAUsugG6qUMQf381mAgBGQESYC3RCEDI6hZcQalA0IEHSEBWZqQvVaBgTAgFVLABABKPhcgMSGGx6cMWBgf9MIbPYhJPzZn/+F/viP/0R/9df/Vb/4xa+sgumMABgAH2Dj58BMaALCA+EAoehPqKOwhCagoER9gLWDXTt36dSpUwYCp38HAE5HGIbNmcFKzJFv4v3WGQEGuI8dAEMkVNDwwreS0P106cpl+4KKbe9/aGCggoey5g/jYCC99FABS3AcMIOXp4MCFCyAaPRKJJkE98MoDgbXDAEQ7rXGUfBiLYLvmuDnwwzMVkIIjncQAADOzarVNGCRDtPTiQDmQWR169URrf0//snf6U/+w5/pj/7o3+k//ef/ol/8MgACVUQvM5Ot8H4reDUKNgv744W8juAgoJBEfWDjho22ksj+RdrSvVqIox0IDgCuRa0wCBEAwb5+uTDIGBwMjN9g+lj8Kibhws0309DjQAfU8ROn9PEnn1oBiiZQBBuO4A9EuCAVhBE8THDs4CBLQDOEC1CAgmswB/fyfmOFUH8Dn4uA9BQTpzBLyRZgBn4+9wCCSpXprQgYIRweaK8jrLBJl7S4U+dOqlgpTj/9h3/QD37w3/Qf/vTP9e//5E/1g8d+aEzFz0MsEnYQp7AfApLPaNI0eOg5OgBDHJIqUiNITU3VqlWr9P7772vfvn06c+aMNZigA4IZzrft3ksP2acAAO7XBfc0Qtj54ePfCxAIC/c0QwAYCyW5ufa90GfPfaU9e/dr49vv2N5AtozhGP5YzOTAoQk2uoMdEB4qHAxkFYhK9IS/LzY8AAAXkiyOEauZqbABQg7xyKJWpcrVFF8psDAggjBR3YQhGoHnN9DC9+RTT+iHP/qR/uqv/0Z/+Zd/ZWLxn/7pnw24/jMAA2EBAMBO1DPoxYQFvLxMEQk9QL8hbWa7d+/WubPndPXqVZEWeju6z/7YMcoEYVaIHIedHz7+vQDB2cDFo6eagZDMU3pGpq5eu6GjR0/o3U3v2Zd60ybG7GTWsEKIEfdxvIeJsG6wLqiy5QI2oF/RspBAcBIeyCIABDMTEAAw1w0ADo0CCAAEi1Q1atZSxXiyGRjonsVXQq9Utfc2atzENAJd3qj7J556XD/6yY/1wx/9WP/jf/69fvmrf1FcxXgLd/756A+0gYcoQiGrpLyf9JA6AeVjWswAwcEDB229wJ9wAgiY9dlZWTb6TiULE0U4PhYUYeeHj38vQAAAAQhCbBAJFwWRb5DPLyi0tYqjx07q/Q8+0osvvWxf30fXEGLOlrWpOURSSWa8awa/Rv6OARZegxEIKYCAYwDhWYRrB8CAM3AQLITDCBWsbFaIo1+hsiq4xZG5kN5Wsc9p1KSJ2icn2/ZAmKFMuTL6X//0M5E1UABj5RWQ+WcTFmAD9AeldmcjCksUi1g4Yi0BEGzYsMFa0FlC5nlHsfTvz0ByYLhGiHV87HnY+eHj3wsQYquRFhZs0SpXObn5tkaRl89aRb5upN3S6TNntfuLPXr7nXe1cNGztruY2coflZnKugKOdUYAFJZasngVqS7ymgMBMNCqZqwQWgbnHGBA077mAHUTs2GP8hXiVa5cxMrTGc0CGTWNQIgi9sgaqCHwSJ+EGtVsCyA/m4yCEAOw+ExPF/lZgT6pHQUgzateH0APkBryiJurV64EIIgUhZj1OBxj2xps4ObXSSVjQ8V955HSchgEHP9egHCPEYIeBl+kyuPLR3PzlJVFZpEn2AFmyMzKtl05R44c07ZtH2r5iudtFdBzfGiVmUy4CLKIeyuYLELBEA4EwIBxzfsYnCEACOVfnIOjmLFO3QChXHk267Dhl2IWmUpgAILP96yBOgKCsUmzxuJRxMR9gOVVRD4b1kGbIDIRsGgQT1v5zsuUlBS9+OKL9vg7Ws+vRJ5zhIMDtV9g4QCRCAvwDCQHQezIe+5zfjidLA4Ixb4h/OaHOMapvr79sCPNEdl3i7bbOVm6fPOGTpw/o8/279Ub72zUnIXzNXTMKDVLaqWEunUUV62aKlSupDLly+vpuIqKYwELbcDSdKWqqhxfRVXiq6hqfMAeOM/N2cKcUruuUTYNJA4ErrsAJQsh5Hhlk+tcowZB3QFxyzMOyHhgLhyMQfmEAoBBrSDIghIsLAAOwh79kfRvrFu3Xp988qn1dFy7fkMZmVk2KUj3Ymfvv+bcC0qxY4nvKhAASHpejm5k3NFX1y7r4PEj2rL9Q61Zv07D2KndoYMS6tRRfEKCylWsqLLlK6hsRCPY0nTFygaEqpWqCnMAuK64BwQcE8xOKBznMXthjzAQAEEYCHwO9wEElqsxKpOkoAAKAAAG7oHBCBUcE95gHu7nuQl8mfpH2z/R3r0HdPbcBd1JzxBhsvCuxArBv3kgZBXmK7MgV+l52bqZlaGLN67pyOmT+vzAXr342muamJqijt26qUnLlqpVv74qVU1QhYpBuzqLWLYXMr6KgQFmAAgOAkbOAQNhgplKClccEJwBHAiwAe+10JDc0SqSvmqJ4CQs2P6KRuz5CIpXhJ9mzVtYuGAnNc9QWv/GBu3+Yq/OnDmvK1euKyMzW4WsEN5lPeCu2b9m9hf13lgm8PPvLCNkFuYZEABDRn6OgeHSzes6c+mCdu3dq/Vvv63ZCxZo0LDhat+ps+o3bqJq1dm/UEUwAkaYiKciWeH+DCMMBHQG6p0UDmFXVGigNoE5IAAC4hQdEdQBgoZVsg3qBb6GwGveAsdrsAV7J597fpW2bHlf+w8c0oWLl3TrdrppJZwPC3wbTOCgcMfHjt9dIBgAcgUgCBNZhXkWKu7kZuni1as6cvKktnz0kZaueM6eEgIY6jVoaEKMfYF0MDFWjLsHBASjm4MBIASM8CAQcHiw7B30QXDMNb/O4hZgs+wjssCFiA1XLQkJNNLCNnQ5vbDqJe3ctVtnzpzT9RtpysrONQ1gjoEJIhYI529WHwCGWAD4+XcWCBn5MEGuMgvybIyeF+YpKzdPabfTdeL0aXsAxMuvvmrb1InXxGWaZZ0VzPFx8VEAMJO55kCA4nFc02Z880ywjxEaJ92EAawZJrIri2OuESLCLIGQ5DPJQqgdWENtzA4qmmBXvbhauz7brStXr5sWAAS5eQXWIYST6BTi3K9x7jP5mxrd8bHjdxYI2XcLlKPAXC84MPIKCpWRlaOrN9J0+ux5fb5nr159ba09r4hO46Q2bS02M9vjItvcvNZApQ8QhMFASkeVkN5BgMQs5h5mvgOBtjgPD2GtwAIX91HEIixRl/BCESVrHq0T6IG39PnuL3Tx0hUTg4hAdzTHOCZ8zR31TQHAP8c/N3b8DgOh6LSSMIGqzsoO6g+obP64+/Yf0pYt27R8+Up7lhDfcl+/UWMTkRVpko0Um3Cw1x9sFtMSH1lAAgSoeqp+rHziXIBA0wstZzjdGYGR0AAbAASOAQLsQgmZlUz0wNJly+33OnjosC5dvmrVU2olOIL/hx+7o2JHwPJNWiwA/PwPEgh0XjF7CgqwQmVmZtkf+fjJU9qxc5deeGm1Pa6+U7duqtOwoSpWDVYsg6pjUH42hoh0QAMEyr6IPAQe1UsTnXHxxgI86CPYeVUm2gXlq5wAwUMDIABM1AempqTqpdVr9MGH220NhXCQnp5ptB9kBYqGAJwRCwA//yZBwGe542PHP0ggFOQVKjeHUmt+BAx3TXTdycjUxStX7Qmjr72+XqmzZqlb795q1Ly51QpwrnVHl2PvZZAJsNEW9Y+6J88HEGgMGAHGIAxEWaB0WdujGey+CnokeZ3PJCRQO6CoxBPVqA8QChCF167dMCYg9uMAzwo4x+HfA+FrKovFVRy5npPF6hs7d3KVlxuAgT+maYfsXF1JS9OXJ05o2/btWrFqlcanTFW75A7W40DFkPBALwNOhBm8uohItG4hdnTT2YTwq17DsgrCBW32wc4rdl2VirbEoQmoKPKYPULT5s1bdOjwl7p2Pc1EIaurhDDK6YQDZqYLwu+BENl/93UOL+61vOw85eXkKTcn34CQb5R3V7n5BcrMzVNGTo6u3bylk+fP69MvvtDajRtsyxqNqcxa0kXY4V77ezXTBbABQAge8FXHCkYsHLFbmZEMI9w+T0WStJBnKFIlpJ9i7979QYXwTka0Gyg3j+9g5jGGeQYGBwGA8BBQ3Ph9aChmDQJwFOQUmMEGudl5Zsw21i5ghbzCQgPDjYx0nbl0SbsPHrA+B4Tb8OEjbbmZFjXAAP17317TrQAAA2ZJREFUCmlACG1ho7Wse49etk2eGU+9gD0UVC0BAdeoDSx6drGtlB49dsL6KigQ4Wz0i4OA388B4CxArYBrrLr+mwbCwy5Oxd5XgDaIWD5/RIzl18gSLGvwrKGwSpeenqEbN9J06swZ7di5U8+/uMq+kZVnKvJMxioJCfa8xqp8byXfblurluo1bGjPLuzUubNtK+PLuzp27CS+OoAiFc+ITE7uYNvMeHTdrl2f6dSp0+LJ53fS05WZk22PscvJo6s7YqG9hsGja8KPsCET+mazg+I+rzjA/T8Vizg4tlfhYc4dBLFjPjGYx89HQJKbk6vszEyl30nX9bQ0nTl/zoTk+rfe1My5c+zb5XlYZUMe/9u8mVnjZk3VMqmVPaa3b+S5hfQK0EjqXzvAMRtMXnnlFWsj4/lEtJDZnoLcHNtkyuNoMH8qSXjTaSyw7VmH3wPh0cHgjo4dTTdk5xgYYAdAkctW8KwsZWRlKe3ObV24fEmHjx7Ru1ve07wF8+17GXksL89obt2urVq0SrSRZzizV4GNprSP0U9IXyGt5TNmzLAdx3v27NGFCxd05/Zt6w0wFuLxhPRofg+ER+tLeBgGiL0nFgB+npeTa46HCQCBG+cFhYXmoFt3buvKtav2JSWb3tuslc8/p5TUVPH9zHQaAYY27dsF3yPF4/47d44+0Irt6HyJJo+jOXr0qIUCGkRoBPFwRJPu90CIPHjhQeorHhyxTn6Yc3d87EhoiAUBYOA6QAj2XAT7LtiPyTfbsQWPLzV74cVV9gWoPGHWv1CMFnU6imkrp6OYzaZ8Xd7FCxeDh1dm55gW8TYxQoM96f57Rije4cWB42EcH3tPLABiz50JwiM9fv54emYvQpIvsbhw4aI9bOqLL76whtEFCxdo3Pjx1k7OY2hoJl24cKE9tPKwlYmDJ5zzcCpaxHA+xzSTMqZnZn7PCMU5++uuxzr5Yc5jHe/nhXT25BeYWAQEYXZwp+EwDAcyk7mO0Lt+7ZoB4oMPPrBnDSxevNh2F61Zs0ZcY4sZG3J4DA3hAD3AJhLPTqKs8H1oeHQ2ACAP4/jYe9zxjzK6o7zRE1agKdQaQwsK7LEyPL389OnTOrD/gD1vgDDA9yTCHIAHEDgT+Oc8MAKuRw6RQbWxuJTvm7xeXPr4fwEHrtJaValyeQAAAABJRU5ErkJggg==;" vertex="1" parent="1">
          <mxGeometry x="243" y="238.62" width="64.13" height="45.38" as="geometry"/>
        </mxCell>
        <mxCell id="p0AlBM5lABDZXC_UDDaY-26" value="" style="edgeStyle=orthogonalEdgeStyle;rounded=0;orthogonalLoop=1;jettySize=auto;html=1;" edge="1" parent="1" source="p0AlBM5lABDZXC_UDDaY-8" target="p0AlBM5lABDZXC_UDDaY-25">
          <mxGeometry relative="1" as="geometry"/>
        </mxCell>
        <mxCell id="p0AlBM5lABDZXC_UDDaY-8" value="" style="shape=image;verticalLabelPosition=bottom;labelBackgroundColor=#ffffff;verticalAlign=top;aspect=fixed;imageAspect=0;image=data:image/jpeg,/9j/4AAQSkZJRgABAQEASABIAAD/2wBDAAYEBQYFBAYGBQYHBwYIChAKCgkJChQODwwQFxQYGBcUFhYaHSUfGhsjHBYWICwgIyYnKSopGR8tMC0oMCUoKSj/2wBDAQcHBwoIChMKChMoGhYaKCgoKCgoKCgoKCgoKCgoKCgoKCgoKCgoKCgoKCgoKCgoKCgoKCgoKCgoKCgoKCgoKCj/wAARCAFeAV4DAREAAhEBAxEB/8QAHAABAAICAwEAAAAAAAAAAAAAAAECBAYDBQcI/8QAVRAAAgECAwMECwgNCwMFAAAAAAECAwQFERIGITEHE0FRFBZTVGGBkZKT0dIVFyJScZShoggjJDIzRFWjsbLB4fAlNEJFY2RygoOEwjVDYiZzdKTx/8QAGgEBAQEBAQEBAAAAAAAAAAAAAAECAwQFBv/EADMRAQEAAQMDAgQDBwQDAAAAAAABEQIDEgQhMRORFEFRUgVh0RUiU2OBoeEjMkJDscHx/9oADAMBAAIRAxEAPwD6kKgAAAAAAAAAAAAAAAAAAAAAAAAAAAAAAAAAAAAAAAAAAAAAAAAAAAAAAAAAAAAAAAAAAAAAAAAAAAAAAAAAAAAAAAAAAAAAAAAAAAAAAAAAAAAAAAAAAAAAAAAAAAAAAAAAAAAAAAAAAAAAAAAAAAAAAAAACUm+AE6WA0sBpYDSwGlgNLAaWA0sBpYDSwGlgNLAaWA0sBpYDSwGlgNLAaWA0sBpYDSwGlgNLAaWA0sBpYDSwGlgNLAaWA0sBpYDSwGlgNLAaWA0sBpYDSwIay4gQAAvT4MixYAAAAAAAAAAAAAAAAAAAAAAAAAAAAAAAAAAAAAAAAAAAAAAUnxLEVAAWg0lvAtqRFNSAakA1IBqQDUgGpANSAakA1IBqQDUgGpANSAakA1IBqQDUgGpANSAakA1IBqQDUgGpANSAakA1IBqQDUgGpANSAakA1IBqQDUgGpANSAakA1ICknmyogAAAAAAAAAAAAAAAAAAAAAAAAAAAAAAAAAAAAAAAAAAAAAAAAAAAAAAAAAAAAAAAAAAAAAAAAAAAAAAAAAAAAAAAAAAAAAAAAAAAAAAAAAAAAAAAAAAAAAAAAAAAAAAAAAAAAAAAAAAAAAAAAAAAAAAAAAAAAAAAAAAAAAAAAAAAAAAAAAAAAAAAAAAAAAAAAAAAAAAAAAAAAAAAAAAAAAAAAAAAAAAAAAAAAAAAAAAAAAAAAAAAAAAAAAAAAAAAAAAAAAAAAAAAAAAAAAAAAAAAAAAAAAAAAAAAAAAAAAAAAAAAAAAAAAAAAAAAAAAAAAAAAAAAAAAAAAAAAAAAAAAAAAAAAAAAAAAAAAAAAAAAAAAAAAAAAAAAAAAAAAAAAAAAAAAAAAAAAAAAAAAAAAAAAAAAAAAAAAAAAAAAAAAAAAAAAAAAAAAAAAAAAAAAAAAAAAAAAAAAAAAAAAAAAAAAAAAAAAAAAAAAAAAAAAAAAAAAAAAAAAAAAAAAAAAAAAAAAAAAAAAAAAAAAAAAAAAAAAAAAAAAAAAAAAAAAAAAAAAAAAAAAAAAAAAAa1trthY7K2kZ3C566qfgreMspS8LfQvCB53U5Yr1zbpYdbRh0KWqT8uaGKvZx+/DiPeNp5svaGKK+/HiXeNp5svaLip2PfjxLJ/cFpn/hl7ReIx5csWN5/BtMP8dOftl4plT34se6LTDfRz9svAyr78eP7/uTDfRz9scEye/Hj/euGejn7Y4HJHvx7Qd64b6OftjgckPlj2h6LXDPRz9svA5IXLHtD3rhvop+2PTOR78W0XRbYZ6Kftj0zkh8sW0fRb4Z46U/bHpnJX34tpe98L9DP2ycDkq+WPabuGFehn7Y4HJHvx7T9wwr0M/bHBcq+/JtP3DCvQz9snAytDlm2kS+Ha4XJ+ClNf8xxMuSny04+vwlhhkvkjNf8jOFXfLVjv5Ow36/tDCo9+rHvyfhq8U/aJiiPfqx7vDDfNn7RO52VfLTtB0WWGeOM/aHc7KPlo2k6LPCvMn7Q7mHFV5Z9qWvtdvhEX1ulN/8AMdzDgXLJtgs844M/9vP2ymEPll2wX9DBvm8/bIYVfLNtj8XBvm9T2ymFXyzbZfFwX5vU9sCr5Z9tM+GC/NqntgVfLRtr0LBPm0/bBhV8tO2ufDBPm0/bCI9+rbb4uCfNp+2FetcmXKXa7XfcV7ShZ4vGObpxlnCtlxcM9/iflYR6GAAAAAAAAA1Lb/bS02Uscvg1sRqx+00M/rS6l+kD50xXFLvFsQrXuIVpVriq85Sf6F1LwFisZSKGZYiNSKIzRURmVEZgVKmEgRvLAKiAYSgAAgqwqGQVIqrIRBlpBBBFRmBGZA1ARqArqCocgiuoCrYFXICuoCuYFWwL2t1Xs7qlc2lWdGvSkpwqQeTi1waA+oeSflAobX4d2PeShSxq3j9tprcqq+PFfpXQwjfwAAAAAAabyjbcW2ydlzdPTWxStH7TRz3RXxpeDwdII+cMSxG6xS+rXl/XlWuar1TnL+Ny8BVcCe4ospATmERmaEakVMmYiIzKCZYJzCGZRHSIIGATAlNAAIIIZFVAq+BmrEMixHQQVYVBBUghgVAgCAK7wKvMCjYFcyiGwKtkFGyjJwnErvCMSoX+HVpULqhLXCceh/tXgGB9Y8mu2trtlgka8dNLEKKUbmgn97L4y/8AF9HkIjbwAAABpfKNt1a7KWTpUtNbFKsftVHPdBfGl4PB0hZHzbieI3OKX1a8vq061xVlqnOXF/uEVjxe4qLqQEqRRKkBGZURmVDMoZlEZhEplQ1AMwGZYGYDUQRqeQDUwIzIrbeTPBbPHcdq2+IQlUoQoOppUnHfml0fKZtwseoS2B2bjl/Jzf8AqVH+0mVRLYPZzSmsN3/46j/5EDtE2cSyeGxb/wAc/aAjtF2c35YXDxyn7QEx2H2eW/3Lp5eFz9oCe0zZyL34TQiks85SeX6wBbJbO788JtuPT4PGBbtR2ey/6Ta+Tj9IHPT2O2dlFP3HtVmvilgPZDZ9f1RZ+Yjckvyc7bFlsjs+4PTg9ln/AO0mTEl7rm2dkR2S2fqRqReD2PxXlSjmt30MtnGyxJ+9LK8xvMCscNx2VnfWlHmo1EnPQvvXwl5D9ftbHT9R0/q7W3M4+k8/R+A3up6rpOs9Df3dXHP1vj6u0ls5hkKkYdg2Unm47snnlnv4+A+FerneejPafo/VaehtxfXvvf1Whs/g0nFdh2kZJb1oTyfh/jpE6v8Akz2/wl6H+ffe/q454DhUKacrKzzWbeVPjnwWb+X/APS/F35bM9v8HwM/j33v6smps7gKqwhQoUK05R3QjSi2/BlxzOU63e78tiSfXH+HbV+HdP2unqLbfly7+2cuGtsvb04yawjJZZpStM38p30fiGm/7tuf0x+jzbn4brz+5u6v65v/ALjrLerX2Xxqld2FGja3MFwhDSpR6pLpT/jefV2Njp+v2b+5j88R8Lq+o6r8K6jTbucp9M3+8tr3jZPaG12jwyN1avTUj8GtRb305dXydTPy/VdNr6bcu3r/APr9h0fV7fWbU3dq9v8Ax+TujzvUAa/t/jNfZ/Y7FcUs4QncW1LVTU+GbaWb8uYI+P8AEtpLnEb2td3jlWr1Zapzm97YaY8cWl3JeUC6xaXcl5QLLFpdyXlLkT7rPuS8oyCxaXcl5wyYPdaXcl5wymD3Vl3L6wyYPdWXcvrfuLyphHupPuX1v3DlUw462M8zByqQSXy/uHKrxctTEqtOahUouE3CM9Mnvyks08sulNMk158Jxwj3Tq5/gvpLypg90q3cRzpxh7o1u4/pHOnGJ90K/cPoY504wV/c9w+hjlTEOz7l8Lf6GOVMRPZ110W/1WOVXER2ZeZfzb6shypiOxwTaPGsFuZXGGQlRqyjobVNvNccsn8hM0jvJcpe2EuNRP8A2y9Q7iFyj7YZZc5/9ZeoCPfE2w7o/my9Q7iPfC2w6Jv5qvUTuD5QdsWsnUnu/uy9Re4r2/bY5Zc5PLq7GXqHcFt9tk80qlZJ8fuf9xO52T29bZNfha/oP3F7jr5cqO0sbmpQninNSpwlOWvTHguG/i/AS3BhkUuUDa6vRVWne3E6b4TUM0XudlXt/td39cr/ACjuK9vm1r/rC6z+Qdzs4bjHNpsRkqtw7ivPLJTlDN5Hfa6ne2px29VkeXe6Lp+o1ct3RLfzji7J2hf/AGa3ozfx3U/ffdz/AGZ0f8LT7Dr7RPhRrejHxvU/ffcn4d0n8LT7RV1No3/2q/o0Pjeo+++6/s7pJ/16faJS2mfwlSr+ajN6vqL/AM77rOg6Wd5t6faE57UZNyVz5EZ+I3vuvu6fCbH2T2Y0q20X9JVfHGJfit/7771m9F0173b0+0b/APY5YhfXO39aFevJ0naT1R4asnHJv9hy17mvXc67l329rRtTG3pkn5Ppsw0AajyuQ18m+0C/uzfkaYWPm3k5w6zvqV72XbwqyhKOTks8uJYlbvHZ/Cst9jQ80plzQwDCl+I0PNCZckcBwvvGh5oO7kWBYX3jQ80GVlgeGZfzGh5oMrLBMNX4lQ80GUrBsO7yoeaBZYRh64WdDzEDKywqwXC0oeYgjVOULZa2xTD6PY1GnSqwnxisk1lweS+kla01icnuxCwqrWvMSp051JR0U4S+G0s8822uPRwEmDVqy267tFCo3RtLLmFFNymsmnvz8XAJGHZSp3OpUYYZN6fguO9Z59Pg4gdtSsaHMw5+2oKrktSjHdn4AJ7Bte96XmoodhWve9LzUEOwrbuFLzUBHYdt3Cl5qAdiW/cKXmoB2Jb9wpeagJ7Godxp+agHY9HuVPzUBhXNehQm4qzqVGm19rpZ9GfHx5fKBl06dKdOM1SjHUk8nHJoCeap/Ej5AHNw+JHyATzceiMfIBKjFLgvIB55jewcMTx2rcQjCmpz1uUoZpeFb15HmSxqXDB5UKtTZ/AsMsMLq1KNOGecoyycsl0teHNhI8utsZxa5hreI14rq1N/tDTlqYhfKEnK9ryy375P1ge5cl9epcbI2s685VJqU1qk83kpPIRmtty3FQAgCGBRgYmIJRtK8slmoN/QBrn2NEc9u7mXVZT/AFomW/k+nwgBrHKdDXye7Qr+5VH5E2CPm/krf/UI+GD/AEli16FArLljwAugLJgWTAnMAmETmAzAgCUB0G2dKrXsaFGEnGlOblUy6VGLll9H0GNerjpup36fa9bc07f1uGsbJbR1MZtauH2tndWjs62cnVk3zm9JPJ8HwW7Lczz7W7dWrF/s+h1nQadnbuvRntcXMx/WPSGtMVnxyPU+Q4295QAhsBmAzAAANb2hypXN3eTvKttC3toNvnZRppapZtpPLPct5z1ecOmidnkeJ8pVzb31SjbTqXFGDy51XFRauvLKXAcb9VzPo33Z2/t8dw1XdDEK9adGpSk4xuKnwHqW6S1ZPp3Ge8q4mHoB2cQAAAlAeW8t1KU7Szkk2k2m/EwseT4LcVbG3qxjlGVSm6U046tz45eTiSdlxleUKlSMlCnN7t3wQr3jkrpVKex9tzkHFuc2k1lu1MRm+W3lRAACGBRgYWKvTh10/wCyl+hiDpfsY457ZX8uqyl+vAy38n0wEANf5Qo6thdoF/cK36jBHzJyWP7ov4/+MH9LLCvR4lRW6qzo2lapSip1IQcoxk8k2luWfQKrTMR5Q6GGWtKpfWbhKa4a5ZN9OTcN6PPt9Rp3LZo74bu3jyjDOUi1xDUre1Tks24urLNLr3QZvVucfLGrjp81z4zt9HCKMqt3YwjFScEnWkm2nk1+DMaOp07mq6NPmeW7t4maw8M5TqGIzdO3sqfOfFdxLy7qZvVucZmsXjpmbWZiu3rwy0lc3NhTjRT0p9kS3vLPL8GctPVadW5dqeY3dvtl12GcqlHEK/M0rCCqPLTHshvP6h11a7pmbGLx0zNrscR28lY2tS4r2FONKCi390b/AIS1L+j1NHKdVp9T0vm3NEs5Z7OrwzlXoX1wqMbBRnLLSuezz+qdtWu6ZmxjVx0zNrd9msSuMRt69a5jSjlUypqnnuhkms8+L47y6NXKZTte8YW1GLxtJrOWUaaz8bNVdPbu49n8S7Jw+viHNUqNKpLmo1tMV8LwqO/cvActOnTozxnd6d7qd7fkm7qtk+rtcCq4hXoynfOhKMG4x5rfms9zb8PqNac/N59WPky5XEIa5SklGCzk3wSN5ZkYr2iwn4OVxr1LNOG9Mx6kb9OuOjtDYXV1zNvVzqJOTi+pLNvyE9TSenXZVKkMoyg1pkjpKxYReaKiQJA1fbO3r3mE47a2tBV61WxjGFPrk3UyOevy66PFeALYDafgsNr/AEesuUw9O5K8DxPAsExKli1p2PKpXpyg3k3JZrq6v2mb5bkxK9X6Dq4AAAAQGBitjG7puUs3KEXkks8wR01HZaNSMpV7mvTcm3ppyyyC5Zdrs3b0Kmt3FzU3NZTnu4gy7ylCNOnGEFlGKySCJAAR0AQBVgddjrywe+f9jP8AVYgwPsYIf+qMUl1WWX14mW30iEAOj26jr2Lx6PXY1/1GCPl3kt/n94v7OP6Swr0uJUcd1/Na3+B/oJfCx818p06kNtMTtqTqVKFKp8CGTShmk2kuhZs56NOnT4mG9Xl1+xtddtOFU60ZwozuqcZrLNNalua6UavhmSXy7/lo1Utu7ylb846bhCbgllFScd+S+nPrZnTJO7WpqGE3E4YnaqrGcKbqwU3HPPLNZ7jV8MyN65dY81tbRp2qmoTtoSlBLKOebXR4EZ0T5t63ntCpVhWjqjOKzWbi3nkbYem8u8VDFsHdrCa5yyWaySWWby4dPH6DGlrU8wjOvCWehr5MzbL6x2YcHY03TTVOVChKKllnlzUeOXSTSakYng1riGKWfZckqE6i1xfUv4y8ZqxNNTRw/GLmw7G2ktbCzna3MuxKVnPVGdLLc3vbW/5PCkZw07irpt7Z5ZRUI9G405tTjSu60cRhiE6MrSeSpulNuUovjrT4NZZ7usxi93XMnh47c19p7e4q0KdTE9NOTiubjLLJdWS4dRcRM12Wyz2nvsZoWtzVxJW1ZuFbndSg49KeayJdMwstes2tvce61urapR7CjFwlGTk6i05ZNdGT4dZZEzMOfbjFr/CMCleYXbxr1qU03TcG1KO/PPLh1mqxpeWz5V8bqVabja2VPPhTjSqtT35b8034NzRO/wBWsRtvJ3tfjG0+J1uzbSjb2dKm8nRpzUZyzXFybe7xdPHLcluUsmGwbSV7q2t8Yq4fGUruFlGVJRjqbknUyyXSZ1Y5TLejPG4eZT2l2xlUhJ4bjufFJW0En+bPXz6X7b7vLx6n7p7f5bdsbe41iFliTx22u7d050+aVzSUG9+/LKKzXA827du6v9OYj0bc1zTfUua380wAAPNOU3GtqMNxe2hglGv2HzSlGVK35xVKmrJxk+jd/HVnU1pei2c6lS1ozrw5urKCc4L+i8t6NTx3ZvlzAACAAAIAAQBqm2+0lvgsaFGtzmuq9TcXkoxT4t5MzquGtOnK8MVo4vsjc3dvq0OjOPwuOaTLpuUsxWd9i/H+XcZl1WsV9f8AcRp9EhADqtq6brbL4xTgnKU7OtFJdLcGB8q8l+7FLqPXR/aixa9OiisoqQ105w+Mmgrpq+zllc151rm0sK1ae+U52sW5fK2Y4tc0W2zdhTlCpTsbClUi8042kE009zTHH8zk57rA7a7rOtd0rWtVe5zqW0JN+NocDnXHb4DZ5ala2lNpv8Up9fH70cTnWVXwqFxUVS4lTqzW5SnQpyeXytDgc646OE0vhZ06McpZL7mpb/D96XinKuavhyrtOvVjUcVknKjTeS6vvRxhzrhpYTTcppwhFReSfM0/hLLjuROEXnWfa2yt1LKTlKWWcnu4bksluNaZhi3LX8YvLp3k4wtnJQemL1Leuv8AjqCxnYRVvVRlVlbOUm1GOdRcN+YSs65VxdWs4ygqcm1ks8814f46CkYVayqUrKKinKerOWneB1lenewS5i2nPPPPPdkRWfgtC5nzlS6pOhJJxhm8+jj+kJln4dZu3lOU5RlOW5ZdRRk3TqRt6rowjUqqL0wbyUn1ZhHUylf858HDrX7/AC1OUWtOb358eGTyyJhWbhcrhxqdmUKFB7subknq6/2FF7i0tq1bnpvKppUdUZuOaTby3fKyWS+SWzwwK9qo1ftcITp6st9zJSay49S3/KTjpXlWXC0sYyTbjJrflKo5LPxsTTDNZnPUu6w85GmUc9S7pDzkDBztPukPOQXDDhWu3NqULeMd+T5zPryBhlW8puL5508892lgw5Vv6RlFtLfBMCVTn0Ql5AqeZqPhTm/8rCYOx6z4UavmMGFlaXL4W9f0b9QyYWVjdvhaXHo5eoGE+516/wATufRS9QMOh2k2JrY84c/ZXK0xcW+ZbzXjRLJWtNsc1fZS+t9nq9hYYddPOlKMc6Tzk30vcJiFzXc8gmxmN7NXWKXON2nYsa1OFOnGU4ylJptt7m9xFexhAAB0dXZLApycoYZa0Jyk5SlQpqk5N9bjln4wKrZLB1+LS9JL1lE9qeD96v0svWBPang3ef52frIHapg3ef52frAntVwbvP8AOz9YDtVwbvP87P1gO1bBu8/zs/WBPatg3eS9JP1gStmMHX4jDzpesCe1nB+8KXjz9YE9reDfk63fyxzApLZXAZPOWD2En1yoxf7AOSOzeCRWSwiwy/8Ajx9QFls9gy/qjD/m0PUBPa/g35Jw/wCbQ9QE+4GD/knD/m0PUAWA4QuGFWHzeHqAssEwpcMMsV/t4eoCywfDFww6z9BH1ASsJw5cLC09DH1AWWGWK4WVsv8ASj6gLKws1wtLdf6a9QFlZ2y4W9Ff5EBZW1BcKNPzUBKo0lwpwX+VATzVP4kfIBPNw+JHyANEfiryATkupATkAAAAAAAAAAAAAAAAAAAAAAAAAAAAAAAAAAAAAAAAAAAAAAAAAAAAAAAAAAAAAAAAAAAAAAAAAAAAAAAAAAAAAAAAAAAAAAAAAAAAAAAAAAAAAAAAAAAAAAAAAAAAAAAAAAAAAAAAAAAAAAAAAAAAAAAAAAAAAAAAAAAAAAAAAAAAAAAAAAAAAAAAAAAAAAAAAAAAAAAAAAAAAAAAAAAAAAAAAAAAAAAAAAAAAAAAAAAAAAAAAAAAAAAAAAAAAAAAAAAAAAAAAAAAAAAAAAAAAAAAAAAAAAAAAAAAAAAAAAAAAAAAAAAAAAAAAAAAAAAAAAAAAAAAAAAAAAAAAAAAAAAAAAAAAAAAAAAAAAAAAAAAAAAAAAAAAAAAAAAAAAAAAAAAAAAAAAAAAAAAAAAAAAAAAAAAAAAAAAAAAAAAAAAAAAAAAAAAAAAAAAAAAAAAAAAAAAAAAAAAAAAAAAAAAAAAAAAAAAAAAAAAAAAAAAAAAAAAAAAAAAAAAAAAAAAAAAAAAAAAAAAAAAAAAAAAAAAAAAAAAAAAAAAAAAAAAAAAAAAAAAAAAAAAAAAAAAAAAAAAAAAAAAAAAAAAAAAAAAAAAAAAAAAAAAAAAAAAAAAAAAAAAAAAAAAAAAAAAAAAAAAAAAAAAAAAAAAAAAAAAAAAAAAAAAAAAAAAAAAAAAAAAAAAAAAAAAAAAAAAAAAAAAAAAAAAAAAAAAAAAAAAAAAAAAAAAAAAAAAAAAAAAAAAAAAAAAAAAAAAAAAAAAAAAAAAAAAAAAAAAAAAAAAAAAAAAAAAAAAAAAAAAAAAAAAAAAAAAAAAAAAAAAAAAAAAAAA//9k=;" vertex="1" parent="1">
          <mxGeometry x="366.5" y="106.21000000000001" width="57" height="57" as="geometry"/>
        </mxCell>
        <mxCell id="p0AlBM5lABDZXC_UDDaY-22" value="NVR" style="text;html=1;align=center;verticalAlign=middle;resizable=0;points=[];autosize=1;" vertex="1" parent="1">
          <mxGeometry x="375" y="100" width="40" height="20" as="geometry"/>
        </mxCell>
        <mxCell id="p0AlBM5lABDZXC_UDDaY-23" value="" style="shape=image;verticalLabelPosition=bottom;labelBackgroundColor=#ffffff;verticalAlign=top;aspect=fixed;imageAspect=0;image=data:image/webp,UklGRkoHAABXRUJQVlA4ID4HAACQLQCdASrEAMQAPj0ejUQiIaGTWWUEIAPEtJfe+GATn7pn9VGVn3c+CJmS9QLuF/tPy55lvqrr5vkfsAfx/+oehVpjer/Us/tX/I4ED9jin3VTnDf6OLHlVozcdtMAyLi478X3Ggns0map0etpAoZep12jbTT4M2Lc5Pzurvd+mfRDRY8NESYHBD2DGOUiWW+P7JiuYPAJtD5/XCnz/DdZ0UGIvBolin87jltkEBwR14yAGl/hzEh7FOwZ2QSO9SISDAshc6J/Ppi95HeVqCv9InKy9TrtS303UGJh5yg7Jj5Fs9YQCHRfFEcSJeXl08Sa89LXSUYn9JUyesJoOMS9Tk+4n91m5VjlYRhDFjrSZwNlEMcW/+VF4NEsUMFqTlmjDvTVI24UauPJoBC9RsGiWKfp1EDEGmOS5OwdJEvUa0kgashdmC6Z8bASy5MQObrm4uJ1XXZqP5Fpy79UIeiNiHHakMS8TjtqD5iGjJXA6ocpEqgAAP7+FLOHphy7fOdimVJL6JKP8r8yb/gTRULdaWY49mCxus4Or8dWIz10WePmI1cvwC/l0fDbDeXLC4lnUlBbnw6V6okBXKbEq8dJ1TbtpTdx+w7/8m3/cI3NN/gwhrdAT8QwY4tgITGOqOOB36ZiHiznwJUSTSXpyP3TwEmwp+N2f//S2ob/lycX4PxUVSVoJrVYMA8R7cP8+xnT8o7T8F/368UgpjTV9XRYksxTCIF/FpK6sj8CHDx0VRh/ba8gY9Ss0CefTE2nph/7ao/PNV8H5HZjwnt+FH2VP0iBRnCSm/sxXAzidsv2bI9q3UQoG9EHAbYEB+Iy4GUm1n+0/3iNJCH7oaAT7UzhGd4UdwL1eZZPSrRn/L8rBFGKSIfxupJ0Q3s7/uxjjwkSRaCXb9I645TESYeClkvfP1PgZxjQz2SO8XklvxMFCQEiBgahGXH9oUGA84cYN9Dk7A3x10/ZuAWk+O2yr0iHTdxSJdlq/1N7+0SfE1pUMOcuXlney3zv807ARcD9LTn92z+528WgEPXelV2Ti1CprLJUL1P3k9PDl0JO3i51ZUK4CLdLEFLIhSIEbdtkhS6FaTcYvU993IrlmCRa0eBo3NFkd7cHQP/N+HZum3AHxk3zMu+X9op4sN2evhuNxAY1dWIiDWdI726XKHuSVcnBYhOUhBUMrAG0JklaP5OrRgS4t7wqPXRLYPEhYyRQNXtAOm/J9zZm80uCt7uF48mgHeQET3WXb+UPrhHQuZKLzNAD9ZhrbS8HAL78jqTH2StFDiA7hEU7dHLq+a6qFClFhXe1U6E/Bmw6PZxf53/Hqu24p8vHv0QUdtkv6kSGidBslPRAykadNiTKUIx8epXu76zwvLLl+6cBBs+7Gz+YIB6eT7Yf632MoXqsBnki33o4sztGl3TIPupGznVYwIy7xXSR+PkXRhk3SatmnB2+pQfsJ5PLge3IXW8wACU/aNHk8trT9j/HXxzhd3fr0+b+brmFQpbbKIlYxhJKqe9I801bcW2AK9cJqoVHwMdfIFXXmAugHjrq9ru+btz52Mndng3en6FJRDQnXhQWNqLMp3lZNkz/kydisGzGluDAAAXa64W6AK8/XO0mP9JSVX/KabF/rSfR+o/U5tW4bOpB1Fsuc7qARUi0wSmFYNUqXvtA0F7NQ1xVXvarVetZ2H0bI1gb+4alyjtq+qmUvyt98/ORnbKaMFHswj+HT13950nDjh/quaAI38zH6B5Xf8TiE70H33R+v/8NrdCyQfCOumfU1bdnFsRjZ/CS04fNIVcuxAEO22/vs0h1C7LDyeIKPYozzhM+RnaoUEXi4/q93COrhW5wC+V/Y8fyFARxtZVi/ZkPHXaI0VPF//oefxIn/lKq32/PLts4J1+fjypFnsW787GphT2ar92qob2CHhWFUdYX+Iz4RAH1xC2PT/ltHn5eNLhOOmMyoihdT98jj+jKE7RMptJAJfhjC2qD59RuSbkiiImqyHrjMvlffMqSnruviGHI8sCnXvuh7kqryN9t0uQM1iW0tIgIfLZlrgQDogVybjzq/yvEm394LBKTJRh/4i4fvXQkz2wiEWcPTDsgMEUrVic3/xBL3C8miAw+1C6oJB4GoeYAACwmXEP87JJyFnVcCsrVy7Bn7KPtUQY+2UO7MA8PIbcJ2MBs77a9JvE66iz9EzEn6yUYILGJocc49UImNtMoFmT75nKk8uDM+LFRSq7Fr93M+6J5ylY+Werb/jz33/yfQI59phoQsxLkaj0G5PPaQGtb08mE/0vGy7FJqB9mnPZt8LmiLb3GtOC0rK3uME3Q5ZhDVeh53V++UXZeIT6dQtQ5RzxA7dDrMevhepGeuRe4jDuBu0Zb5d9eBXYtbieKhaVHcY4tk5G44exGaf+Bsi3GSaGV+Ib6ZlLv/mqxns7oZbAkj//N4ew4rdwFXg7tIdAFXwqPfaJofbqZ0wNbxTgAAAA=;" vertex="1" parent="1">
          <mxGeometry x="510" y="500" width="50" height="50" as="geometry"/>
        </mxCell>
        <mxCell id="p0AlBM5lABDZXC_UDDaY-24" value="" style="shape=image;verticalLabelPosition=bottom;labelBackgroundColor=#ffffff;verticalAlign=top;aspect=fixed;imageAspect=0;image=data:image/webp,UklGRkoHAABXRUJQVlA4ID4HAACQLQCdASrEAMQAPj0ejUQiIaGTWWUEIAPEtJfe+GATn7pn9VGVn3c+CJmS9QLuF/tPy55lvqrr5vkfsAfx/+oehVpjer/Us/tX/I4ED9jin3VTnDf6OLHlVozcdtMAyLi478X3Ggns0map0etpAoZep12jbTT4M2Lc5Pzurvd+mfRDRY8NESYHBD2DGOUiWW+P7JiuYPAJtD5/XCnz/DdZ0UGIvBolin87jltkEBwR14yAGl/hzEh7FOwZ2QSO9SISDAshc6J/Ppi95HeVqCv9InKy9TrtS303UGJh5yg7Jj5Fs9YQCHRfFEcSJeXl08Sa89LXSUYn9JUyesJoOMS9Tk+4n91m5VjlYRhDFjrSZwNlEMcW/+VF4NEsUMFqTlmjDvTVI24UauPJoBC9RsGiWKfp1EDEGmOS5OwdJEvUa0kgashdmC6Z8bASy5MQObrm4uJ1XXZqP5Fpy79UIeiNiHHakMS8TjtqD5iGjJXA6ocpEqgAAP7+FLOHphy7fOdimVJL6JKP8r8yb/gTRULdaWY49mCxus4Or8dWIz10WePmI1cvwC/l0fDbDeXLC4lnUlBbnw6V6okBXKbEq8dJ1TbtpTdx+w7/8m3/cI3NN/gwhrdAT8QwY4tgITGOqOOB36ZiHiznwJUSTSXpyP3TwEmwp+N2f//S2ob/lycX4PxUVSVoJrVYMA8R7cP8+xnT8o7T8F/368UgpjTV9XRYksxTCIF/FpK6sj8CHDx0VRh/ba8gY9Ss0CefTE2nph/7ao/PNV8H5HZjwnt+FH2VP0iBRnCSm/sxXAzidsv2bI9q3UQoG9EHAbYEB+Iy4GUm1n+0/3iNJCH7oaAT7UzhGd4UdwL1eZZPSrRn/L8rBFGKSIfxupJ0Q3s7/uxjjwkSRaCXb9I645TESYeClkvfP1PgZxjQz2SO8XklvxMFCQEiBgahGXH9oUGA84cYN9Dk7A3x10/ZuAWk+O2yr0iHTdxSJdlq/1N7+0SfE1pUMOcuXlney3zv807ARcD9LTn92z+528WgEPXelV2Ti1CprLJUL1P3k9PDl0JO3i51ZUK4CLdLEFLIhSIEbdtkhS6FaTcYvU993IrlmCRa0eBo3NFkd7cHQP/N+HZum3AHxk3zMu+X9op4sN2evhuNxAY1dWIiDWdI726XKHuSVcnBYhOUhBUMrAG0JklaP5OrRgS4t7wqPXRLYPEhYyRQNXtAOm/J9zZm80uCt7uF48mgHeQET3WXb+UPrhHQuZKLzNAD9ZhrbS8HAL78jqTH2StFDiA7hEU7dHLq+a6qFClFhXe1U6E/Bmw6PZxf53/Hqu24p8vHv0QUdtkv6kSGidBslPRAykadNiTKUIx8epXu76zwvLLl+6cBBs+7Gz+YIB6eT7Yf632MoXqsBnki33o4sztGl3TIPupGznVYwIy7xXSR+PkXRhk3SatmnB2+pQfsJ5PLge3IXW8wACU/aNHk8trT9j/HXxzhd3fr0+b+brmFQpbbKIlYxhJKqe9I801bcW2AK9cJqoVHwMdfIFXXmAugHjrq9ru+btz52Mndng3en6FJRDQnXhQWNqLMp3lZNkz/kydisGzGluDAAAXa64W6AK8/XO0mP9JSVX/KabF/rSfR+o/U5tW4bOpB1Fsuc7qARUi0wSmFYNUqXvtA0F7NQ1xVXvarVetZ2H0bI1gb+4alyjtq+qmUvyt98/ORnbKaMFHswj+HT13950nDjh/quaAI38zH6B5Xf8TiE70H33R+v/8NrdCyQfCOumfU1bdnFsRjZ/CS04fNIVcuxAEO22/vs0h1C7LDyeIKPYozzhM+RnaoUEXi4/q93COrhW5wC+V/Y8fyFARxtZVi/ZkPHXaI0VPF//oefxIn/lKq32/PLts4J1+fjypFnsW787GphT2ar92qob2CHhWFUdYX+Iz4RAH1xC2PT/ltHn5eNLhOOmMyoihdT98jj+jKE7RMptJAJfhjC2qD59RuSbkiiImqyHrjMvlffMqSnruviGHI8sCnXvuh7kqryN9t0uQM1iW0tIgIfLZlrgQDogVybjzq/yvEm394LBKTJRh/4i4fvXQkz2wiEWcPTDsgMEUrVic3/xBL3C8miAw+1C6oJB4GoeYAACwmXEP87JJyFnVcCsrVy7Bn7KPtUQY+2UO7MA8PIbcJ2MBs77a9JvE66iz9EzEn6yUYILGJocc49UImNtMoFmT75nKk8uDM+LFRSq7Fr93M+6J5ylY+Werb/jz33/yfQI59phoQsxLkaj0G5PPaQGtb08mE/0vGy7FJqB9mnPZt8LmiLb3GtOC0rK3uME3Q5ZhDVeh53V++UXZeIT6dQtQ5RzxA7dDrMevhepGeuRe4jDuBu0Zb5d9eBXYtbieKhaVHcY4tk5G44exGaf+Bsi3GSaGV+Ib6ZlLv/mqxns7oZbAkj//N4ew4rdwFXg7tIdAFXwqPfaJofbqZ0wNbxTgAAAA=;" vertex="1" parent="1">
          <mxGeometry x="510" y="559" width="50" height="50" as="geometry"/>
        </mxCell>
        <mxCell id="p0AlBM5lABDZXC_UDDaY-25" value="" style="shape=image;verticalLabelPosition=bottom;labelBackgroundColor=#ffffff;verticalAlign=top;aspect=fixed;imageAspect=0;image=data:image/webp,UklGRoQEAABXRUJQVlA4IHgEAAAQIACdASrEAMQAPj0ei0QiIaEUiSwIIAPEtLdvWWc2Sc29F+xvUoiFuUK9+/gY678rU7WXflf+F9R7+veivjOf7j1b/94KUMu2ep8Co0ceLGBpWuBluQNb/RL1tpL+YN47R1WIu8Bhr2tZJDUz674UZvOMSMr56SgpwjVOz8t874duzSkULqQlE/FfsCtlnNcoAKyZb7NRqdJ/M8R7FF17TbVvtmcrA+Gmxl5L/yOEV2wJpEyv7waqmRQqtMLCCCMWa0VRGtmMFXZNPjWlta16bfAaggIlwcVE6ueep8D9TeCTtqSYKjvjojmIF0nFwFE8eClpNfWdc60BUMhASobl2z1Pgft2VDDAAP79wIB+9SAog+6kKFF7NSDWpEJ+tnX6P2X/th1jiH+UbfYrvp/7zpgB+qAzCsia3vHQvE5RsGwjo2QqlzBCm1MM4BaBCV2GzIUBC2N6OMVA6NkSGNdVMNJ1H39uJSRDoEVL67oia6OuMT044uaXeSKhopjsz7j4V/2lqlplbCbFlOwwuubx5cZdWiN7NFzBqkUbSlayd/MGUBz3uEA6FHHNpU/dkQKV/J51v83tW2+lipbOmFbBwupGL7SavLoIgl5cWqgr2pqXn6M4nl6w5iaaK48GFisyEfMYHBihEDJ/WQleV4h0vG9oQhNohj887EX9RQSn0SXshuct5gdcbRlUV8q4HgR0/m360PN95AkiYpv/oWjeW9iyrnxRNTuQxPWFdeP3zsUn9Ph/aCQs8hg1g96/pwehQyda6CCkgCDIs1TDXFJ0ilQ1hg6B2ULwapFfT17r3Sf3E5dKRQlbvNglKKPFUPhPzpbEb/Cl7TkVqNY+l0cSxC+O92lAz4VOlgBPQqDgnCh4coNiVIw9Ru3jeZ+PoLEtdRNBLGGADRRudtNuhZpb5pVQ4r8cQW3mDEQueKEeSuqlTf/mgfP+rvbx7D7af0s7o642jvoZWmEBsyU68j6RZbAUbqg7WLCPsRj4feTV0Un2d+vPkV/cvNHVp5ASuzhCXM8VqBdkt/FB8T4MnlybN6y98KO+jvaOzX71kC7q1fnMs3Yhuf4i6lYgZIwBGGZuGBFX3VJk6bLQ2oVzJO2G4dY9eV6rUv56t7JioH/xIr+CX+2RvLrA3362Mv61qU5OFbyTSE8cW8SjrbxAbmJ/y41X74Vfv0QtPzg/3kj8UXJR5G+jf/J3DpOdixinTJG1u8eJ9+6Spf5cNlJUXZN3QbfkAOvv4ZH4pukjld0ntyMf9gnFFCmGGI0INd/J05FkS8lNOKW98ld1vB5/jH+FyzJijc4HQ7U4l6Pv+kVOHVnMEck0oDatYfSsagDbTTOVpD1Z+Oek6AheefYtyfogWH18H/aIe+A8I3R+9Bfxg9yUGvPvNvjMqRIYH6VF25NsqxlBh+bPqd23DA9j2ElK5FXt4yb9NuuD3+pplfQrXeBv1Xm+W6a5sGBfiKk7sBtW44syXJmG/XEQ/tNvoGY+Z3rgdKf/wUJAEVgx0ruFdEtGOGAAAAAA;" vertex="1" parent="1">
          <mxGeometry x="231.13" y="96.70999999999998" width="76" height="76" as="geometry"/>
        </mxCell>
        <mxCell id="p0AlBM5lABDZXC_UDDaY-27" value="monitor" style="text;html=1;align=center;verticalAlign=middle;resizable=0;points=[];autosize=1;" vertex="1" parent="1">
          <mxGeometry x="239.13" y="86.21000000000001" width="60" height="20" as="geometry"/>
        </mxCell>
      </root>
    </mxGraphModel>
  </diagram>
</mxfile>
